<ttFont>
    <TTGlyph name="A" xMin="11" yMin="0" xMax="568" yMax="642">
      <contour>
        <pt x="462" y="0" on="1"/>
        <pt x="447" y="72" on="1"/>
        <pt x="419" y="161" on="1"/>
        <pt x="283" y="164" on="1"/>
        <pt x="160" y="161" on="1"/>
        <pt x="130" y="77" on="1"/>
        <pt x="114" y="0" on="1"/>
        <pt x="11" y="0" on="1"/>
        <pt x="240" y="642" on="1"/>
        <pt x="361" y="642" on="1"/>
        <pt x="568" y="0" on="1"/>
      </contour>
      <contour>
        <pt x="301" y="541" on="1"/>
        <pt x="294" y="541" on="1"/>
        <pt x="189" y="245" on="1"/>
        <pt x="290" y="243" on="1"/>
        <pt x="393" y="245" on="1"/>
      </contour>
    </TTGlyph>
    <TTGlyph name="AE" xMin="-17" yMin="0" xMax="801" yMax="642">
      <contour>
        <pt x="793" y="0" on="1"/>
        <pt x="428" y="0" on="1"/>
        <pt x="423" y="72" on="1"/>
        <pt x="399" y="244" on="1"/>
        <pt x="172" y="188" on="1"/>
        <pt x="115" y="77" on="1"/>
        <pt x="88" y="0" on="1"/>
        <pt x="-17" y="0" on="1"/>
        <pt x="309" y="642" on="1"/>
        <pt x="711" y="642" on="1"/>
        <pt x="717" y="633" on="1"/>
        <pt x="709" y="554" on="1"/>
        <pt x="549" y="559" on="1"/>
        <pt x="457" y="559" on="1"/>
        <pt x="486" y="346" on="1"/>
        <pt x="692" y="393" on="1"/>
        <pt x="700" y="386" on="1"/>
        <pt x="707" y="313" on="1"/>
        <pt x="496" y="267" on="1"/>
        <pt x="521" y="82" on="1"/>
        <pt x="630" y="82" on="1"/>
        <pt x="794" y="88" on="1"/>
        <pt x="801" y="79" on="1"/>
      </contour>
      <contour>
        <pt x="358" y="541" on="1"/>
        <pt x="351" y="541" on="1"/>
        <pt x="220" y="283" on="1"/>
        <pt x="388" y="323" on="1"/>
      </contour>
    </TTGlyph>
    <TTGlyph name="AEacute" xMin="-17" yMin="0" xMax="801" yMax="874">
      <component glyphName="AE" x="0" y="0" flags="0x1000"/>
      <component glyphName="acute.cap" x="330" y="181" flags="0x1000"/>
    </TTGlyph>
    <TTGlyph name="Aacute" xMin="11" yMin="0" xMax="568" yMax="874">
      <component glyphName="A" x="0" y="0" flags="0x1000"/>
      <component glyphName="acute.cap" x="126" y="181" flags="0x1000"/>
    </TTGlyph>
    <TTGlyph name="Abreve" xMin="11" yMin="0" xMax="568" yMax="853">
      <component glyphName="A" x="0" y="0" flags="0x1000"/>
      <component glyphName="breve.cap" x="100" y="181" flags="0x1000"/>
    </TTGlyph>
    <TTGlyph name="Abreveacute" xMin="11" yMin="0" xMax="568" yMax="970">
      <component glyphName="A" x="0" y="0" flags="0x1000"/>
      <component glyphName="breveacute" x="100" y="181" flags="0x1000"/>
    </TTGlyph>
    <TTGlyph name="Abrevedotbelow" xMin="11" yMin="-176" xMax="567" yMax="852">
      <contour>
        <pt x="243" y="722" on="0"/>
        <pt x="174" y="772" on="0"/>
        <pt x="158" y="819" on="1"/>
        <pt x="184" y="852" on="1"/>
        <pt x="199" y="852" on="1"/>
        <pt x="223" y="794" on="0"/>
        <pt x="296" y="794" on="1"/>
        <pt x="365" y="794" on="0"/>
        <pt x="390" y="852" on="1"/>
        <pt x="405" y="852" on="1"/>
        <pt x="431" y="819" on="1"/>
        <pt x="414" y="772" on="0"/>
        <pt x="342" y="722" on="0"/>
        <pt x="292" y="722" on="1"/>
      </contour>
      <contour>
        <pt x="462" y="0" on="1"/>
        <pt x="447" y="72" on="1"/>
        <pt x="419" y="161" on="1"/>
        <pt x="283" y="164" on="1"/>
        <pt x="159" y="161" on="1"/>
        <pt x="130" y="77" on="1"/>
        <pt x="114" y="0" on="1"/>
        <pt x="11" y="0" on="1"/>
        <pt x="239" y="642" on="1"/>
        <pt x="361" y="642" on="1"/>
        <pt x="567" y="0" on="1"/>
      </contour>
      <contour>
        <pt x="301" y="541" on="1"/>
        <pt x="293" y="541" on="1"/>
        <pt x="189" y="245" on="1"/>
        <pt x="291" y="243" on="1"/>
        <pt x="393" y="245" on="1"/>
      </contour>
      <contour>
        <pt x="317" y="-62" on="0"/>
        <pt x="345" y="-91" on="0"/>
        <pt x="345" y="-117" on="1"/>
        <pt x="345" y="-144" on="0"/>
        <pt x="315" y="-176" on="0"/>
        <pt x="289" y="-176" on="1"/>
        <pt x="263" y="-176" on="0"/>
        <pt x="234" y="-146" on="0"/>
        <pt x="234" y="-120" on="1"/>
        <pt x="234" y="-94" on="0"/>
        <pt x="265" y="-62" on="0"/>
        <pt x="292" y="-62" on="1"/>
      </contour>
    </TTGlyph>
    <TTGlyph name="Abrevegrave" xMin="11" yMin="0" xMax="568" yMax="970">
      <component glyphName="A" x="0" y="0" flags="0x1000"/>
      <component glyphName="brevegrave" x="100" y="181" flags="0x1000"/>
    </TTGlyph>
    <TTGlyph name="Abrevehookabove" xMin="11" yMin="0" xMax="567" yMax="1022">
      <contour>
        <pt x="248" y="970" on="0"/>
        <pt x="218" y="946" on="1"/>
        <pt x="199" y="976" on="1"/>
        <pt x="245" y="1022" on="0"/>
        <pt x="293" y="1022" on="1"/>
        <pt x="323" y="1022" on="0"/>
        <pt x="364" y="986" on="0"/>
        <pt x="364" y="959" on="1"/>
        <pt x="364" y="940" on="0"/>
        <pt x="339" y="905" on="0"/>
        <pt x="310" y="881" on="1"/>
        <pt x="331" y="844" on="1"/>
        <pt x="291" y="822" on="1"/>
        <pt x="255" y="881" on="1"/>
        <pt x="306" y="919" on="0"/>
        <pt x="306" y="949" on="1"/>
        <pt x="306" y="970" on="0"/>
        <pt x="278" y="970" on="1"/>
      </contour>
      <contour>
        <pt x="243" y="703" on="0"/>
        <pt x="174" y="753" on="0"/>
        <pt x="158" y="800" on="1"/>
        <pt x="184" y="833" on="1"/>
        <pt x="199" y="833" on="1"/>
        <pt x="223" y="775" on="0"/>
        <pt x="296" y="775" on="1"/>
        <pt x="366" y="775" on="0"/>
        <pt x="391" y="833" on="1"/>
        <pt x="406" y="833" on="1"/>
        <pt x="431" y="800" on="1"/>
        <pt x="415" y="754" on="0"/>
        <pt x="343" y="703" on="0"/>
        <pt x="293" y="703" on="1"/>
      </contour>
      <contour>
        <pt x="462" y="0" on="1"/>
        <pt x="447" y="72" on="1"/>
        <pt x="419" y="161" on="1"/>
        <pt x="283" y="164" on="1"/>
        <pt x="159" y="161" on="1"/>
        <pt x="130" y="77" on="1"/>
        <pt x="114" y="0" on="1"/>
        <pt x="11" y="0" on="1"/>
        <pt x="239" y="642" on="1"/>
        <pt x="361" y="642" on="1"/>
        <pt x="567" y="0" on="1"/>
      </contour>
      <contour>
        <pt x="301" y="541" on="1"/>
        <pt x="293" y="541" on="1"/>
        <pt x="189" y="245" on="1"/>
        <pt x="291" y="243" on="1"/>
        <pt x="393" y="245" on="1"/>
      </contour>
    </TTGlyph>
    <TTGlyph name="Abrevetilde" xMin="11" yMin="0" xMax="567" yMax="990">
      <contour>
        <pt x="144" y="891" on="1"/>
        <pt x="144" y="900" on="1"/>
        <pt x="205" y="974" on="1"/>
        <pt x="215" y="978" on="1"/>
        <pt x="245" y="974" on="0"/>
        <pt x="294" y="958" on="1"/>
        <pt x="347" y="943" on="0"/>
        <pt x="359" y="943" on="1"/>
        <pt x="372" y="943" on="0"/>
        <pt x="400" y="974" on="1"/>
        <pt x="415" y="990" on="1"/>
        <pt x="424" y="990" on="1"/>
        <pt x="452" y="960" on="1"/>
        <pt x="452" y="951" on="1"/>
        <pt x="392" y="877" on="1"/>
        <pt x="381" y="873" on="1"/>
        <pt x="365" y="875" on="0"/>
        <pt x="304" y="892" on="1"/>
        <pt x="248" y="908" on="0"/>
        <pt x="237" y="908" on="1"/>
        <pt x="228" y="908" on="0"/>
        <pt x="210" y="892" on="0"/>
        <pt x="188" y="868" on="0"/>
        <pt x="182" y="861" on="1"/>
        <pt x="173" y="861" on="1"/>
      </contour>
      <contour>
        <pt x="366" y="773" on="0"/>
        <pt x="390" y="830" on="1"/>
        <pt x="405" y="830" on="1"/>
        <pt x="430" y="797" on="1"/>
        <pt x="414" y="752" on="0"/>
        <pt x="344" y="704" on="0"/>
        <pt x="296" y="704" on="1"/>
        <pt x="247" y="704" on="0"/>
        <pt x="180" y="752" on="0"/>
        <pt x="166" y="797" on="1"/>
        <pt x="190" y="830" on="1"/>
        <pt x="205" y="830" on="1"/>
        <pt x="229" y="773" on="0"/>
        <pt x="299" y="773" on="1"/>
      </contour>
      <contour>
        <pt x="462" y="0" on="1"/>
        <pt x="447" y="72" on="1"/>
        <pt x="419" y="161" on="1"/>
        <pt x="283" y="164" on="1"/>
        <pt x="159" y="161" on="1"/>
        <pt x="130" y="77" on="1"/>
        <pt x="114" y="0" on="1"/>
        <pt x="11" y="0" on="1"/>
        <pt x="239" y="642" on="1"/>
        <pt x="361" y="642" on="1"/>
        <pt x="567" y="0" on="1"/>
      </contour>
      <contour>
        <pt x="301" y="541" on="1"/>
        <pt x="293" y="541" on="1"/>
        <pt x="189" y="245" on="1"/>
        <pt x="291" y="243" on="1"/>
        <pt x="393" y="245" on="1"/>
      </contour>
    </TTGlyph>
    <TTGlyph name="Acaron" xMin="11" yMin="0" xMax="568" yMax="860">
      <component glyphName="A" x="0" y="0" flags="0x1000"/>
      <component glyphName="caron.cap" x="101" y="181" flags="0x1000"/>
    </TTGlyph>
    <TTGlyph name="Acircumflex" xMin="11" yMin="0" xMax="567" yMax="870">
      <contour>
        <pt x="159" y="774" on="1"/>
        <pt x="225" y="818" on="0"/>
        <pt x="283" y="870" on="1"/>
        <pt x="307" y="870" on="1"/>
        <pt x="361" y="822" on="0"/>
        <pt x="431" y="774" on="1"/>
        <pt x="412" y="731" on="1"/>
        <pt x="401" y="731" on="1"/>
        <pt x="383" y="742" on="1"/>
        <pt x="306" y="790" on="0"/>
        <pt x="295" y="797" on="1"/>
        <pt x="267" y="778" on="0"/>
        <pt x="190" y="731" on="1"/>
        <pt x="179" y="731" on="1"/>
      </contour>
      <contour>
        <pt x="462" y="0" on="1"/>
        <pt x="447" y="72" on="1"/>
        <pt x="419" y="161" on="1"/>
        <pt x="283" y="164" on="1"/>
        <pt x="159" y="161" on="1"/>
        <pt x="130" y="77" on="1"/>
        <pt x="114" y="0" on="1"/>
        <pt x="11" y="0" on="1"/>
        <pt x="239" y="642" on="1"/>
        <pt x="361" y="642" on="1"/>
        <pt x="567" y="0" on="1"/>
      </contour>
      <contour>
        <pt x="301" y="541" on="1"/>
        <pt x="293" y="541" on="1"/>
        <pt x="189" y="245" on="1"/>
        <pt x="291" y="243" on="1"/>
        <pt x="393" y="245" on="1"/>
      </contour>
    </TTGlyph>
    <TTGlyph name="Acircumflexacute" xMin="11" yMin="0" xMax="568" yMax="967">
      <component glyphName="A" x="0" y="0" flags="0x1000"/>
      <component glyphName="circumflexacute" x="100" y="181" flags="0x1000"/>
    </TTGlyph>
    <TTGlyph name="Acircumflexdotbelow" xMin="11" yMin="-176" xMax="567" yMax="869">
      <contour>
        <pt x="157" y="773" on="1"/>
        <pt x="223" y="817" on="0"/>
        <pt x="281" y="869" on="1"/>
        <pt x="305" y="869" on="1"/>
        <pt x="359" y="821" on="0"/>
        <pt x="429" y="773" on="1"/>
        <pt x="410" y="730" on="1"/>
        <pt x="399" y="730" on="1"/>
        <pt x="381" y="741" on="1"/>
        <pt x="304" y="789" on="0"/>
        <pt x="293" y="796" on="1"/>
        <pt x="265" y="777" on="0"/>
        <pt x="188" y="730" on="1"/>
        <pt x="177" y="730" on="1"/>
      </contour>
      <contour>
        <pt x="462" y="0" on="1"/>
        <pt x="447" y="72" on="1"/>
        <pt x="419" y="161" on="1"/>
        <pt x="283" y="164" on="1"/>
        <pt x="159" y="161" on="1"/>
        <pt x="130" y="77" on="1"/>
        <pt x="114" y="0" on="1"/>
        <pt x="11" y="0" on="1"/>
        <pt x="239" y="642" on="1"/>
        <pt x="361" y="642" on="1"/>
        <pt x="567" y="0" on="1"/>
      </contour>
      <contour>
        <pt x="301" y="541" on="1"/>
        <pt x="293" y="541" on="1"/>
        <pt x="189" y="245" on="1"/>
        <pt x="291" y="243" on="1"/>
        <pt x="393" y="245" on="1"/>
      </contour>
      <contour>
        <pt x="317" y="-62" on="0"/>
        <pt x="345" y="-91" on="0"/>
        <pt x="345" y="-117" on="1"/>
        <pt x="345" y="-144" on="0"/>
        <pt x="315" y="-176" on="0"/>
        <pt x="289" y="-176" on="1"/>
        <pt x="263" y="-176" on="0"/>
        <pt x="234" y="-146" on="0"/>
        <pt x="234" y="-120" on="1"/>
        <pt x="234" y="-94" on="0"/>
        <pt x="265" y="-62" on="0"/>
        <pt x="292" y="-62" on="1"/>
      </contour>
    </TTGlyph>
    <TTGlyph name="Acircumflexgrave" xMin="11" yMin="0" xMax="568" yMax="967">
      <component glyphName="A" x="0" y="0" flags="0x1000"/>
      <component glyphName="circumflexgrave" x="100" y="181" flags="0x1000"/>
    </TTGlyph>
    <TTGlyph name="Acircumflexhookabove" xMin="11" yMin="0" xMax="567" yMax="1008">
      <contour>
        <pt x="349" y="959" on="0"/>
        <pt x="321" y="936" on="1"/>
        <pt x="303" y="964" on="1"/>
        <pt x="345" y="1008" on="0"/>
        <pt x="392" y="1008" on="1"/>
        <pt x="421" y="1008" on="0"/>
        <pt x="459" y="974" on="0"/>
        <pt x="459" y="948" on="1"/>
        <pt x="459" y="930" on="0"/>
        <pt x="436" y="897" on="0"/>
        <pt x="408" y="874" on="1"/>
        <pt x="428" y="839" on="1"/>
        <pt x="390" y="817" on="1"/>
        <pt x="356" y="874" on="1"/>
        <pt x="404" y="911" on="0"/>
        <pt x="404" y="938" on="1"/>
        <pt x="404" y="959" on="0"/>
        <pt x="378" y="959" on="1"/>
      </contour>
      <contour>
        <pt x="158" y="754" on="1"/>
        <pt x="224" y="798" on="0"/>
        <pt x="282" y="850" on="1"/>
        <pt x="306" y="850" on="1"/>
        <pt x="360" y="802" on="0"/>
        <pt x="430" y="754" on="1"/>
        <pt x="411" y="711" on="1"/>
        <pt x="400" y="711" on="1"/>
        <pt x="382" y="722" on="1"/>
        <pt x="305" y="770" on="0"/>
        <pt x="294" y="777" on="1"/>
        <pt x="266" y="758" on="0"/>
        <pt x="189" y="711" on="1"/>
        <pt x="178" y="711" on="1"/>
      </contour>
      <contour>
        <pt x="462" y="0" on="1"/>
        <pt x="447" y="72" on="1"/>
        <pt x="419" y="161" on="1"/>
        <pt x="283" y="164" on="1"/>
        <pt x="159" y="161" on="1"/>
        <pt x="130" y="77" on="1"/>
        <pt x="114" y="0" on="1"/>
        <pt x="11" y="0" on="1"/>
        <pt x="239" y="642" on="1"/>
        <pt x="361" y="642" on="1"/>
        <pt x="567" y="0" on="1"/>
      </contour>
      <contour>
        <pt x="301" y="541" on="1"/>
        <pt x="293" y="541" on="1"/>
        <pt x="189" y="245" on="1"/>
        <pt x="291" y="243" on="1"/>
        <pt x="393" y="245" on="1"/>
      </contour>
    </TTGlyph>
    <TTGlyph name="Acircumflextilde" xMin="11" yMin="0" xMax="567" yMax="990">
      <contour>
        <pt x="144" y="891" on="1"/>
        <pt x="144" y="900" on="1"/>
        <pt x="205" y="974" on="1"/>
        <pt x="215" y="978" on="1"/>
        <pt x="245" y="974" on="0"/>
        <pt x="294" y="958" on="1"/>
        <pt x="347" y="943" on="0"/>
        <pt x="359" y="943" on="1"/>
        <pt x="372" y="943" on="0"/>
        <pt x="400" y="974" on="1"/>
        <pt x="415" y="990" on="1"/>
        <pt x="424" y="990" on="1"/>
        <pt x="452" y="960" on="1"/>
        <pt x="452" y="951" on="1"/>
        <pt x="392" y="877" on="1"/>
        <pt x="381" y="873" on="1"/>
        <pt x="365" y="875" on="0"/>
        <pt x="304" y="892" on="1"/>
        <pt x="248" y="908" on="0"/>
        <pt x="237" y="908" on="1"/>
        <pt x="228" y="908" on="0"/>
        <pt x="210" y="892" on="0"/>
        <pt x="188" y="868" on="0"/>
        <pt x="182" y="861" on="1"/>
        <pt x="173" y="861" on="1"/>
      </contour>
      <contour>
        <pt x="360" y="802" on="0"/>
        <pt x="430" y="754" on="1"/>
        <pt x="411" y="711" on="1"/>
        <pt x="400" y="711" on="1"/>
        <pt x="382" y="722" on="1"/>
        <pt x="305" y="770" on="0"/>
        <pt x="294" y="777" on="1"/>
        <pt x="266" y="758" on="0"/>
        <pt x="189" y="711" on="1"/>
        <pt x="178" y="711" on="1"/>
        <pt x="158" y="754" on="1"/>
        <pt x="224" y="798" on="0"/>
        <pt x="282" y="850" on="1"/>
        <pt x="306" y="850" on="1"/>
      </contour>
      <contour>
        <pt x="462" y="0" on="1"/>
        <pt x="447" y="72" on="1"/>
        <pt x="419" y="161" on="1"/>
        <pt x="283" y="164" on="1"/>
        <pt x="159" y="161" on="1"/>
        <pt x="130" y="77" on="1"/>
        <pt x="114" y="0" on="1"/>
        <pt x="11" y="0" on="1"/>
        <pt x="239" y="642" on="1"/>
        <pt x="361" y="642" on="1"/>
        <pt x="567" y="0" on="1"/>
      </contour>
      <contour>
        <pt x="301" y="541" on="1"/>
        <pt x="293" y="541" on="1"/>
        <pt x="189" y="245" on="1"/>
        <pt x="291" y="243" on="1"/>
        <pt x="393" y="245" on="1"/>
      </contour>
    </TTGlyph>
    <TTGlyph name="Adieresis" xMin="11" yMin="0" xMax="567" yMax="846">
      <contour>
        <pt x="161" y="740" on="0"/>
        <pt x="161" y="792" on="1"/>
        <pt x="161" y="817" on="0"/>
        <pt x="190" y="846" on="0"/>
        <pt x="215" y="846" on="1"/>
        <pt x="239" y="846" on="0"/>
        <pt x="265" y="819" on="0"/>
        <pt x="265" y="795" on="1"/>
        <pt x="265" y="769" on="0"/>
        <pt x="237" y="740" on="0"/>
        <pt x="212" y="740" on="1"/>
      </contour>
      <contour>
        <pt x="325" y="740" on="0"/>
        <pt x="325" y="792" on="1"/>
        <pt x="325" y="817" on="0"/>
        <pt x="354" y="846" on="0"/>
        <pt x="379" y="846" on="1"/>
        <pt x="403" y="846" on="0"/>
        <pt x="429" y="819" on="0"/>
        <pt x="429" y="795" on="1"/>
        <pt x="429" y="769" on="0"/>
        <pt x="401" y="740" on="0"/>
        <pt x="376" y="740" on="1"/>
      </contour>
      <contour>
        <pt x="462" y="0" on="1"/>
        <pt x="447" y="72" on="1"/>
        <pt x="419" y="161" on="1"/>
        <pt x="283" y="164" on="1"/>
        <pt x="159" y="161" on="1"/>
        <pt x="130" y="77" on="1"/>
        <pt x="114" y="0" on="1"/>
        <pt x="11" y="0" on="1"/>
        <pt x="239" y="642" on="1"/>
        <pt x="361" y="642" on="1"/>
        <pt x="567" y="0" on="1"/>
      </contour>
      <contour>
        <pt x="301" y="541" on="1"/>
        <pt x="293" y="541" on="1"/>
        <pt x="189" y="245" on="1"/>
        <pt x="291" y="243" on="1"/>
        <pt x="393" y="245" on="1"/>
      </contour>
    </TTGlyph>
    <TTGlyph name="Adotbelow" xMin="11" yMin="-176" xMax="567" yMax="642">
      <contour>
        <pt x="462" y="0" on="1"/>
        <pt x="447" y="72" on="1"/>
        <pt x="419" y="161" on="1"/>
        <pt x="283" y="164" on="1"/>
        <pt x="159" y="161" on="1"/>
        <pt x="130" y="77" on="1"/>
        <pt x="114" y="0" on="1"/>
        <pt x="11" y="0" on="1"/>
        <pt x="239" y="642" on="1"/>
        <pt x="361" y="642" on="1"/>
        <pt x="567" y="0" on="1"/>
      </contour>
      <contour>
        <pt x="301" y="541" on="1"/>
        <pt x="293" y="541" on="1"/>
        <pt x="189" y="245" on="1"/>
        <pt x="291" y="243" on="1"/>
        <pt x="393" y="245" on="1"/>
      </contour>
      <contour>
        <pt x="317" y="-62" on="0"/>
        <pt x="345" y="-91" on="0"/>
        <pt x="345" y="-117" on="1"/>
        <pt x="345" y="-144" on="0"/>
        <pt x="315" y="-176" on="0"/>
        <pt x="289" y="-176" on="1"/>
        <pt x="263" y="-176" on="0"/>
        <pt x="234" y="-146" on="0"/>
        <pt x="234" y="-120" on="1"/>
        <pt x="234" y="-94" on="0"/>
        <pt x="265" y="-62" on="0"/>
        <pt x="292" y="-62" on="1"/>
      </contour>
    </TTGlyph>
    <TTGlyph name="Agrave" xMin="11" yMin="0" xMax="567" yMax="875">
      <contour>
        <pt x="248" y="773" on="0"/>
        <pt x="182" y="802" on="1"/>
        <pt x="178" y="812" on="1"/>
        <pt x="205" y="873" on="1"/>
        <pt x="215" y="875" on="1"/>
        <pt x="283" y="835" on="0"/>
        <pt x="413" y="768" on="1"/>
        <pt x="396" y="724" on="1"/>
        <pt x="385" y="720" on="1"/>
      </contour>
      <contour>
        <pt x="462" y="0" on="1"/>
        <pt x="447" y="72" on="1"/>
        <pt x="419" y="161" on="1"/>
        <pt x="283" y="164" on="1"/>
        <pt x="159" y="161" on="1"/>
        <pt x="130" y="77" on="1"/>
        <pt x="114" y="0" on="1"/>
        <pt x="11" y="0" on="1"/>
        <pt x="239" y="642" on="1"/>
        <pt x="361" y="642" on="1"/>
        <pt x="567" y="0" on="1"/>
      </contour>
      <contour>
        <pt x="301" y="541" on="1"/>
        <pt x="293" y="541" on="1"/>
        <pt x="189" y="245" on="1"/>
        <pt x="291" y="243" on="1"/>
        <pt x="393" y="245" on="1"/>
      </contour>
    </TTGlyph>
    <TTGlyph name="Ahookabove" xMin="11" yMin="0" xMax="568" yMax="905">
      <component glyphName="A" x="0" y="0" flags="0x1000"/>
      <component glyphName="hookabove" x="99" y="180" flags="0x1000"/>
    </TTGlyph>
    <TTGlyph name="Amacron" xMin="11" yMin="0" xMax="568" yMax="826">
      <component glyphName="A" x="0" y="0" flags="0x1000"/>
      <component glyphName="macron" x="100" y="181" flags="0x1000"/>
    </TTGlyph>
    <TTGlyph name="Aogonek" xMin="11" yMin="-197" xMax="615" yMax="642">
      <contour>
        <pt x="565" y="-197" on="0"/>
        <pt x="513" y="-197" on="1"/>
        <pt x="476" y="-197" on="0"/>
        <pt x="431" y="-153" on="0"/>
        <pt x="431" y="-115" on="1"/>
        <pt x="431" y="-91" on="0"/>
        <pt x="454" y="-40" on="0"/>
        <pt x="483" y="0" on="1"/>
        <pt x="462" y="0" on="1"/>
        <pt x="447" y="72" on="1"/>
        <pt x="419" y="161" on="1"/>
        <pt x="283" y="164" on="1"/>
        <pt x="159" y="161" on="1"/>
        <pt x="130" y="77" on="1"/>
        <pt x="114" y="0" on="1"/>
        <pt x="11" y="0" on="1"/>
        <pt x="239" y="642" on="1"/>
        <pt x="361" y="642" on="1"/>
        <pt x="567" y="0" on="1"/>
        <pt x="540" y="0" on="1"/>
        <pt x="493" y="-68" on="0"/>
        <pt x="493" y="-100" on="1"/>
        <pt x="493" y="-134" on="0"/>
        <pt x="527" y="-134" on="1"/>
        <pt x="562" y="-134" on="0"/>
        <pt x="599" y="-100" on="1"/>
        <pt x="604" y="-100" on="1"/>
        <pt x="615" y="-145" on="1"/>
      </contour>
      <contour>
        <pt x="301" y="541" on="1"/>
        <pt x="293" y="541" on="1"/>
        <pt x="189" y="245" on="1"/>
        <pt x="291" y="243" on="1"/>
        <pt x="393" y="245" on="1"/>
      </contour>
    </TTGlyph>
    <TTGlyph name="Aring" xMin="11" yMin="0" xMax="568" yMax="889">
      <component glyphName="A" x="0" y="0" flags="0x1000"/>
      <component glyphName="ring" x="100" y="181" flags="0x1000"/>
    </TTGlyph>
    <TTGlyph name="Aringacute" xMin="11" yMin="0" xMax="567" yMax="912">
      <contour>
        <pt x="204" y="838" on="1"/>
        <pt x="319" y="874" on="0"/>
        <pt x="417" y="912" on="1"/>
        <pt x="427" y="908" on="1"/>
        <pt x="443" y="844" on="1"/>
        <pt x="438" y="835" on="1"/>
        <pt x="371" y="817" on="0"/>
        <pt x="249" y="791" on="1"/>
        <pt x="240" y="790" on="0"/>
        <pt x="224" y="786" on="1"/>
        <pt x="214" y="791" on="1"/>
      </contour>
      <contour>
        <pt x="462" y="0" on="1"/>
        <pt x="447" y="71" on="1"/>
        <pt x="419" y="159" on="1"/>
        <pt x="283" y="161" on="1"/>
        <pt x="159" y="158" on="1"/>
        <pt x="130" y="76" on="1"/>
        <pt x="114" y="0" on="1"/>
        <pt x="11" y="0" on="1"/>
        <pt x="237" y="616" on="1"/>
        <pt x="211" y="640" on="0"/>
        <pt x="211" y="683" on="1"/>
        <pt x="211" y="724" on="0"/>
        <pt x="258" y="771" on="0"/>
        <pt x="301" y="771" on="1"/>
        <pt x="343" y="771" on="0"/>
        <pt x="389" y="725" on="0"/>
        <pt x="389" y="686" on="1"/>
        <pt x="389" y="642" on="0"/>
        <pt x="361" y="617" on="1"/>
        <pt x="567" y="0" on="1"/>
      </contour>
      <contour>
        <pt x="257" y="725" on="0"/>
        <pt x="257" y="685" on="1"/>
        <pt x="257" y="641" on="0"/>
        <pt x="300" y="641" on="1"/>
        <pt x="343" y="641" on="0"/>
        <pt x="343" y="683" on="1"/>
        <pt x="343" y="725" on="0"/>
        <pt x="299" y="725" on="1"/>
      </contour>
      <contour>
        <pt x="301" y="533" on="1"/>
        <pt x="293" y="533" on="1"/>
        <pt x="189" y="242" on="1"/>
        <pt x="291" y="240" on="1"/>
        <pt x="393" y="242" on="1"/>
      </contour>
    </TTGlyph>
    <TTGlyph name="Atilde" xMin="11" yMin="0" xMax="568" yMax="863">
      <component glyphName="A" x="0" y="0" flags="0x1000"/>
      <component glyphName="tilde" x="100" y="181" flags="0x1000"/>
    </TTGlyph>
    <TTGlyph name="B" xMin="86" yMin="-4" xMax="518" yMax="643">
      <contour>
        <pt x="518" y="306" on="0"/>
        <pt x="518" y="180" on="1"/>
        <pt x="518" y="-4" on="0"/>
        <pt x="243" y="-4" on="1"/>
        <pt x="148" y="-4" on="0"/>
        <pt x="87" y="0" on="1"/>
        <pt x="86" y="0" on="1"/>
        <pt x="93" y="193" on="1"/>
        <pt x="86" y="642" on="1"/>
        <pt x="286" y="643" on="1"/>
        <pt x="379" y="643" on="0"/>
        <pt x="482" y="562" on="0"/>
        <pt x="482" y="485" on="1"/>
        <pt x="482" y="431" on="0"/>
        <pt x="432" y="354" on="0"/>
        <pt x="386" y="334" on="1"/>
      </contour>
      <contour>
        <pt x="376" y="521" on="0"/>
        <pt x="322" y="563" on="0"/>
        <pt x="258" y="563" on="1"/>
        <pt x="190" y="563" on="1"/>
        <pt x="187" y="366" on="1"/>
        <pt x="290" y="363" on="1"/>
        <pt x="376" y="384" on="0"/>
        <pt x="376" y="473" on="1"/>
      </contour>
      <contour>
        <pt x="334" y="76" on="0"/>
        <pt x="414" y="132" on="0"/>
        <pt x="414" y="186" on="1"/>
        <pt x="414" y="272" on="0"/>
        <pt x="303" y="287" on="1"/>
        <pt x="186" y="286" on="1"/>
        <pt x="185" y="202" on="1"/>
        <pt x="188" y="79" on="1"/>
        <pt x="227" y="76" on="0"/>
        <pt x="260" y="76" on="1"/>
      </contour>
    </TTGlyph>
    <TTGlyph name="C" xMin="34" yMin="-8" xMax="500" yMax="649">
      <contour>
        <pt x="425" y="649" on="0"/>
        <pt x="500" y="605" on="1"/>
        <pt x="481" y="514" on="1"/>
        <pt x="471" y="511" on="1"/>
        <pt x="404" y="563" on="0"/>
        <pt x="323" y="563" on="1"/>
        <pt x="235" y="563" on="0"/>
        <pt x="142" y="444" on="0"/>
        <pt x="142" y="326" on="1"/>
        <pt x="142" y="205" on="0"/>
        <pt x="236" y="79" on="0"/>
        <pt x="323" y="79" on="1"/>
        <pt x="411" y="79" on="0"/>
        <pt x="483" y="134" on="1"/>
        <pt x="493" y="128" on="1"/>
        <pt x="485" y="34" on="1"/>
        <pt x="399" y="-8" on="0"/>
        <pt x="315" y="-8" on="1"/>
        <pt x="180" y="-8" on="0"/>
        <pt x="34" y="160" on="0"/>
        <pt x="34" y="315" on="1"/>
        <pt x="34" y="475" on="0"/>
        <pt x="187" y="649" on="0"/>
        <pt x="327" y="649" on="1"/>
      </contour>
    </TTGlyph>
    <TTGlyph name="C.ss01" xMin="-100" yMin="0" xMax="558" yMax="501">
      <contour>
        <pt x="143" y="423" on="0"/>
        <pt x="143" y="256" on="1"/>
        <pt x="143" y="169" on="0"/>
        <pt x="213" y="80" on="0"/>
        <pt x="280" y="80" on="1"/>
        <pt x="349" y="80" on="0"/>
        <pt x="406" y="119" on="1"/>
        <pt x="416" y="114" on="1"/>
        <pt x="409" y="40" on="1"/>
        <pt x="558" y="40" on="1"/>
        <pt x="558" y="0" on="1"/>
        <pt x="-100" y="0" on="1"/>
        <pt x="-100" y="40" on="1"/>
        <pt x="134" y="40" on="1"/>
        <pt x="45" y="101" on="0"/>
        <pt x="45" y="247" on="1"/>
        <pt x="45" y="398" on="0"/>
        <pt x="141" y="461" on="1"/>
        <pt x="-100" y="461" on="1"/>
        <pt x="-100" y="501" on="1"/>
        <pt x="558" y="501" on="1"/>
        <pt x="558" y="461" on="1"/>
        <pt x="422" y="461" on="1"/>
        <pt x="406" y="386" on="1"/>
        <pt x="397" y="383" on="1"/>
        <pt x="345" y="423" on="0"/>
        <pt x="277" y="423" on="1"/>
      </contour>
    </TTGlyph>
    <TTGlyph name="Cacute" xMin="34" yMin="-8" xMax="500" yMax="874">
      <component glyphName="C" x="0" y="0" flags="0x1000"/>
      <component glyphName="acute.cap" x="145" y="181" flags="0x1000"/>
    </TTGlyph>
    <TTGlyph name="Ccaron" xMin="34" yMin="-8" xMax="500" yMax="860">
      <component glyphName="C" x="0" y="0" flags="0x1000"/>
      <component glyphName="caron.cap" x="121" y="181" flags="0x1000"/>
    </TTGlyph>
    <TTGlyph name="Ccedilla" xMin="34" yMin="-197" xMax="500" yMax="649">
      <contour>
        <pt x="411" y="79" on="0"/>
        <pt x="483" y="134" on="1"/>
        <pt x="493" y="128" on="1"/>
        <pt x="485" y="34" on="1"/>
        <pt x="410" y="-3" on="0"/>
        <pt x="336" y="-7" on="1"/>
        <pt x="324" y="-50" on="1"/>
        <pt x="358" y="-70" on="1"/>
        <pt x="398" y="-91" on="0"/>
        <pt x="398" y="-127" on="1"/>
        <pt x="398" y="-158" on="0"/>
        <pt x="350" y="-197" on="0"/>
        <pt x="311" y="-197" on="1"/>
        <pt x="268" y="-197" on="0"/>
        <pt x="234" y="-167" on="1"/>
        <pt x="243" y="-120" on="1"/>
        <pt x="248" y="-118" on="1"/>
        <pt x="277" y="-149" on="0"/>
        <pt x="305" y="-149" on="1"/>
        <pt x="334" y="-149" on="0"/>
        <pt x="334" y="-124" on="1"/>
        <pt x="334" y="-111" on="0"/>
        <pt x="315" y="-102" on="1"/>
        <pt x="266" y="-73" on="1"/>
        <pt x="283" y="-7" on="1"/>
        <pt x="163" y="4" on="0"/>
        <pt x="34" y="170" on="0"/>
        <pt x="34" y="315" on="1"/>
        <pt x="34" y="475" on="0"/>
        <pt x="187" y="649" on="0"/>
        <pt x="327" y="649" on="1"/>
        <pt x="425" y="649" on="0"/>
        <pt x="500" y="605" on="1"/>
        <pt x="481" y="514" on="1"/>
        <pt x="471" y="511" on="1"/>
        <pt x="404" y="563" on="0"/>
        <pt x="323" y="563" on="1"/>
        <pt x="235" y="563" on="0"/>
        <pt x="142" y="444" on="0"/>
        <pt x="142" y="326" on="1"/>
        <pt x="142" y="205" on="0"/>
        <pt x="236" y="79" on="0"/>
        <pt x="323" y="79" on="1"/>
      </contour>
    </TTGlyph>
    <TTGlyph name="Ccircumflex" xMin="34" yMin="-8" xMax="500" yMax="870">
      <contour>
        <pt x="245" y="818" on="0"/>
        <pt x="303" y="870" on="1"/>
        <pt x="327" y="870" on="1"/>
        <pt x="381" y="822" on="0"/>
        <pt x="451" y="774" on="1"/>
        <pt x="432" y="731" on="1"/>
        <pt x="421" y="731" on="1"/>
        <pt x="403" y="742" on="1"/>
        <pt x="326" y="790" on="0"/>
        <pt x="315" y="797" on="1"/>
        <pt x="287" y="778" on="0"/>
        <pt x="210" y="731" on="1"/>
        <pt x="199" y="731" on="1"/>
        <pt x="179" y="774" on="1"/>
      </contour>
      <contour>
        <pt x="425" y="649" on="0"/>
        <pt x="500" y="605" on="1"/>
        <pt x="481" y="514" on="1"/>
        <pt x="471" y="511" on="1"/>
        <pt x="404" y="563" on="0"/>
        <pt x="323" y="563" on="1"/>
        <pt x="235" y="563" on="0"/>
        <pt x="142" y="444" on="0"/>
        <pt x="142" y="326" on="1"/>
        <pt x="142" y="205" on="0"/>
        <pt x="236" y="79" on="0"/>
        <pt x="323" y="79" on="1"/>
        <pt x="411" y="79" on="0"/>
        <pt x="483" y="134" on="1"/>
        <pt x="493" y="128" on="1"/>
        <pt x="485" y="34" on="1"/>
        <pt x="399" y="-8" on="0"/>
        <pt x="315" y="-8" on="1"/>
        <pt x="180" y="-8" on="0"/>
        <pt x="34" y="160" on="0"/>
        <pt x="34" y="315" on="1"/>
        <pt x="34" y="475" on="0"/>
        <pt x="187" y="649" on="0"/>
        <pt x="327" y="649" on="1"/>
      </contour>
    </TTGlyph>
    <TTGlyph name="Cdotaccent" xMin="34" yMin="-8" xMax="500" yMax="857">
      <component glyphName="C" x="0" y="0" flags="0x1000"/>
      <component glyphName="period" x="200" y="749" flags="0x1000"/>
    </TTGlyph>
    <TTGlyph name="D" xMin="86" yMin="-6" xMax="616" yMax="646">
      <contour>
        <pt x="468" y="646" on="0"/>
        <pt x="616" y="490" on="0"/>
        <pt x="616" y="344" on="1"/>
        <pt x="616" y="175" on="0"/>
        <pt x="454" y="-6" on="0"/>
        <pt x="302" y="-6" on="1"/>
        <pt x="205" y="-6" on="0"/>
        <pt x="87" y="0" on="1"/>
        <pt x="86" y="0" on="1"/>
        <pt x="93" y="193" on="1"/>
        <pt x="86" y="642" on="1"/>
        <pt x="87" y="642" on="1"/>
        <pt x="330" y="646" on="1"/>
      </contour>
      <contour>
        <pt x="412" y="76" on="0"/>
        <pt x="509" y="198" on="0"/>
        <pt x="509" y="321" on="1"/>
        <pt x="509" y="445" on="0"/>
        <pt x="416" y="562" on="0"/>
        <pt x="322" y="562" on="1"/>
        <pt x="267" y="562" on="0"/>
        <pt x="191" y="558" on="1"/>
        <pt x="186" y="202" on="1"/>
        <pt x="189" y="83" on="1"/>
        <pt x="268" y="76" on="0"/>
        <pt x="320" y="76" on="1"/>
      </contour>
    </TTGlyph>
    <TTGlyph name="D.ss01" xMin="-100" yMin="0" xMax="667" yMax="501">
      <contour>
        <pt x="431" y="461" on="1"/>
        <pt x="521" y="403" on="0"/>
        <pt x="521" y="267" on="1"/>
        <pt x="521" y="106" on="0"/>
        <pt x="418" y="40" on="1"/>
        <pt x="667" y="40" on="1"/>
        <pt x="667" y="0" on="1"/>
        <pt x="-100" y="0" on="1"/>
        <pt x="-100" y="40" on="1"/>
        <pt x="90" y="40" on="1"/>
        <pt x="93" y="152" on="1"/>
        <pt x="89" y="461" on="1"/>
        <pt x="-100" y="461" on="1"/>
        <pt x="-100" y="501" on="1"/>
        <pt x="667" y="501" on="1"/>
        <pt x="667" y="461" on="1"/>
      </contour>
      <contour>
        <pt x="425" y="75" on="0"/>
        <pt x="425" y="247" on="1"/>
        <pt x="425" y="337" on="0"/>
        <pt x="355" y="420" on="0"/>
        <pt x="282" y="420" on="1"/>
        <pt x="242" y="420" on="0"/>
        <pt x="182" y="416" on="1"/>
        <pt x="179" y="161" on="1"/>
        <pt x="181" y="81" on="1"/>
        <pt x="243" y="75" on="0"/>
        <pt x="282" y="75" on="1"/>
      </contour>
    </TTGlyph>
    <TTGlyph name="Dcaron" xMin="86" yMin="-6" xMax="616" yMax="860">
      <component glyphName="D" x="0" y="0" flags="0x1000"/>
      <component glyphName="caron.cap" x="123" y="181" flags="0x1000"/>
    </TTGlyph>
    <TTGlyph name="Dcroat" xMin="86" yMin="-6" xMax="616" yMax="826">
      <component glyphName="D" x="0" y="0" flags="0x1000"/>
      <component glyphName="macron" x="122" y="181" flags="0x1000"/>
    </TTGlyph>
    <TTGlyph name="Delta" xMin="11" yMin="0" xMax="568" yMax="642">
      <contour>
        <pt x="11" y="0" on="1"/>
        <pt x="239" y="642" on="1"/>
        <pt x="360" y="642" on="1"/>
        <pt x="568" y="0" on="1"/>
      </contour>
      <contour>
        <pt x="133" y="83" on="1"/>
        <pt x="443" y="83" on="1"/>
        <pt x="301" y="541" on="1"/>
        <pt x="294" y="541" on="1"/>
      </contour>
    </TTGlyph>
    <TTGlyph name="E" xMin="86" yMin="0" xMax="473" yMax="642">
      <contour>
        <pt x="472" y="79" on="1"/>
        <pt x="465" y="0" on="1"/>
        <pt x="86" y="0" on="1"/>
        <pt x="93" y="193" on="1"/>
        <pt x="86" y="642" on="1"/>
        <pt x="467" y="642" on="1"/>
        <pt x="473" y="633" on="1"/>
        <pt x="465" y="554" on="1"/>
        <pt x="313" y="558" on="1"/>
        <pt x="191" y="557" on="1"/>
        <pt x="188" y="370" on="1"/>
        <pt x="304" y="368" on="1"/>
        <pt x="410" y="371" on="1"/>
        <pt x="417" y="363" on="1"/>
        <pt x="409" y="284" on="1"/>
        <pt x="296" y="287" on="1"/>
        <pt x="187" y="285" on="1"/>
        <pt x="186" y="202" on="1"/>
        <pt x="189" y="84" on="1"/>
        <pt x="311" y="83" on="1"/>
        <pt x="466" y="88" on="1"/>
      </contour>
    </TTGlyph>
    <TTGlyph name="Eacute" xMin="86" yMin="0" xMax="473" yMax="874">
      <component glyphName="E" x="0" y="0" flags="0x1000"/>
      <component glyphName="acute.cap" x="109" y="181" flags="0x1000"/>
    </TTGlyph>
    <TTGlyph name="Ebreve" xMin="86" yMin="0" xMax="473" yMax="853">
      <component glyphName="E" x="0" y="0" flags="0x1000"/>
      <component glyphName="breve.cap" x="83" y="181" flags="0x1000"/>
    </TTGlyph>
    <TTGlyph name="Ecaron" xMin="86" yMin="0" xMax="473" yMax="860">
      <component glyphName="E" x="0" y="0" flags="0x1000"/>
      <component glyphName="caron.cap" x="84" y="181" flags="0x1000"/>
    </TTGlyph>
    <TTGlyph name="Ecircumflex" xMin="86" yMin="0" xMax="473" yMax="870">
      <contour>
        <pt x="142" y="774" on="1"/>
        <pt x="208" y="818" on="0"/>
        <pt x="266" y="870" on="1"/>
        <pt x="290" y="870" on="1"/>
        <pt x="344" y="822" on="0"/>
        <pt x="414" y="774" on="1"/>
        <pt x="395" y="731" on="1"/>
        <pt x="384" y="731" on="1"/>
        <pt x="366" y="742" on="1"/>
        <pt x="289" y="790" on="0"/>
        <pt x="278" y="797" on="1"/>
        <pt x="250" y="778" on="0"/>
        <pt x="173" y="731" on="1"/>
        <pt x="162" y="731" on="1"/>
      </contour>
      <contour>
        <pt x="472" y="79" on="1"/>
        <pt x="465" y="0" on="1"/>
        <pt x="86" y="0" on="1"/>
        <pt x="93" y="193" on="1"/>
        <pt x="86" y="642" on="1"/>
        <pt x="467" y="642" on="1"/>
        <pt x="473" y="633" on="1"/>
        <pt x="465" y="554" on="1"/>
        <pt x="313" y="558" on="1"/>
        <pt x="191" y="557" on="1"/>
        <pt x="188" y="370" on="1"/>
        <pt x="304" y="368" on="1"/>
        <pt x="410" y="371" on="1"/>
        <pt x="417" y="363" on="1"/>
        <pt x="409" y="284" on="1"/>
        <pt x="296" y="287" on="1"/>
        <pt x="187" y="285" on="1"/>
        <pt x="186" y="202" on="1"/>
        <pt x="188" y="84" on="1"/>
        <pt x="311" y="83" on="1"/>
        <pt x="466" y="88" on="1"/>
      </contour>
    </TTGlyph>
    <TTGlyph name="Ecircumflexacute" xMin="86" yMin="0" xMax="473" yMax="967">
      <component glyphName="E" x="0" y="0" flags="0x1000"/>
      <component glyphName="circumflexacute" x="83" y="181" flags="0x1000"/>
    </TTGlyph>
    <TTGlyph name="Ecircumflexdotbelow" xMin="86" yMin="-176" xMax="473" yMax="870">
      <contour>
        <pt x="142" y="774" on="1"/>
        <pt x="208" y="818" on="0"/>
        <pt x="266" y="870" on="1"/>
        <pt x="290" y="870" on="1"/>
        <pt x="344" y="822" on="0"/>
        <pt x="414" y="774" on="1"/>
        <pt x="395" y="731" on="1"/>
        <pt x="384" y="731" on="1"/>
        <pt x="366" y="742" on="1"/>
        <pt x="289" y="790" on="0"/>
        <pt x="278" y="797" on="1"/>
        <pt x="250" y="778" on="0"/>
        <pt x="173" y="731" on="1"/>
        <pt x="162" y="731" on="1"/>
      </contour>
      <contour>
        <pt x="472" y="79" on="1"/>
        <pt x="465" y="0" on="1"/>
        <pt x="86" y="0" on="1"/>
        <pt x="93" y="193" on="1"/>
        <pt x="86" y="642" on="1"/>
        <pt x="467" y="642" on="1"/>
        <pt x="473" y="633" on="1"/>
        <pt x="465" y="554" on="1"/>
        <pt x="313" y="558" on="1"/>
        <pt x="191" y="557" on="1"/>
        <pt x="188" y="370" on="1"/>
        <pt x="304" y="368" on="1"/>
        <pt x="410" y="371" on="1"/>
        <pt x="417" y="363" on="1"/>
        <pt x="409" y="284" on="1"/>
        <pt x="296" y="287" on="1"/>
        <pt x="187" y="285" on="1"/>
        <pt x="186" y="202" on="1"/>
        <pt x="188" y="84" on="1"/>
        <pt x="311" y="83" on="1"/>
        <pt x="466" y="88" on="1"/>
      </contour>
      <contour>
        <pt x="313" y="-62" on="0"/>
        <pt x="341" y="-91" on="0"/>
        <pt x="341" y="-117" on="1"/>
        <pt x="341" y="-144" on="0"/>
        <pt x="311" y="-176" on="0"/>
        <pt x="285" y="-176" on="1"/>
        <pt x="259" y="-176" on="0"/>
        <pt x="230" y="-146" on="0"/>
        <pt x="230" y="-120" on="1"/>
        <pt x="230" y="-94" on="0"/>
        <pt x="261" y="-62" on="0"/>
        <pt x="288" y="-62" on="1"/>
      </contour>
    </TTGlyph>
    <TTGlyph name="Ecircumflexgrave" xMin="86" yMin="0" xMax="473" yMax="967">
      <component glyphName="E" x="0" y="0" flags="0x1000"/>
      <component glyphName="circumflexgrave" x="83" y="181" flags="0x1000"/>
    </TTGlyph>
    <TTGlyph name="Ecircumflexhookabove" xMin="86" yMin="0" xMax="473" yMax="1008">
      <contour>
        <pt x="332" y="959" on="0"/>
        <pt x="304" y="936" on="1"/>
        <pt x="286" y="964" on="1"/>
        <pt x="328" y="1008" on="0"/>
        <pt x="375" y="1008" on="1"/>
        <pt x="404" y="1008" on="0"/>
        <pt x="442" y="974" on="0"/>
        <pt x="442" y="948" on="1"/>
        <pt x="442" y="930" on="0"/>
        <pt x="419" y="897" on="0"/>
        <pt x="391" y="874" on="1"/>
        <pt x="411" y="839" on="1"/>
        <pt x="373" y="817" on="1"/>
        <pt x="339" y="874" on="1"/>
        <pt x="387" y="911" on="0"/>
        <pt x="387" y="938" on="1"/>
        <pt x="387" y="959" on="0"/>
        <pt x="361" y="959" on="1"/>
      </contour>
      <contour>
        <pt x="141" y="754" on="1"/>
        <pt x="207" y="798" on="0"/>
        <pt x="265" y="850" on="1"/>
        <pt x="289" y="850" on="1"/>
        <pt x="343" y="802" on="0"/>
        <pt x="413" y="754" on="1"/>
        <pt x="394" y="711" on="1"/>
        <pt x="383" y="711" on="1"/>
        <pt x="365" y="722" on="1"/>
        <pt x="288" y="770" on="0"/>
        <pt x="277" y="777" on="1"/>
        <pt x="249" y="758" on="0"/>
        <pt x="172" y="711" on="1"/>
        <pt x="161" y="711" on="1"/>
      </contour>
      <contour>
        <pt x="472" y="79" on="1"/>
        <pt x="465" y="0" on="1"/>
        <pt x="86" y="0" on="1"/>
        <pt x="93" y="193" on="1"/>
        <pt x="86" y="642" on="1"/>
        <pt x="467" y="642" on="1"/>
        <pt x="473" y="633" on="1"/>
        <pt x="465" y="554" on="1"/>
        <pt x="313" y="558" on="1"/>
        <pt x="191" y="557" on="1"/>
        <pt x="188" y="370" on="1"/>
        <pt x="304" y="368" on="1"/>
        <pt x="410" y="371" on="1"/>
        <pt x="417" y="363" on="1"/>
        <pt x="409" y="284" on="1"/>
        <pt x="296" y="287" on="1"/>
        <pt x="187" y="285" on="1"/>
        <pt x="186" y="202" on="1"/>
        <pt x="188" y="84" on="1"/>
        <pt x="311" y="83" on="1"/>
        <pt x="466" y="88" on="1"/>
      </contour>
    </TTGlyph>
    <TTGlyph name="Ecircumflextilde" xMin="86" yMin="0" xMax="473" yMax="967">
      <component glyphName="E" x="0" y="0" flags="0x1000"/>
      <component glyphName="circumflexgrave" x="83" y="181" flags="0x1000"/>
    </TTGlyph>
    <TTGlyph name="Edieresis" xMin="86" yMin="0" xMax="473" yMax="846">
      <contour>
        <pt x="144" y="740" on="0"/>
        <pt x="144" y="792" on="1"/>
        <pt x="144" y="817" on="0"/>
        <pt x="173" y="846" on="0"/>
        <pt x="198" y="846" on="1"/>
        <pt x="222" y="846" on="0"/>
        <pt x="248" y="819" on="0"/>
        <pt x="248" y="795" on="1"/>
        <pt x="248" y="769" on="0"/>
        <pt x="220" y="740" on="0"/>
        <pt x="195" y="740" on="1"/>
      </contour>
      <contour>
        <pt x="308" y="740" on="0"/>
        <pt x="308" y="792" on="1"/>
        <pt x="308" y="817" on="0"/>
        <pt x="337" y="846" on="0"/>
        <pt x="362" y="846" on="1"/>
        <pt x="386" y="846" on="0"/>
        <pt x="412" y="819" on="0"/>
        <pt x="412" y="795" on="1"/>
        <pt x="412" y="769" on="0"/>
        <pt x="384" y="740" on="0"/>
        <pt x="359" y="740" on="1"/>
      </contour>
      <contour>
        <pt x="472" y="79" on="1"/>
        <pt x="465" y="0" on="1"/>
        <pt x="86" y="0" on="1"/>
        <pt x="93" y="193" on="1"/>
        <pt x="86" y="642" on="1"/>
        <pt x="467" y="642" on="1"/>
        <pt x="473" y="633" on="1"/>
        <pt x="465" y="554" on="1"/>
        <pt x="313" y="558" on="1"/>
        <pt x="191" y="557" on="1"/>
        <pt x="188" y="370" on="1"/>
        <pt x="304" y="368" on="1"/>
        <pt x="410" y="371" on="1"/>
        <pt x="417" y="363" on="1"/>
        <pt x="409" y="284" on="1"/>
        <pt x="296" y="287" on="1"/>
        <pt x="187" y="285" on="1"/>
        <pt x="186" y="202" on="1"/>
        <pt x="188" y="84" on="1"/>
        <pt x="311" y="83" on="1"/>
        <pt x="466" y="88" on="1"/>
      </contour>
    </TTGlyph>
    <TTGlyph name="Edotaccent" xMin="86" yMin="0" xMax="473" yMax="857">
      <contour>
        <pt x="251" y="743" on="0"/>
        <pt x="222" y="773" on="0"/>
        <pt x="222" y="799" on="1"/>
        <pt x="222" y="825" on="0"/>
        <pt x="253" y="857" on="0"/>
        <pt x="280" y="857" on="1"/>
        <pt x="305" y="857" on="0"/>
        <pt x="333" y="828" on="0"/>
        <pt x="333" y="802" on="1"/>
        <pt x="333" y="775" on="0"/>
        <pt x="303" y="743" on="0"/>
        <pt x="277" y="743" on="1"/>
      </contour>
      <contour>
        <pt x="472" y="79" on="1"/>
        <pt x="465" y="0" on="1"/>
        <pt x="86" y="0" on="1"/>
        <pt x="93" y="193" on="1"/>
        <pt x="86" y="642" on="1"/>
        <pt x="467" y="642" on="1"/>
        <pt x="473" y="633" on="1"/>
        <pt x="465" y="554" on="1"/>
        <pt x="313" y="558" on="1"/>
        <pt x="191" y="557" on="1"/>
        <pt x="188" y="370" on="1"/>
        <pt x="304" y="368" on="1"/>
        <pt x="410" y="371" on="1"/>
        <pt x="417" y="363" on="1"/>
        <pt x="409" y="284" on="1"/>
        <pt x="296" y="287" on="1"/>
        <pt x="187" y="285" on="1"/>
        <pt x="186" y="202" on="1"/>
        <pt x="188" y="84" on="1"/>
        <pt x="311" y="83" on="1"/>
        <pt x="466" y="88" on="1"/>
      </contour>
    </TTGlyph>
    <TTGlyph name="Edotbelow" xMin="86" yMin="-176" xMax="473" yMax="642">
      <contour>
        <pt x="472" y="79" on="1"/>
        <pt x="465" y="0" on="1"/>
        <pt x="86" y="0" on="1"/>
        <pt x="93" y="193" on="1"/>
        <pt x="86" y="642" on="1"/>
        <pt x="467" y="642" on="1"/>
        <pt x="473" y="633" on="1"/>
        <pt x="465" y="554" on="1"/>
        <pt x="313" y="558" on="1"/>
        <pt x="191" y="557" on="1"/>
        <pt x="188" y="370" on="1"/>
        <pt x="304" y="368" on="1"/>
        <pt x="410" y="371" on="1"/>
        <pt x="417" y="363" on="1"/>
        <pt x="409" y="284" on="1"/>
        <pt x="296" y="287" on="1"/>
        <pt x="187" y="285" on="1"/>
        <pt x="186" y="202" on="1"/>
        <pt x="188" y="84" on="1"/>
        <pt x="311" y="83" on="1"/>
        <pt x="466" y="88" on="1"/>
      </contour>
      <contour>
        <pt x="313" y="-62" on="0"/>
        <pt x="341" y="-91" on="0"/>
        <pt x="341" y="-117" on="1"/>
        <pt x="341" y="-144" on="0"/>
        <pt x="311" y="-176" on="0"/>
        <pt x="285" y="-176" on="1"/>
        <pt x="259" y="-176" on="0"/>
        <pt x="230" y="-146" on="0"/>
        <pt x="230" y="-120" on="1"/>
        <pt x="230" y="-94" on="0"/>
        <pt x="261" y="-62" on="0"/>
        <pt x="288" y="-62" on="1"/>
      </contour>
    </TTGlyph>
    <TTGlyph name="Egrave" xMin="86" yMin="0" xMax="473" yMax="875">
      <contour>
        <pt x="231" y="773" on="0"/>
        <pt x="165" y="802" on="1"/>
        <pt x="161" y="812" on="1"/>
        <pt x="188" y="873" on="1"/>
        <pt x="198" y="875" on="1"/>
        <pt x="266" y="835" on="0"/>
        <pt x="396" y="768" on="1"/>
        <pt x="379" y="724" on="1"/>
        <pt x="368" y="720" on="1"/>
      </contour>
      <contour>
        <pt x="472" y="79" on="1"/>
        <pt x="465" y="0" on="1"/>
        <pt x="86" y="0" on="1"/>
        <pt x="93" y="193" on="1"/>
        <pt x="86" y="642" on="1"/>
        <pt x="467" y="642" on="1"/>
        <pt x="473" y="633" on="1"/>
        <pt x="465" y="554" on="1"/>
        <pt x="313" y="558" on="1"/>
        <pt x="191" y="557" on="1"/>
        <pt x="188" y="370" on="1"/>
        <pt x="304" y="368" on="1"/>
        <pt x="410" y="371" on="1"/>
        <pt x="417" y="363" on="1"/>
        <pt x="409" y="284" on="1"/>
        <pt x="296" y="287" on="1"/>
        <pt x="187" y="285" on="1"/>
        <pt x="186" y="202" on="1"/>
        <pt x="188" y="84" on="1"/>
        <pt x="311" y="83" on="1"/>
        <pt x="466" y="88" on="1"/>
      </contour>
    </TTGlyph>
    <TTGlyph name="Ehookabove" xMin="86" yMin="0" xMax="473" yMax="905">
      <component glyphName="E" x="0" y="0" flags="0x1000"/>
      <component glyphName="hookabove" x="82" y="180" flags="0x1000"/>
    </TTGlyph>
    <TTGlyph name="Emacron" xMin="86" yMin="0" xMax="473" yMax="826">
      <component glyphName="E" x="0" y="0" flags="0x1000"/>
      <component glyphName="macron" x="83" y="181" flags="0x1000"/>
    </TTGlyph>
    <TTGlyph name="Eng" xMin="86" yMin="-165" xMax="602" yMax="644">
      <contour>
        <pt x="597" y="57" on="1"/>
        <pt x="597" y="-21" on="0"/>
        <pt x="516" y="-122" on="0"/>
        <pt x="416" y="-165" on="1"/>
        <pt x="380" y="-109" on="1"/>
        <pt x="380" y="-98" on="1"/>
        <pt x="469" y="-51" on="0"/>
        <pt x="492" y="1" on="1"/>
        <pt x="187" y="481" on="1"/>
        <pt x="179" y="481" on="1"/>
        <pt x="178" y="215" on="1"/>
        <pt x="183" y="0" on="1"/>
        <pt x="86" y="0" on="1"/>
        <pt x="93" y="190" on="1"/>
        <pt x="88" y="642" on="1"/>
        <pt x="198" y="642" on="1"/>
        <pt x="500" y="166" on="1"/>
        <pt x="508" y="166" on="1"/>
        <pt x="505" y="637" on="1"/>
        <pt x="602" y="644" on="1"/>
        <pt x="595" y="192" on="1"/>
      </contour>
    </TTGlyph>
    <TTGlyph name="Eogonek" xMin="86" yMin="-197" xMax="479" yMax="642">
      <contour>
        <pt x="427" y="-197" on="0"/>
        <pt x="379" y="-197" on="1"/>
        <pt x="341" y="-197" on="0"/>
        <pt x="294" y="-151" on="0"/>
        <pt x="294" y="-114" on="1"/>
        <pt x="294" y="-77" on="0"/>
        <pt x="321" y="-36" on="1"/>
        <pt x="346" y="0" on="1"/>
        <pt x="86" y="0" on="1"/>
        <pt x="93" y="193" on="1"/>
        <pt x="86" y="642" on="1"/>
        <pt x="467" y="642" on="1"/>
        <pt x="473" y="633" on="1"/>
        <pt x="465" y="554" on="1"/>
        <pt x="313" y="558" on="1"/>
        <pt x="191" y="557" on="1"/>
        <pt x="188" y="370" on="1"/>
        <pt x="304" y="368" on="1"/>
        <pt x="410" y="371" on="1"/>
        <pt x="417" y="363" on="1"/>
        <pt x="409" y="284" on="1"/>
        <pt x="296" y="287" on="1"/>
        <pt x="187" y="285" on="1"/>
        <pt x="186" y="202" on="1"/>
        <pt x="188" y="84" on="1"/>
        <pt x="311" y="83" on="1"/>
        <pt x="466" y="88" on="1"/>
        <pt x="472" y="79" on="1"/>
        <pt x="465" y="0" on="1"/>
        <pt x="404" y="0" on="1"/>
        <pt x="373" y="-47" on="1"/>
        <pt x="356" y="-73" on="0"/>
        <pt x="356" y="-95" on="1"/>
        <pt x="356" y="-112" on="0"/>
        <pt x="376" y="-134" on="0"/>
        <pt x="395" y="-134" on="1"/>
        <pt x="427" y="-134" on="0"/>
        <pt x="462" y="-99" on="1"/>
        <pt x="468" y="-99" on="1"/>
        <pt x="479" y="-146" on="1"/>
      </contour>
    </TTGlyph>
    <TTGlyph name="Eth" xMin="13" yMin="-6" xMax="639" yMax="646">
      <contour>
        <pt x="491" y="646" on="0"/>
        <pt x="639" y="490" on="0"/>
        <pt x="639" y="344" on="1"/>
        <pt x="639" y="175" on="0"/>
        <pt x="477" y="-6" on="0"/>
        <pt x="326" y="-6" on="1"/>
        <pt x="230" y="-6" on="0"/>
        <pt x="110" y="0" on="1"/>
        <pt x="116" y="193" on="1"/>
        <pt x="115" y="287" on="1"/>
        <pt x="18" y="287" on="1"/>
        <pt x="13" y="295" on="1"/>
        <pt x="17" y="358" on="1"/>
        <pt x="114" y="358" on="1"/>
        <pt x="110" y="642" on="1"/>
        <pt x="353" y="646" on="1"/>
      </contour>
      <contour>
        <pt x="435" y="76" on="0"/>
        <pt x="532" y="198" on="0"/>
        <pt x="532" y="321" on="1"/>
        <pt x="532" y="445" on="0"/>
        <pt x="439" y="562" on="0"/>
        <pt x="345" y="562" on="1"/>
        <pt x="290" y="562" on="0"/>
        <pt x="214" y="558" on="1"/>
        <pt x="211" y="358" on="1"/>
        <pt x="345" y="358" on="1"/>
        <pt x="350" y="350" on="1"/>
        <pt x="346" y="287" on="1"/>
        <pt x="210" y="287" on="1"/>
        <pt x="209" y="202" on="1"/>
        <pt x="212" y="83" on="1"/>
        <pt x="291" y="76" on="0"/>
        <pt x="343" y="76" on="1"/>
      </contour>
    </TTGlyph>
    <TTGlyph name="Etilde" xMin="86" yMin="0" xMax="473" yMax="863">
      <component glyphName="E" x="0" y="0" flags="0x1000"/>
      <component glyphName="tilde" x="83" y="181" flags="0x1000"/>
    </TTGlyph>
    <TTGlyph name="Euro" xMin="13" yMin="-6" xMax="451" yMax="505">
      <contour>
        <pt x="342" y="64" on="0"/>
        <pt x="409" y="83" on="0"/>
        <pt x="435" y="100" on="1"/>
        <pt x="444" y="94" on="1"/>
        <pt x="437" y="28" on="1"/>
        <pt x="376" y="-6" on="0"/>
        <pt x="308" y="-6" on="1"/>
        <pt x="125" y="-6" on="0"/>
        <pt x="90" y="160" on="1"/>
        <pt x="17" y="160" on="1"/>
        <pt x="13" y="166" on="1"/>
        <pt x="17" y="215" on="1"/>
        <pt x="83" y="215" on="1"/>
        <pt x="82" y="224" on="0"/>
        <pt x="82" y="242" on="1"/>
        <pt x="82" y="263" on="0"/>
        <pt x="83" y="273" on="1"/>
        <pt x="17" y="273" on="1"/>
        <pt x="13" y="279" on="1"/>
        <pt x="17" y="328" on="1"/>
        <pt x="90" y="328" on="1"/>
        <pt x="110" y="414" on="0"/>
        <pt x="226" y="505" on="0"/>
        <pt x="319" y="505" on="1"/>
        <pt x="388" y="505" on="0"/>
        <pt x="451" y="472" on="1"/>
        <pt x="435" y="403" on="1"/>
        <pt x="428" y="401" on="1"/>
        <pt x="376" y="435" on="0"/>
        <pt x="314" y="435" on="1"/>
        <pt x="205" y="435" on="0"/>
        <pt x="179" y="328" on="1"/>
        <pt x="349" y="328" on="1"/>
        <pt x="355" y="323" on="1"/>
        <pt x="350" y="273" on="1"/>
        <pt x="171" y="273" on="1"/>
        <pt x="171" y="250" on="1"/>
        <pt x="171" y="226" on="0"/>
        <pt x="172" y="215" on="1"/>
        <pt x="349" y="215" on="1"/>
        <pt x="355" y="209" on="1"/>
        <pt x="350" y="160" on="1"/>
        <pt x="182" y="160" on="1"/>
        <pt x="212" y="64" on="0"/>
        <pt x="312" y="64" on="1"/>
      </contour>
    </TTGlyph>
    <TTGlyph name="F" xMin="86" yMin="0" xMax="452" yMax="642">
      <contour>
        <pt x="188" y="355" on="1"/>
        <pt x="289" y="353" on="1"/>
        <pt x="395" y="356" on="1"/>
        <pt x="402" y="347" on="1"/>
        <pt x="394" y="269" on="1"/>
        <pt x="280" y="272" on="1"/>
        <pt x="187" y="271" on="1"/>
        <pt x="186" y="202" on="1"/>
        <pt x="191" y="0" on="1"/>
        <pt x="86" y="0" on="1"/>
        <pt x="93" y="193" on="1"/>
        <pt x="86" y="642" on="1"/>
        <pt x="445" y="642" on="1"/>
        <pt x="452" y="633" on="1"/>
        <pt x="444" y="552" on="1"/>
        <pt x="294" y="558" on="1"/>
        <pt x="191" y="557" on="1"/>
      </contour>
    </TTGlyph>
    <TTGlyph name="G" xMin="34" yMin="-8" xMax="544" yMax="649">
      <contour>
        <pt x="457" y="649" on="0"/>
        <pt x="544" y="606" on="1"/>
        <pt x="523" y="510" on="1"/>
        <pt x="512" y="509" on="1"/>
        <pt x="463" y="538" on="0"/>
        <pt x="383" y="563" on="0"/>
        <pt x="339" y="563" on="1"/>
        <pt x="239" y="563" on="0"/>
        <pt x="141" y="442" on="0"/>
        <pt x="141" y="312" on="1"/>
        <pt x="141" y="188" on="0"/>
        <pt x="233" y="77" on="0"/>
        <pt x="333" y="77" on="1"/>
        <pt x="377" y="77" on="0"/>
        <pt x="444" y="97" on="1"/>
        <pt x="447" y="162" on="1"/>
        <pt x="444" y="258" on="1"/>
        <pt x="541" y="265" on="1"/>
        <pt x="539" y="178" on="1"/>
        <pt x="542" y="31" on="1"/>
        <pt x="418" y="-8" on="0"/>
        <pt x="327" y="-8" on="1"/>
        <pt x="180" y="-8" on="0"/>
        <pt x="34" y="155" on="0"/>
        <pt x="34" y="307" on="1"/>
        <pt x="34" y="473" on="0"/>
        <pt x="201" y="649" on="0"/>
        <pt x="356" y="649" on="1"/>
      </contour>
    </TTGlyph>
    <TTGlyph name="Gbreve" xMin="34" yMin="-8" xMax="544" yMax="853">
      <component glyphName="G" x="0" y="0" flags="0x1000"/>
      <component glyphName="breve.cap" x="131" y="181" flags="0x1000"/>
    </TTGlyph>
    <TTGlyph name="Gcircumflex" xMin="34" yMin="-8" xMax="544" yMax="870">
      <contour>
        <pt x="256" y="818" on="0"/>
        <pt x="314" y="870" on="1"/>
        <pt x="338" y="870" on="1"/>
        <pt x="392" y="822" on="0"/>
        <pt x="462" y="774" on="1"/>
        <pt x="443" y="731" on="1"/>
        <pt x="432" y="731" on="1"/>
        <pt x="414" y="742" on="1"/>
        <pt x="337" y="790" on="0"/>
        <pt x="326" y="797" on="1"/>
        <pt x="298" y="778" on="0"/>
        <pt x="221" y="731" on="1"/>
        <pt x="210" y="731" on="1"/>
        <pt x="190" y="774" on="1"/>
      </contour>
      <contour>
        <pt x="457" y="649" on="0"/>
        <pt x="544" y="606" on="1"/>
        <pt x="523" y="510" on="1"/>
        <pt x="512" y="509" on="1"/>
        <pt x="463" y="538" on="0"/>
        <pt x="383" y="563" on="0"/>
        <pt x="339" y="563" on="1"/>
        <pt x="239" y="563" on="0"/>
        <pt x="141" y="442" on="0"/>
        <pt x="141" y="312" on="1"/>
        <pt x="141" y="188" on="0"/>
        <pt x="233" y="77" on="0"/>
        <pt x="333" y="77" on="1"/>
        <pt x="377" y="77" on="0"/>
        <pt x="444" y="97" on="1"/>
        <pt x="447" y="162" on="1"/>
        <pt x="444" y="258" on="1"/>
        <pt x="541" y="265" on="1"/>
        <pt x="539" y="178" on="1"/>
        <pt x="542" y="31" on="1"/>
        <pt x="418" y="-8" on="0"/>
        <pt x="327" y="-8" on="1"/>
        <pt x="180" y="-8" on="0"/>
        <pt x="34" y="155" on="0"/>
        <pt x="34" y="307" on="1"/>
        <pt x="34" y="473" on="0"/>
        <pt x="201" y="649" on="0"/>
        <pt x="356" y="649" on="1"/>
      </contour>
    </TTGlyph>
    <TTGlyph name="Gcommaaccent" xMin="34" yMin="-255" xMax="544" yMax="649">
      <contour>
        <pt x="457" y="649" on="0"/>
        <pt x="544" y="606" on="1"/>
        <pt x="523" y="510" on="1"/>
        <pt x="512" y="509" on="1"/>
        <pt x="463" y="538" on="0"/>
        <pt x="383" y="563" on="0"/>
        <pt x="339" y="563" on="1"/>
        <pt x="239" y="563" on="0"/>
        <pt x="141" y="442" on="0"/>
        <pt x="141" y="312" on="1"/>
        <pt x="141" y="188" on="0"/>
        <pt x="233" y="77" on="0"/>
        <pt x="333" y="77" on="1"/>
        <pt x="377" y="77" on="0"/>
        <pt x="444" y="97" on="1"/>
        <pt x="447" y="162" on="1"/>
        <pt x="444" y="258" on="1"/>
        <pt x="541" y="265" on="1"/>
        <pt x="539" y="178" on="1"/>
        <pt x="542" y="31" on="1"/>
        <pt x="418" y="-8" on="0"/>
        <pt x="327" y="-8" on="1"/>
        <pt x="180" y="-8" on="0"/>
        <pt x="34" y="155" on="0"/>
        <pt x="34" y="307" on="1"/>
        <pt x="34" y="473" on="0"/>
        <pt x="201" y="649" on="0"/>
        <pt x="356" y="649" on="1"/>
      </contour>
      <contour>
        <pt x="371" y="-77" on="0"/>
        <pt x="371" y="-117" on="1"/>
        <pt x="371" y="-186" on="0"/>
        <pt x="274" y="-255" on="1"/>
        <pt x="243" y="-227" on="1"/>
        <pt x="243" y="-220" on="1"/>
        <pt x="294" y="-178" on="0"/>
        <pt x="294" y="-136" on="1"/>
        <pt x="294" y="-108" on="0"/>
        <pt x="265" y="-87" on="1"/>
        <pt x="265" y="-79" on="1"/>
        <pt x="295" y="-59" on="0"/>
        <pt x="332" y="-49" on="1"/>
      </contour>
    </TTGlyph>
    <TTGlyph name="Gdieresis" xMin="34" yMin="-8" xMax="544" yMax="846">
      <contour>
        <pt x="271" y="846" on="0"/>
        <pt x="297" y="819" on="0"/>
        <pt x="297" y="795" on="1"/>
        <pt x="297" y="769" on="0"/>
        <pt x="269" y="740" on="0"/>
        <pt x="244" y="740" on="1"/>
        <pt x="193" y="740" on="0"/>
        <pt x="193" y="792" on="1"/>
        <pt x="193" y="817" on="0"/>
        <pt x="222" y="846" on="0"/>
        <pt x="247" y="846" on="1"/>
      </contour>
      <contour>
        <pt x="435" y="846" on="0"/>
        <pt x="461" y="819" on="0"/>
        <pt x="461" y="795" on="1"/>
        <pt x="461" y="769" on="0"/>
        <pt x="433" y="740" on="0"/>
        <pt x="408" y="740" on="1"/>
        <pt x="357" y="740" on="0"/>
        <pt x="357" y="792" on="1"/>
        <pt x="357" y="817" on="0"/>
        <pt x="386" y="846" on="0"/>
        <pt x="411" y="846" on="1"/>
      </contour>
      <contour>
        <pt x="457" y="649" on="0"/>
        <pt x="544" y="606" on="1"/>
        <pt x="523" y="510" on="1"/>
        <pt x="512" y="509" on="1"/>
        <pt x="463" y="538" on="0"/>
        <pt x="383" y="563" on="0"/>
        <pt x="339" y="563" on="1"/>
        <pt x="239" y="563" on="0"/>
        <pt x="141" y="442" on="0"/>
        <pt x="141" y="312" on="1"/>
        <pt x="141" y="188" on="0"/>
        <pt x="233" y="77" on="0"/>
        <pt x="333" y="77" on="1"/>
        <pt x="377" y="77" on="0"/>
        <pt x="444" y="97" on="1"/>
        <pt x="447" y="162" on="1"/>
        <pt x="444" y="258" on="1"/>
        <pt x="541" y="265" on="1"/>
        <pt x="539" y="178" on="1"/>
        <pt x="542" y="31" on="1"/>
        <pt x="418" y="-8" on="0"/>
        <pt x="327" y="-8" on="1"/>
        <pt x="180" y="-8" on="0"/>
        <pt x="34" y="155" on="0"/>
        <pt x="34" y="307" on="1"/>
        <pt x="34" y="473" on="0"/>
        <pt x="201" y="649" on="0"/>
        <pt x="356" y="649" on="1"/>
      </contour>
    </TTGlyph>
    <TTGlyph name="Gdotaccent" xMin="34" yMin="-8" xMax="544" yMax="857">
      <component glyphName="G" x="0" y="0" flags="0x1000"/>
      <component glyphName="period" x="212" y="749" flags="0x1000"/>
    </TTGlyph>
    <TTGlyph name="Gtilde" xMin="34" yMin="-8" xMax="544" yMax="863">
      <component glyphName="G" x="0" y="0" flags="0x1000"/>
      <component glyphName="tilde" x="131" y="181" flags="0x1000"/>
    </TTGlyph>
    <TTGlyph name="H" xMin="86" yMin="0" xMax="602" yMax="642">
      <contour>
        <pt x="600" y="0" on="1"/>
        <pt x="496" y="0" on="1"/>
        <pt x="503" y="193" on="1"/>
        <pt x="502" y="280" on="1"/>
        <pt x="336" y="283" on="1"/>
        <pt x="187" y="280" on="1"/>
        <pt x="186" y="202" on="1"/>
        <pt x="191" y="0" on="1"/>
        <pt x="86" y="0" on="1"/>
        <pt x="93" y="193" on="1"/>
        <pt x="86" y="642" on="1"/>
        <pt x="192" y="642" on="1"/>
        <pt x="188" y="367" on="1"/>
        <pt x="344" y="364" on="1"/>
        <pt x="500" y="367" on="1"/>
        <pt x="496" y="642" on="1"/>
        <pt x="602" y="642" on="1"/>
        <pt x="596" y="202" on="1"/>
      </contour>
    </TTGlyph>
    <TTGlyph name="Hbar" xMin="35" yMin="0" xMax="687" yMax="642">
      <contour>
        <pt x="610" y="202" on="1"/>
        <pt x="614" y="0" on="1"/>
        <pt x="510" y="0" on="1"/>
        <pt x="517" y="193" on="1"/>
        <pt x="516" y="280" on="1"/>
        <pt x="350" y="283" on="1"/>
        <pt x="201" y="280" on="1"/>
        <pt x="200" y="202" on="1"/>
        <pt x="204" y="0" on="1"/>
        <pt x="100" y="0" on="1"/>
        <pt x="107" y="193" on="1"/>
        <pt x="103" y="476" on="1"/>
        <pt x="40" y="476" on="1"/>
        <pt x="35" y="482" on="1"/>
        <pt x="39" y="542" on="1"/>
        <pt x="102" y="542" on="1"/>
        <pt x="100" y="642" on="1"/>
        <pt x="206" y="642" on="1"/>
        <pt x="205" y="542" on="1"/>
        <pt x="512" y="542" on="1"/>
        <pt x="510" y="642" on="1"/>
        <pt x="615" y="642" on="1"/>
        <pt x="614" y="542" on="1"/>
        <pt x="681" y="542" on="1"/>
        <pt x="687" y="536" on="1"/>
        <pt x="683" y="476" on="1"/>
        <pt x="613" y="476" on="1"/>
      </contour>
      <contour>
        <pt x="204" y="476" on="1"/>
        <pt x="202" y="367" on="1"/>
        <pt x="358" y="364" on="1"/>
        <pt x="514" y="367" on="1"/>
        <pt x="513" y="476" on="1"/>
      </contour>
    </TTGlyph>
    <TTGlyph name="Hcircumflex" xMin="86" yMin="0" xMax="602" yMax="870">
      <contour>
        <pt x="206" y="774" on="1"/>
        <pt x="272" y="818" on="0"/>
        <pt x="330" y="870" on="1"/>
        <pt x="354" y="870" on="1"/>
        <pt x="408" y="822" on="0"/>
        <pt x="478" y="774" on="1"/>
        <pt x="459" y="731" on="1"/>
        <pt x="448" y="731" on="1"/>
        <pt x="430" y="742" on="1"/>
        <pt x="353" y="790" on="0"/>
        <pt x="342" y="797" on="1"/>
        <pt x="314" y="778" on="0"/>
        <pt x="237" y="731" on="1"/>
        <pt x="226" y="731" on="1"/>
      </contour>
      <contour>
        <pt x="600" y="0" on="1"/>
        <pt x="496" y="0" on="1"/>
        <pt x="503" y="193" on="1"/>
        <pt x="502" y="280" on="1"/>
        <pt x="336" y="283" on="1"/>
        <pt x="187" y="280" on="1"/>
        <pt x="186" y="202" on="1"/>
        <pt x="190" y="0" on="1"/>
        <pt x="86" y="0" on="1"/>
        <pt x="93" y="193" on="1"/>
        <pt x="86" y="642" on="1"/>
        <pt x="192" y="642" on="1"/>
        <pt x="188" y="367" on="1"/>
        <pt x="344" y="364" on="1"/>
        <pt x="500" y="367" on="1"/>
        <pt x="496" y="642" on="1"/>
        <pt x="602" y="642" on="1"/>
        <pt x="596" y="202" on="1"/>
      </contour>
    </TTGlyph>
    <TTGlyph name="I" xMin="86" yMin="0" xMax="192" yMax="642">
      <contour>
        <pt x="191" y="0" on="1"/>
        <pt x="86" y="0" on="1"/>
        <pt x="93" y="193" on="1"/>
        <pt x="86" y="642" on="1"/>
        <pt x="192" y="642" on="1"/>
        <pt x="186" y="202" on="1"/>
      </contour>
    </TTGlyph>
    <TTGlyph name="I.ss01" xMin="-100" yMin="0" xMax="367" yMax="501">
      <contour>
        <pt x="178" y="40" on="1"/>
        <pt x="367" y="40" on="1"/>
        <pt x="367" y="0" on="1"/>
        <pt x="-100" y="0" on="1"/>
        <pt x="-100" y="40" on="1"/>
        <pt x="84" y="40" on="1"/>
        <pt x="87" y="150" on="1"/>
        <pt x="83" y="461" on="1"/>
        <pt x="-100" y="461" on="1"/>
        <pt x="-100" y="501" on="1"/>
        <pt x="367" y="501" on="1"/>
        <pt x="367" y="461" on="1"/>
        <pt x="179" y="461" on="1"/>
        <pt x="175" y="159" on="1"/>
      </contour>
    </TTGlyph>
    <TTGlyph name="IJ" xMin="86" yMin="-104" xMax="514" yMax="642">
      <component glyphName="I" x="0" y="0" flags="0x1000"/>
      <component glyphName="J" x="279" y="0" flags="0x1000"/>
    </TTGlyph>
    <TTGlyph name="Iacute" xMin="47" yMin="0" xMax="282" yMax="874">
      <component glyphName="I" x="0" y="0" flags="0x1000"/>
      <component glyphName="acute.cap" x="-30" y="181" flags="0x1000"/>
    </TTGlyph>
    <TTGlyph name="Iacute_J.loclNLD" xMin="47" yMin="-104" xMax="562" yMax="874">
      <component glyphName="I" x="0" y="0" flags="0x1000"/>
      <component glyphName="acute.cap" x="-30" y="181" flags="0x1000"/>
      <component glyphName="J" x="279" y="0" flags="0x1000"/>
      <component glyphName="acute.cap" x="250" y="181" flags="0x1000"/>
    </TTGlyph>
    <TTGlyph name="Ibreve" xMin="2" yMin="0" xMax="275" yMax="853">
      <component glyphName="I" x="0" y="0" flags="0x1000"/>
      <component glyphName="breve.cap" x="-56" y="181" flags="0x1000"/>
    </TTGlyph>
    <TTGlyph name="Icaron" xMin="4" yMin="0" xMax="276" yMax="860">
      <component glyphName="I" x="0" y="0" flags="0x1000"/>
      <component glyphName="caron.cap" x="-55" y="181" flags="0x1000"/>
    </TTGlyph>
    <TTGlyph name="Icircumflex" xMin="3" yMin="0" xMax="275" yMax="870">
      <contour>
        <pt x="69" y="818" on="0"/>
        <pt x="127" y="870" on="1"/>
        <pt x="151" y="870" on="1"/>
        <pt x="205" y="822" on="0"/>
        <pt x="275" y="774" on="1"/>
        <pt x="256" y="731" on="1"/>
        <pt x="245" y="731" on="1"/>
        <pt x="227" y="742" on="1"/>
        <pt x="150" y="790" on="0"/>
        <pt x="139" y="797" on="1"/>
        <pt x="111" y="778" on="0"/>
        <pt x="34" y="731" on="1"/>
        <pt x="23" y="731" on="1"/>
        <pt x="3" y="774" on="1"/>
      </contour>
      <contour>
        <pt x="190" y="0" on="1"/>
        <pt x="86" y="0" on="1"/>
        <pt x="93" y="193" on="1"/>
        <pt x="86" y="642" on="1"/>
        <pt x="192" y="642" on="1"/>
        <pt x="186" y="202" on="1"/>
      </contour>
    </TTGlyph>
    <TTGlyph name="Idieresis" xMin="18" yMin="0" xMax="260" yMax="846">
      <contour>
        <pt x="96" y="846" on="0"/>
        <pt x="122" y="819" on="0"/>
        <pt x="122" y="795" on="1"/>
        <pt x="122" y="769" on="0"/>
        <pt x="94" y="740" on="0"/>
        <pt x="69" y="740" on="1"/>
        <pt x="18" y="740" on="0"/>
        <pt x="18" y="792" on="1"/>
        <pt x="18" y="817" on="0"/>
        <pt x="47" y="846" on="0"/>
        <pt x="72" y="846" on="1"/>
      </contour>
      <contour>
        <pt x="234" y="846" on="0"/>
        <pt x="260" y="819" on="0"/>
        <pt x="260" y="795" on="1"/>
        <pt x="260" y="769" on="0"/>
        <pt x="232" y="740" on="0"/>
        <pt x="207" y="740" on="1"/>
        <pt x="156" y="740" on="0"/>
        <pt x="156" y="792" on="1"/>
        <pt x="156" y="817" on="0"/>
        <pt x="185" y="846" on="0"/>
        <pt x="210" y="846" on="1"/>
      </contour>
      <contour>
        <pt x="190" y="0" on="1"/>
        <pt x="86" y="0" on="1"/>
        <pt x="93" y="193" on="1"/>
        <pt x="86" y="642" on="1"/>
        <pt x="192" y="642" on="1"/>
        <pt x="186" y="202" on="1"/>
      </contour>
    </TTGlyph>
    <TTGlyph name="Idotaccent" xMin="83" yMin="0" xMax="194" yMax="857">
      <contour>
        <pt x="166" y="857" on="0"/>
        <pt x="194" y="828" on="0"/>
        <pt x="194" y="802" on="1"/>
        <pt x="194" y="775" on="0"/>
        <pt x="164" y="743" on="0"/>
        <pt x="138" y="743" on="1"/>
        <pt x="112" y="743" on="0"/>
        <pt x="83" y="773" on="0"/>
        <pt x="83" y="799" on="1"/>
        <pt x="83" y="825" on="0"/>
        <pt x="114" y="857" on="0"/>
        <pt x="141" y="857" on="1"/>
      </contour>
      <contour>
        <pt x="190" y="0" on="1"/>
        <pt x="86" y="0" on="1"/>
        <pt x="93" y="193" on="1"/>
        <pt x="86" y="642" on="1"/>
        <pt x="192" y="642" on="1"/>
        <pt x="186" y="202" on="1"/>
      </contour>
    </TTGlyph>
    <TTGlyph name="Idotbelow" xMin="77" yMin="-176" xMax="192" yMax="642">
      <contour>
        <pt x="190" y="0" on="1"/>
        <pt x="86" y="0" on="1"/>
        <pt x="93" y="193" on="1"/>
        <pt x="86" y="642" on="1"/>
        <pt x="192" y="642" on="1"/>
        <pt x="186" y="202" on="1"/>
      </contour>
      <contour>
        <pt x="160" y="-62" on="0"/>
        <pt x="188" y="-91" on="0"/>
        <pt x="188" y="-117" on="1"/>
        <pt x="188" y="-144" on="0"/>
        <pt x="158" y="-176" on="0"/>
        <pt x="132" y="-176" on="1"/>
        <pt x="106" y="-176" on="0"/>
        <pt x="77" y="-146" on="0"/>
        <pt x="77" y="-120" on="1"/>
        <pt x="77" y="-94" on="0"/>
        <pt x="108" y="-62" on="0"/>
        <pt x="135" y="-62" on="1"/>
      </contour>
    </TTGlyph>
    <TTGlyph name="Igrave" xMin="22" yMin="0" xMax="257" yMax="875">
      <contour>
        <pt x="127" y="835" on="0"/>
        <pt x="257" y="768" on="1"/>
        <pt x="240" y="724" on="1"/>
        <pt x="229" y="720" on="1"/>
        <pt x="92" y="773" on="0"/>
        <pt x="26" y="802" on="1"/>
        <pt x="22" y="812" on="1"/>
        <pt x="49" y="873" on="1"/>
        <pt x="59" y="875" on="1"/>
      </contour>
      <contour>
        <pt x="190" y="0" on="1"/>
        <pt x="86" y="0" on="1"/>
        <pt x="93" y="193" on="1"/>
        <pt x="86" y="642" on="1"/>
        <pt x="192" y="642" on="1"/>
        <pt x="186" y="202" on="1"/>
      </contour>
    </TTGlyph>
    <TTGlyph name="Ihookabove" xMin="38" yMin="0" xMax="203" yMax="905">
      <component glyphName="I" x="0" y="0" flags="0x1000"/>
      <component glyphName="hookabove" x="-57" y="180" flags="0x1000"/>
    </TTGlyph>
    <TTGlyph name="Imacron" xMin="23" yMin="0" xMax="255" yMax="826">
      <component glyphName="I" x="0" y="0" flags="0x1000"/>
      <component glyphName="macron.i" x="-56" y="181" flags="0x1000"/>
    </TTGlyph>
    <TTGlyph name="Iogonek" xMin="36" yMin="-197" xMax="194" yMax="642">
      <contour>
        <pt x="157" y="-197" on="0"/>
        <pt x="117" y="-197" on="1"/>
        <pt x="80" y="-197" on="0"/>
        <pt x="36" y="-152" on="0"/>
        <pt x="36" y="-115" on="1"/>
        <pt x="36" y="-91" on="0"/>
        <pt x="58" y="-41" on="0"/>
        <pt x="87" y="0" on="1"/>
        <pt x="86" y="0" on="1"/>
        <pt x="93" y="193" on="1"/>
        <pt x="86" y="642" on="1"/>
        <pt x="192" y="642" on="1"/>
        <pt x="186" y="202" on="1"/>
        <pt x="190" y="0" on="1"/>
        <pt x="145" y="0" on="1"/>
        <pt x="98" y="-69" on="0"/>
        <pt x="98" y="-99" on="1"/>
        <pt x="98" y="-134" on="0"/>
        <pt x="131" y="-134" on="1"/>
        <pt x="154" y="-134" on="0"/>
        <pt x="177" y="-111" on="1"/>
        <pt x="185" y="-111" on="1"/>
        <pt x="194" y="-165" on="1"/>
      </contour>
    </TTGlyph>
    <TTGlyph name="Itilde" xMin="-7" yMin="0" xMax="284" yMax="860">
      <component glyphName="I" x="0" y="0" flags="0x1000"/>
      <component glyphName="tilde.i" x="-55" y="181" flags="0x1000"/>
    </TTGlyph>
    <TTGlyph name="J" xMin="6" yMin="-104" xMax="235" yMax="642">
      <contour>
        <pt x="231" y="119" on="1"/>
        <pt x="231" y="41" on="0"/>
        <pt x="150" y="-60" on="0"/>
        <pt x="50" y="-104" on="1"/>
        <pt x="14" y="-47" on="1"/>
        <pt x="14" y="-36" on="1"/>
        <pt x="81" y="-1" on="0"/>
        <pt x="136" y="66" on="0"/>
        <pt x="136" y="119" on="1"/>
        <pt x="136" y="202" on="1"/>
        <pt x="132" y="562" on="1"/>
        <pt x="15" y="561" on="1"/>
        <pt x="6" y="569" on="1"/>
        <pt x="12" y="642" on="1"/>
        <pt x="235" y="642" on="1"/>
        <pt x="229" y="212" on="1"/>
      </contour>
    </TTGlyph>
    <TTGlyph name="Jcircumflex" xMin="4" yMin="-104" xMax="276" yMax="870">
      <contour>
        <pt x="206" y="822" on="0"/>
        <pt x="276" y="774" on="1"/>
        <pt x="257" y="731" on="1"/>
        <pt x="246" y="731" on="1"/>
        <pt x="228" y="742" on="1"/>
        <pt x="151" y="790" on="0"/>
        <pt x="140" y="797" on="1"/>
        <pt x="112" y="778" on="0"/>
        <pt x="35" y="731" on="1"/>
        <pt x="24" y="731" on="1"/>
        <pt x="4" y="774" on="1"/>
        <pt x="70" y="818" on="0"/>
        <pt x="128" y="870" on="1"/>
        <pt x="152" y="870" on="1"/>
      </contour>
      <contour>
        <pt x="230" y="212" on="1"/>
        <pt x="232" y="119" on="1"/>
        <pt x="232" y="41" on="0"/>
        <pt x="150" y="-60" on="0"/>
        <pt x="50" y="-104" on="1"/>
        <pt x="14" y="-47" on="1"/>
        <pt x="14" y="-36" on="1"/>
        <pt x="81" y="-1" on="0"/>
        <pt x="137" y="66" on="0"/>
        <pt x="137" y="119" on="1"/>
        <pt x="137" y="202" on="1"/>
        <pt x="132" y="562" on="1"/>
        <pt x="14" y="561" on="1"/>
        <pt x="6" y="569" on="1"/>
        <pt x="11" y="642" on="1"/>
        <pt x="236" y="642" on="1"/>
      </contour>
    </TTGlyph>
    <TTGlyph name="K" xMin="85" yMin="-9" xMax="566" yMax="642">
      <contour>
        <pt x="190" y="0" on="1"/>
        <pt x="85" y="0" on="1"/>
        <pt x="92" y="193" on="1"/>
        <pt x="85" y="642" on="1"/>
        <pt x="191" y="642" on="1"/>
        <pt x="185" y="202" on="1"/>
      </contour>
      <contour>
        <pt x="423" y="176" on="0"/>
        <pt x="566" y="22" on="1"/>
        <pt x="564" y="10" on="1"/>
        <pt x="517" y="-3" on="0"/>
        <pt x="464" y="-9" on="1"/>
        <pt x="453" y="-3" on="1"/>
        <pt x="298" y="184" on="0"/>
        <pt x="194" y="335" on="1"/>
        <pt x="194" y="341" on="1"/>
        <pt x="395" y="584" on="1"/>
        <pt x="433" y="642" on="1"/>
        <pt x="547" y="642" on="1"/>
        <pt x="301" y="340" on="1"/>
      </contour>
    </TTGlyph>
    <TTGlyph name="Kcommaaccent" xMin="85" yMin="-255" xMax="566" yMax="642">
      <contour>
        <pt x="189" y="0" on="1"/>
        <pt x="85" y="0" on="1"/>
        <pt x="92" y="193" on="1"/>
        <pt x="85" y="642" on="1"/>
        <pt x="191" y="642" on="1"/>
        <pt x="185" y="202" on="1"/>
      </contour>
      <contour>
        <pt x="428" y="170" on="0"/>
        <pt x="566" y="22" on="1"/>
        <pt x="565" y="10" on="1"/>
        <pt x="516" y="-3" on="0"/>
        <pt x="465" y="-9" on="1"/>
        <pt x="453" y="-3" on="1"/>
        <pt x="298" y="184" on="0"/>
        <pt x="194" y="335" on="1"/>
        <pt x="194" y="341" on="1"/>
        <pt x="395" y="584" on="1"/>
        <pt x="433" y="642" on="1"/>
        <pt x="548" y="642" on="1"/>
        <pt x="302" y="340" on="1"/>
      </contour>
      <contour>
        <pt x="357" y="-77" on="0"/>
        <pt x="357" y="-117" on="1"/>
        <pt x="357" y="-186" on="0"/>
        <pt x="260" y="-255" on="1"/>
        <pt x="229" y="-227" on="1"/>
        <pt x="229" y="-220" on="1"/>
        <pt x="280" y="-178" on="0"/>
        <pt x="280" y="-136" on="1"/>
        <pt x="280" y="-108" on="0"/>
        <pt x="251" y="-87" on="1"/>
        <pt x="251" y="-79" on="1"/>
        <pt x="281" y="-59" on="0"/>
        <pt x="318" y="-49" on="1"/>
      </contour>
    </TTGlyph>
    <TTGlyph name="L" xMin="83" yMin="0" xMax="421" yMax="642">
      <contour>
        <pt x="413" y="0" on="1"/>
        <pt x="83" y="0" on="1"/>
        <pt x="90" y="193" on="1"/>
        <pt x="83" y="642" on="1"/>
        <pt x="189" y="642" on="1"/>
        <pt x="183" y="202" on="1"/>
        <pt x="185" y="86" on="1"/>
        <pt x="414" y="86" on="1"/>
        <pt x="421" y="77" on="1"/>
      </contour>
    </TTGlyph>
    <TTGlyph name="L.ss01" xMin="-100" yMin="0" xMax="484" yMax="501">
      <contour>
        <pt x="173" y="161" on="1"/>
        <pt x="175" y="83" on="1"/>
        <pt x="356" y="83" on="1"/>
        <pt x="362" y="76" on="1"/>
        <pt x="358" y="40" on="1"/>
        <pt x="484" y="40" on="1"/>
        <pt x="484" y="0" on="1"/>
        <pt x="-100" y="0" on="1"/>
        <pt x="-100" y="40" on="1"/>
        <pt x="84" y="40" on="1"/>
        <pt x="87" y="152" on="1"/>
        <pt x="83" y="461" on="1"/>
        <pt x="-100" y="461" on="1"/>
        <pt x="-100" y="501" on="1"/>
        <pt x="484" y="501" on="1"/>
        <pt x="484" y="461" on="1"/>
        <pt x="177" y="461" on="1"/>
      </contour>
    </TTGlyph>
    <TTGlyph name="Lacute" xMin="83" yMin="0" xMax="421" yMax="874">
      <component glyphName="L" x="0" y="0" flags="0x1000"/>
      <component glyphName="acute.cap" x="39" y="181" flags="0x1000"/>
    </TTGlyph>
    <TTGlyph name="Lcaron" xMin="83" yMin="0" xMax="421" yMax="642">
      <contour>
        <pt x="413" y="0" on="1"/>
        <pt x="83" y="0" on="1"/>
        <pt x="90" y="193" on="1"/>
        <pt x="83" y="642" on="1"/>
        <pt x="189" y="642" on="1"/>
        <pt x="183" y="202" on="1"/>
        <pt x="185" y="86" on="1"/>
        <pt x="414" y="86" on="1"/>
        <pt x="421" y="77" on="1"/>
      </contour>
      <contour>
        <pt x="318" y="394" on="1"/>
        <pt x="320" y="581" on="1"/>
        <pt x="393" y="586" on="1"/>
        <pt x="400" y="578" on="1"/>
        <pt x="373" y="394" on="1"/>
        <pt x="326" y="387" on="1"/>
      </contour>
    </TTGlyph>
    <TTGlyph name="Lcommaaccent" xMin="83" yMin="-255" xMax="421" yMax="642">
      <contour>
        <pt x="413" y="0" on="1"/>
        <pt x="83" y="0" on="1"/>
        <pt x="90" y="193" on="1"/>
        <pt x="83" y="642" on="1"/>
        <pt x="189" y="642" on="1"/>
        <pt x="183" y="202" on="1"/>
        <pt x="185" y="86" on="1"/>
        <pt x="414" y="86" on="1"/>
        <pt x="421" y="77" on="1"/>
      </contour>
      <contour>
        <pt x="300" y="-77" on="0"/>
        <pt x="300" y="-117" on="1"/>
        <pt x="300" y="-186" on="0"/>
        <pt x="203" y="-255" on="1"/>
        <pt x="172" y="-227" on="1"/>
        <pt x="172" y="-220" on="1"/>
        <pt x="223" y="-178" on="0"/>
        <pt x="223" y="-136" on="1"/>
        <pt x="223" y="-108" on="0"/>
        <pt x="194" y="-87" on="1"/>
        <pt x="194" y="-79" on="1"/>
        <pt x="224" y="-59" on="0"/>
        <pt x="261" y="-49" on="1"/>
      </contour>
    </TTGlyph>
    <TTGlyph name="Ldot" xMin="83" yMin="0" xMax="421" yMax="642">
      <component glyphName="L" x="0" y="0" flags="0x1000"/>
      <component glyphName="period" x="235" y="331" flags="0x1000"/>
    </TTGlyph>
    <TTGlyph name="Lslash" xMin="6" yMin="0" xMax="436" yMax="642">
      <contour>
        <pt x="428" y="0" on="1"/>
        <pt x="98" y="0" on="1"/>
        <pt x="105" y="193" on="1"/>
        <pt x="104" y="272" on="1"/>
        <pt x="36" y="236" on="1"/>
        <pt x="25" y="242" on="1"/>
        <pt x="6" y="303" on="1"/>
        <pt x="103" y="353" on="1"/>
        <pt x="98" y="642" on="1"/>
        <pt x="203" y="642" on="1"/>
        <pt x="200" y="404" on="1"/>
        <pt x="319" y="466" on="1"/>
        <pt x="330" y="461" on="1"/>
        <pt x="349" y="400" on="1"/>
        <pt x="199" y="322" on="1"/>
        <pt x="198" y="202" on="1"/>
        <pt x="200" y="86" on="1"/>
        <pt x="429" y="86" on="1"/>
        <pt x="436" y="77" on="1"/>
      </contour>
    </TTGlyph>
    <TTGlyph name="M" xMin="53" yMin="0" xMax="737" yMax="642">
      <contour>
        <pt x="645" y="0" on="1"/>
        <pt x="632" y="195" on="1"/>
        <pt x="602" y="485" on="1"/>
        <pt x="595" y="485" on="1"/>
        <pt x="430" y="71" on="1"/>
        <pt x="348" y="71" on="1"/>
        <pt x="195" y="485" on="1"/>
        <pt x="186" y="485" on="1"/>
        <pt x="156" y="204" on="1"/>
        <pt x="140" y="0" on="1"/>
        <pt x="53" y="0" on="1"/>
        <pt x="120" y="642" on="1"/>
        <pt x="238" y="642" on="1"/>
        <pt x="268" y="546" on="1"/>
        <pt x="391" y="205" on="1"/>
        <pt x="399" y="205" on="1"/>
        <pt x="529" y="549" on="1"/>
        <pt x="559" y="642" on="1"/>
        <pt x="676" y="642" on="1"/>
        <pt x="737" y="0" on="1"/>
      </contour>
    </TTGlyph>
    <TTGlyph name="M.ss01" xMin="-100" yMin="0" xMax="784" yMax="501">
      <contour>
        <pt x="609" y="40" on="1"/>
        <pt x="784" y="40" on="1"/>
        <pt x="784" y="0" on="1"/>
        <pt x="-100" y="0" on="1"/>
        <pt x="-100" y="40" on="1"/>
        <pt x="70" y="40" on="1"/>
        <pt x="115" y="461" on="1"/>
        <pt x="-100" y="461" on="1"/>
        <pt x="-100" y="501" on="1"/>
        <pt x="784" y="501" on="1"/>
        <pt x="784" y="461" on="1"/>
        <pt x="568" y="461" on="1"/>
      </contour>
      <contour>
        <pt x="234" y="461" on="1"/>
        <pt x="247" y="424" on="1"/>
        <pt x="336" y="203" on="1"/>
        <pt x="343" y="203" on="1"/>
        <pt x="437" y="424" on="1"/>
        <pt x="451" y="461" on="1"/>
      </contour>
      <contour>
        <pt x="521" y="167" on="1"/>
        <pt x="501" y="360" on="1"/>
        <pt x="495" y="360" on="1"/>
        <pt x="371" y="85" on="1"/>
        <pt x="298" y="85" on="1"/>
        <pt x="183" y="360" on="1"/>
        <pt x="177" y="360" on="1"/>
        <pt x="156" y="173" on="1"/>
        <pt x="147" y="40" on="1"/>
        <pt x="529" y="40" on="1"/>
      </contour>
    </TTGlyph>
    <TTGlyph name="N" xMin="86" yMin="0" xMax="602" yMax="644">
      <contour>
        <pt x="599" y="0" on="1"/>
        <pt x="488" y="0" on="1"/>
        <pt x="187" y="481" on="1"/>
        <pt x="179" y="481" on="1"/>
        <pt x="178" y="215" on="1"/>
        <pt x="183" y="0" on="1"/>
        <pt x="86" y="0" on="1"/>
        <pt x="93" y="190" on="1"/>
        <pt x="88" y="642" on="1"/>
        <pt x="198" y="642" on="1"/>
        <pt x="500" y="161" on="1"/>
        <pt x="508" y="161" on="1"/>
        <pt x="505" y="637" on="1"/>
        <pt x="602" y="644" on="1"/>
        <pt x="595" y="192" on="1"/>
      </contour>
    </TTGlyph>
    <TTGlyph name="Nacute" xMin="86" yMin="0" xMax="602" yMax="874">
      <component glyphName="N" x="0" y="0" flags="0x1000"/>
      <component glyphName="acute.cap" x="173" y="181" flags="0x1000"/>
    </TTGlyph>
    <TTGlyph name="Ncaron" xMin="86" yMin="0" xMax="602" yMax="860">
      <component glyphName="N" x="0" y="0" flags="0x1000"/>
      <component glyphName="caron.cap" x="148" y="181" flags="0x1000"/>
    </TTGlyph>
    <TTGlyph name="Ncommaaccent" xMin="86" yMin="-255" xMax="602" yMax="644">
      <contour>
        <pt x="598" y="0" on="1"/>
        <pt x="488" y="0" on="1"/>
        <pt x="186" y="481" on="1"/>
        <pt x="179" y="481" on="1"/>
        <pt x="178" y="215" on="1"/>
        <pt x="182" y="0" on="1"/>
        <pt x="86" y="0" on="1"/>
        <pt x="93" y="190" on="1"/>
        <pt x="88" y="642" on="1"/>
        <pt x="198" y="642" on="1"/>
        <pt x="500" y="161" on="1"/>
        <pt x="507" y="161" on="1"/>
        <pt x="505" y="637" on="1"/>
        <pt x="602" y="644" on="1"/>
        <pt x="595" y="192" on="1"/>
      </contour>
      <contour>
        <pt x="407" y="-77" on="0"/>
        <pt x="407" y="-117" on="1"/>
        <pt x="407" y="-186" on="0"/>
        <pt x="310" y="-255" on="1"/>
        <pt x="279" y="-227" on="1"/>
        <pt x="279" y="-220" on="1"/>
        <pt x="330" y="-178" on="0"/>
        <pt x="330" y="-136" on="1"/>
        <pt x="330" y="-108" on="0"/>
        <pt x="301" y="-87" on="1"/>
        <pt x="301" y="-79" on="1"/>
        <pt x="331" y="-59" on="0"/>
        <pt x="368" y="-49" on="1"/>
      </contour>
    </TTGlyph>
    <TTGlyph name="Ntilde" xMin="86" yMin="0" xMax="602" yMax="863">
      <component glyphName="N" x="0" y="0" flags="0x1000"/>
      <component glyphName="tilde" x="147" y="181" flags="0x1000"/>
    </TTGlyph>
    <TTGlyph name="O" xMin="34" yMin="-9" xMax="605" yMax="650">
      <contour>
        <pt x="462" y="650" on="0"/>
        <pt x="605" y="486" on="0"/>
        <pt x="605" y="334" on="1"/>
        <pt x="605" y="170" on="0"/>
        <pt x="451" y="-9" on="0"/>
        <pt x="310" y="-9" on="1"/>
        <pt x="178" y="-9" on="0"/>
        <pt x="34" y="160" on="0"/>
        <pt x="34" y="315" on="1"/>
        <pt x="34" y="476" on="0"/>
        <pt x="187" y="650" on="0"/>
        <pt x="329" y="650" on="1"/>
      </contour>
      <contour>
        <pt x="228" y="565" on="0"/>
        <pt x="140" y="450" on="0"/>
        <pt x="140" y="328" on="1"/>
        <pt x="140" y="197" on="0"/>
        <pt x="227" y="74" on="0"/>
        <pt x="318" y="74" on="1"/>
        <pt x="409" y="74" on="0"/>
        <pt x="498" y="191" on="0"/>
        <pt x="498" y="315" on="1"/>
        <pt x="498" y="445" on="0"/>
        <pt x="411" y="565" on="0"/>
        <pt x="320" y="565" on="1"/>
      </contour>
    </TTGlyph>
    <TTGlyph name="OE" xMin="34" yMin="-12" xMax="838" yMax="654">
      <contour>
        <pt x="389" y="654" on="0"/>
        <pt x="447" y="648" on="1"/>
        <pt x="503" y="642" on="0"/>
        <pt x="529" y="642" on="1"/>
        <pt x="831" y="642" on="1"/>
        <pt x="838" y="633" on="1"/>
        <pt x="830" y="554" on="1"/>
        <pt x="684" y="558" on="1"/>
        <pt x="555" y="558" on="1"/>
        <pt x="553" y="370" on="1"/>
        <pt x="664" y="368" on="1"/>
        <pt x="776" y="371" on="1"/>
        <pt x="782" y="363" on="1"/>
        <pt x="774" y="284" on="1"/>
        <pt x="657" y="287" on="1"/>
        <pt x="551" y="285" on="1"/>
        <pt x="551" y="198" on="1"/>
        <pt x="552" y="84" on="1"/>
        <pt x="672" y="83" on="1"/>
        <pt x="830" y="88" on="1"/>
        <pt x="837" y="79" on="1"/>
        <pt x="829" y="0" on="1"/>
        <pt x="529" y="0" on="1"/>
        <pt x="507" y="1" on="0"/>
        <pt x="433" y="-6" on="1"/>
        <pt x="369" y="-12" on="0"/>
        <pt x="336" y="-12" on="1"/>
        <pt x="192" y="-12" on="0"/>
        <pt x="34" y="160" on="0"/>
        <pt x="34" y="316" on="1"/>
        <pt x="34" y="477" on="0"/>
        <pt x="202" y="654" on="0"/>
        <pt x="354" y="654" on="1"/>
      </contour>
      <contour>
        <pt x="241" y="569" on="0"/>
        <pt x="140" y="447" on="0"/>
        <pt x="140" y="322" on="1"/>
        <pt x="140" y="195" on="0"/>
        <pt x="241" y="71" on="0"/>
        <pt x="346" y="71" on="1"/>
        <pt x="405" y="71" on="0"/>
        <pt x="435" y="81" on="1"/>
        <pt x="458" y="91" on="0"/>
        <pt x="458" y="120" on="1"/>
        <pt x="454" y="516" on="1"/>
        <pt x="453" y="549" on="0"/>
        <pt x="440" y="556" on="1"/>
        <pt x="416" y="569" on="0"/>
        <pt x="345" y="569" on="1"/>
      </contour>
    </TTGlyph>
    <TTGlyph name="Oacute" xMin="34" yMin="-9" xMax="605" yMax="874">
      <component glyphName="O" x="0" y="0" flags="0x1000"/>
      <component glyphName="acute.cap" x="151" y="181" flags="0x1000"/>
    </TTGlyph>
    <TTGlyph name="Obreve" xMin="34" yMin="-9" xMax="605" yMax="853">
      <component glyphName="O" x="0" y="0" flags="0x1000"/>
      <component glyphName="breve.cap" x="125" y="181" flags="0x1000"/>
    </TTGlyph>
    <TTGlyph name="Ocaron" xMin="34" yMin="-9" xMax="605" yMax="860">
      <component glyphName="O" x="0" y="0" flags="0x1000"/>
      <component glyphName="caron.cap" x="126" y="181" flags="0x1000"/>
    </TTGlyph>
    <TTGlyph name="Ocircumflex" xMin="34" yMin="-9" xMax="605" yMax="870">
      <contour>
        <pt x="250" y="818" on="0"/>
        <pt x="308" y="870" on="1"/>
        <pt x="332" y="870" on="1"/>
        <pt x="386" y="822" on="0"/>
        <pt x="456" y="774" on="1"/>
        <pt x="437" y="731" on="1"/>
        <pt x="426" y="731" on="1"/>
        <pt x="408" y="742" on="1"/>
        <pt x="331" y="790" on="0"/>
        <pt x="320" y="797" on="1"/>
        <pt x="292" y="778" on="0"/>
        <pt x="215" y="731" on="1"/>
        <pt x="204" y="731" on="1"/>
        <pt x="184" y="774" on="1"/>
      </contour>
      <contour>
        <pt x="462" y="650" on="0"/>
        <pt x="605" y="486" on="0"/>
        <pt x="605" y="334" on="1"/>
        <pt x="605" y="170" on="0"/>
        <pt x="452" y="-9" on="0"/>
        <pt x="310" y="-9" on="1"/>
        <pt x="178" y="-9" on="0"/>
        <pt x="34" y="160" on="0"/>
        <pt x="34" y="315" on="1"/>
        <pt x="34" y="476" on="0"/>
        <pt x="187" y="650" on="0"/>
        <pt x="329" y="650" on="1"/>
      </contour>
      <contour>
        <pt x="227" y="565" on="0"/>
        <pt x="140" y="450" on="0"/>
        <pt x="140" y="328" on="1"/>
        <pt x="140" y="197" on="0"/>
        <pt x="227" y="74" on="0"/>
        <pt x="318" y="74" on="1"/>
        <pt x="409" y="74" on="0"/>
        <pt x="498" y="192" on="0"/>
        <pt x="498" y="315" on="1"/>
        <pt x="498" y="445" on="0"/>
        <pt x="411" y="565" on="0"/>
        <pt x="319" y="565" on="1"/>
      </contour>
    </TTGlyph>
    <TTGlyph name="Ocircumflexacute" xMin="34" yMin="-9" xMax="605" yMax="967">
      <component glyphName="O" x="0" y="0" flags="0x1000"/>
      <component glyphName="circumflexacute" x="125" y="181" flags="0x1000"/>
    </TTGlyph>
    <TTGlyph name="Ocircumflexdotbelow" xMin="34" yMin="-176" xMax="605" yMax="864">
      <contour>
        <pt x="258" y="812" on="0"/>
        <pt x="316" y="864" on="1"/>
        <pt x="340" y="864" on="1"/>
        <pt x="394" y="816" on="0"/>
        <pt x="464" y="768" on="1"/>
        <pt x="445" y="725" on="1"/>
        <pt x="434" y="725" on="1"/>
        <pt x="416" y="736" on="1"/>
        <pt x="339" y="784" on="0"/>
        <pt x="328" y="791" on="1"/>
        <pt x="300" y="772" on="0"/>
        <pt x="223" y="725" on="1"/>
        <pt x="212" y="725" on="1"/>
        <pt x="192" y="768" on="1"/>
      </contour>
      <contour>
        <pt x="462" y="650" on="0"/>
        <pt x="605" y="486" on="0"/>
        <pt x="605" y="334" on="1"/>
        <pt x="605" y="170" on="0"/>
        <pt x="452" y="-9" on="0"/>
        <pt x="310" y="-9" on="1"/>
        <pt x="178" y="-9" on="0"/>
        <pt x="34" y="160" on="0"/>
        <pt x="34" y="315" on="1"/>
        <pt x="34" y="476" on="0"/>
        <pt x="187" y="650" on="0"/>
        <pt x="329" y="650" on="1"/>
      </contour>
      <contour>
        <pt x="227" y="565" on="0"/>
        <pt x="140" y="450" on="0"/>
        <pt x="140" y="328" on="1"/>
        <pt x="140" y="197" on="0"/>
        <pt x="227" y="74" on="0"/>
        <pt x="318" y="74" on="1"/>
        <pt x="409" y="74" on="0"/>
        <pt x="498" y="192" on="0"/>
        <pt x="498" y="315" on="1"/>
        <pt x="498" y="445" on="0"/>
        <pt x="411" y="565" on="0"/>
        <pt x="319" y="565" on="1"/>
      </contour>
      <contour>
        <pt x="347" y="-62" on="0"/>
        <pt x="375" y="-91" on="0"/>
        <pt x="375" y="-117" on="1"/>
        <pt x="375" y="-144" on="0"/>
        <pt x="345" y="-176" on="0"/>
        <pt x="319" y="-176" on="1"/>
        <pt x="293" y="-176" on="0"/>
        <pt x="264" y="-146" on="0"/>
        <pt x="264" y="-120" on="1"/>
        <pt x="264" y="-94" on="0"/>
        <pt x="295" y="-62" on="0"/>
        <pt x="322" y="-62" on="1"/>
      </contour>
    </TTGlyph>
    <TTGlyph name="Ocircumflexgrave" xMin="34" yMin="-9" xMax="605" yMax="967">
      <component glyphName="O" x="0" y="0" flags="0x1000"/>
      <component glyphName="circumflexgrave" x="125" y="181" flags="0x1000"/>
    </TTGlyph>
    <TTGlyph name="Ocircumflexhookabove" xMin="34" yMin="-9" xMax="605" yMax="1008">
      <contour>
        <pt x="446" y="1008" on="0"/>
        <pt x="484" y="974" on="0"/>
        <pt x="484" y="948" on="1"/>
        <pt x="484" y="930" on="0"/>
        <pt x="461" y="897" on="0"/>
        <pt x="433" y="874" on="1"/>
        <pt x="453" y="839" on="1"/>
        <pt x="415" y="817" on="1"/>
        <pt x="381" y="874" on="1"/>
        <pt x="429" y="911" on="0"/>
        <pt x="429" y="938" on="1"/>
        <pt x="429" y="959" on="0"/>
        <pt x="403" y="959" on="1"/>
        <pt x="374" y="959" on="0"/>
        <pt x="346" y="936" on="1"/>
        <pt x="328" y="964" on="1"/>
        <pt x="370" y="1008" on="0"/>
        <pt x="417" y="1008" on="1"/>
      </contour>
      <contour>
        <pt x="249" y="798" on="0"/>
        <pt x="307" y="850" on="1"/>
        <pt x="331" y="850" on="1"/>
        <pt x="385" y="802" on="0"/>
        <pt x="455" y="754" on="1"/>
        <pt x="436" y="711" on="1"/>
        <pt x="425" y="711" on="1"/>
        <pt x="407" y="722" on="1"/>
        <pt x="330" y="770" on="0"/>
        <pt x="319" y="777" on="1"/>
        <pt x="291" y="758" on="0"/>
        <pt x="214" y="711" on="1"/>
        <pt x="203" y="711" on="1"/>
        <pt x="183" y="754" on="1"/>
      </contour>
      <contour>
        <pt x="462" y="650" on="0"/>
        <pt x="605" y="486" on="0"/>
        <pt x="605" y="334" on="1"/>
        <pt x="605" y="170" on="0"/>
        <pt x="452" y="-9" on="0"/>
        <pt x="310" y="-9" on="1"/>
        <pt x="178" y="-9" on="0"/>
        <pt x="34" y="160" on="0"/>
        <pt x="34" y="315" on="1"/>
        <pt x="34" y="476" on="0"/>
        <pt x="187" y="650" on="0"/>
        <pt x="329" y="650" on="1"/>
      </contour>
      <contour>
        <pt x="227" y="565" on="0"/>
        <pt x="140" y="450" on="0"/>
        <pt x="140" y="328" on="1"/>
        <pt x="140" y="197" on="0"/>
        <pt x="227" y="74" on="0"/>
        <pt x="318" y="74" on="1"/>
        <pt x="409" y="74" on="0"/>
        <pt x="498" y="192" on="0"/>
        <pt x="498" y="315" on="1"/>
        <pt x="498" y="445" on="0"/>
        <pt x="411" y="565" on="0"/>
        <pt x="319" y="565" on="1"/>
      </contour>
    </TTGlyph>
    <TTGlyph name="Ocircumflextilde" xMin="34" yMin="-9" xMax="605" yMax="990">
      <contour>
        <pt x="477" y="951" on="1"/>
        <pt x="417" y="877" on="1"/>
        <pt x="406" y="873" on="1"/>
        <pt x="390" y="875" on="0"/>
        <pt x="329" y="892" on="1"/>
        <pt x="273" y="908" on="0"/>
        <pt x="262" y="908" on="1"/>
        <pt x="253" y="908" on="0"/>
        <pt x="235" y="892" on="0"/>
        <pt x="213" y="868" on="0"/>
        <pt x="207" y="861" on="1"/>
        <pt x="198" y="861" on="1"/>
        <pt x="169" y="891" on="1"/>
        <pt x="169" y="900" on="1"/>
        <pt x="230" y="974" on="1"/>
        <pt x="240" y="978" on="1"/>
        <pt x="270" y="974" on="0"/>
        <pt x="319" y="958" on="1"/>
        <pt x="371" y="943" on="0"/>
        <pt x="384" y="943" on="1"/>
        <pt x="397" y="943" on="0"/>
        <pt x="425" y="974" on="1"/>
        <pt x="440" y="990" on="1"/>
        <pt x="449" y="990" on="1"/>
        <pt x="477" y="960" on="1"/>
      </contour>
      <contour>
        <pt x="249" y="798" on="0"/>
        <pt x="307" y="850" on="1"/>
        <pt x="331" y="850" on="1"/>
        <pt x="385" y="802" on="0"/>
        <pt x="455" y="754" on="1"/>
        <pt x="436" y="711" on="1"/>
        <pt x="425" y="711" on="1"/>
        <pt x="407" y="722" on="1"/>
        <pt x="330" y="770" on="0"/>
        <pt x="319" y="777" on="1"/>
        <pt x="291" y="758" on="0"/>
        <pt x="214" y="711" on="1"/>
        <pt x="203" y="711" on="1"/>
        <pt x="183" y="754" on="1"/>
      </contour>
      <contour>
        <pt x="462" y="650" on="0"/>
        <pt x="605" y="486" on="0"/>
        <pt x="605" y="334" on="1"/>
        <pt x="605" y="170" on="0"/>
        <pt x="452" y="-9" on="0"/>
        <pt x="310" y="-9" on="1"/>
        <pt x="178" y="-9" on="0"/>
        <pt x="34" y="160" on="0"/>
        <pt x="34" y="315" on="1"/>
        <pt x="34" y="476" on="0"/>
        <pt x="187" y="650" on="0"/>
        <pt x="329" y="650" on="1"/>
      </contour>
      <contour>
        <pt x="227" y="565" on="0"/>
        <pt x="140" y="450" on="0"/>
        <pt x="140" y="328" on="1"/>
        <pt x="140" y="197" on="0"/>
        <pt x="227" y="74" on="0"/>
        <pt x="318" y="74" on="1"/>
        <pt x="409" y="74" on="0"/>
        <pt x="498" y="192" on="0"/>
        <pt x="498" y="315" on="1"/>
        <pt x="498" y="445" on="0"/>
        <pt x="411" y="565" on="0"/>
        <pt x="319" y="565" on="1"/>
      </contour>
    </TTGlyph>
    <TTGlyph name="Odieresis" xMin="34" yMin="-9" xMax="605" yMax="846">
      <contour>
        <pt x="264" y="846" on="0"/>
        <pt x="290" y="819" on="0"/>
        <pt x="290" y="795" on="1"/>
        <pt x="290" y="769" on="0"/>
        <pt x="262" y="740" on="0"/>
        <pt x="237" y="740" on="1"/>
        <pt x="186" y="740" on="0"/>
        <pt x="186" y="792" on="1"/>
        <pt x="186" y="817" on="0"/>
        <pt x="215" y="846" on="0"/>
        <pt x="240" y="846" on="1"/>
      </contour>
      <contour>
        <pt x="428" y="846" on="0"/>
        <pt x="454" y="819" on="0"/>
        <pt x="454" y="795" on="1"/>
        <pt x="454" y="769" on="0"/>
        <pt x="426" y="740" on="0"/>
        <pt x="401" y="740" on="1"/>
        <pt x="350" y="740" on="0"/>
        <pt x="350" y="792" on="1"/>
        <pt x="350" y="817" on="0"/>
        <pt x="379" y="846" on="0"/>
        <pt x="404" y="846" on="1"/>
      </contour>
      <contour>
        <pt x="462" y="650" on="0"/>
        <pt x="605" y="486" on="0"/>
        <pt x="605" y="334" on="1"/>
        <pt x="605" y="170" on="0"/>
        <pt x="452" y="-9" on="0"/>
        <pt x="310" y="-9" on="1"/>
        <pt x="178" y="-9" on="0"/>
        <pt x="34" y="160" on="0"/>
        <pt x="34" y="315" on="1"/>
        <pt x="34" y="476" on="0"/>
        <pt x="187" y="650" on="0"/>
        <pt x="329" y="650" on="1"/>
      </contour>
      <contour>
        <pt x="227" y="565" on="0"/>
        <pt x="140" y="450" on="0"/>
        <pt x="140" y="328" on="1"/>
        <pt x="140" y="197" on="0"/>
        <pt x="227" y="74" on="0"/>
        <pt x="318" y="74" on="1"/>
        <pt x="409" y="74" on="0"/>
        <pt x="498" y="192" on="0"/>
        <pt x="498" y="315" on="1"/>
        <pt x="498" y="445" on="0"/>
        <pt x="411" y="565" on="0"/>
        <pt x="319" y="565" on="1"/>
      </contour>
    </TTGlyph>
    <TTGlyph name="Odotbelow" xMin="34" yMin="-176" xMax="605" yMax="650">
      <contour>
        <pt x="462" y="650" on="0"/>
        <pt x="605" y="486" on="0"/>
        <pt x="605" y="334" on="1"/>
        <pt x="605" y="170" on="0"/>
        <pt x="452" y="-9" on="0"/>
        <pt x="310" y="-9" on="1"/>
        <pt x="178" y="-9" on="0"/>
        <pt x="34" y="160" on="0"/>
        <pt x="34" y="315" on="1"/>
        <pt x="34" y="476" on="0"/>
        <pt x="187" y="650" on="0"/>
        <pt x="329" y="650" on="1"/>
      </contour>
      <contour>
        <pt x="227" y="565" on="0"/>
        <pt x="140" y="450" on="0"/>
        <pt x="140" y="328" on="1"/>
        <pt x="140" y="197" on="0"/>
        <pt x="227" y="74" on="0"/>
        <pt x="318" y="74" on="1"/>
        <pt x="409" y="74" on="0"/>
        <pt x="498" y="192" on="0"/>
        <pt x="498" y="315" on="1"/>
        <pt x="498" y="445" on="0"/>
        <pt x="411" y="565" on="0"/>
        <pt x="319" y="565" on="1"/>
      </contour>
      <contour>
        <pt x="347" y="-62" on="0"/>
        <pt x="375" y="-91" on="0"/>
        <pt x="375" y="-117" on="1"/>
        <pt x="375" y="-144" on="0"/>
        <pt x="345" y="-176" on="0"/>
        <pt x="319" y="-176" on="1"/>
        <pt x="293" y="-176" on="0"/>
        <pt x="264" y="-146" on="0"/>
        <pt x="264" y="-120" on="1"/>
        <pt x="264" y="-94" on="0"/>
        <pt x="295" y="-62" on="0"/>
        <pt x="322" y="-62" on="1"/>
      </contour>
    </TTGlyph>
    <TTGlyph name="Ograve" xMin="34" yMin="-9" xMax="605" yMax="875">
      <contour>
        <pt x="308" y="835" on="0"/>
        <pt x="438" y="768" on="1"/>
        <pt x="421" y="724" on="1"/>
        <pt x="410" y="720" on="1"/>
        <pt x="273" y="773" on="0"/>
        <pt x="207" y="802" on="1"/>
        <pt x="203" y="812" on="1"/>
        <pt x="230" y="873" on="1"/>
        <pt x="240" y="875" on="1"/>
      </contour>
      <contour>
        <pt x="462" y="650" on="0"/>
        <pt x="605" y="486" on="0"/>
        <pt x="605" y="334" on="1"/>
        <pt x="605" y="170" on="0"/>
        <pt x="452" y="-9" on="0"/>
        <pt x="310" y="-9" on="1"/>
        <pt x="178" y="-9" on="0"/>
        <pt x="34" y="160" on="0"/>
        <pt x="34" y="315" on="1"/>
        <pt x="34" y="476" on="0"/>
        <pt x="187" y="650" on="0"/>
        <pt x="329" y="650" on="1"/>
      </contour>
      <contour>
        <pt x="227" y="565" on="0"/>
        <pt x="140" y="450" on="0"/>
        <pt x="140" y="328" on="1"/>
        <pt x="140" y="197" on="0"/>
        <pt x="227" y="74" on="0"/>
        <pt x="318" y="74" on="1"/>
        <pt x="409" y="74" on="0"/>
        <pt x="498" y="192" on="0"/>
        <pt x="498" y="315" on="1"/>
        <pt x="498" y="445" on="0"/>
        <pt x="411" y="565" on="0"/>
        <pt x="319" y="565" on="1"/>
      </contour>
    </TTGlyph>
    <TTGlyph name="Ohm" xMin="32" yMin="-5" xMax="715" yMax="650">
      <component glyphName="Omega" x="0" y="0" flags="0x1000"/>
    </TTGlyph>
    <TTGlyph name="Ohookabove" xMin="34" yMin="-9" xMax="605" yMax="905">
      <component glyphName="O" x="0" y="0" flags="0x1000"/>
      <component glyphName="hookabove" x="125" y="180" flags="0x1000"/>
    </TTGlyph>
    <TTGlyph name="Ohorn" xMin="34" yMin="-9" xMax="643" yMax="769">
      <contour>
        <pt x="606" y="769" on="0"/>
        <pt x="643" y="718" on="0"/>
        <pt x="643" y="680" on="1"/>
        <pt x="643" y="632" on="0"/>
        <pt x="577" y="573" on="0"/>
        <pt x="526" y="568" on="1"/>
        <pt x="605" y="488" on="0"/>
        <pt x="605" y="330" on="1"/>
        <pt x="605" y="170" on="0"/>
        <pt x="451" y="-9" on="0"/>
        <pt x="312" y="-9" on="1"/>
        <pt x="178" y="-9" on="0"/>
        <pt x="34" y="160" on="0"/>
        <pt x="34" y="314" on="1"/>
        <pt x="34" y="475" on="0"/>
        <pt x="187" y="650" on="0"/>
        <pt x="322" y="650" on="1"/>
        <pt x="379" y="650" on="0"/>
        <pt x="440" y="629" on="1"/>
        <pt x="480" y="617" on="0"/>
        <pt x="496" y="617" on="1"/>
        <pt x="525" y="617" on="0"/>
        <pt x="563" y="647" on="0"/>
        <pt x="563" y="673" on="1"/>
        <pt x="563" y="711" on="0"/>
        <pt x="531" y="741" on="1"/>
        <pt x="533" y="749" on="1"/>
        <pt x="558" y="769" on="0"/>
        <pt x="583" y="769" on="1"/>
      </contour>
      <contour>
        <pt x="228" y="565" on="0"/>
        <pt x="140" y="449" on="0"/>
        <pt x="140" y="326" on="1"/>
        <pt x="140" y="196" on="0"/>
        <pt x="227" y="74" on="0"/>
        <pt x="319" y="74" on="1"/>
        <pt x="410" y="74" on="0"/>
        <pt x="498" y="192" on="0"/>
        <pt x="498" y="316" on="1"/>
        <pt x="498" y="445" on="0"/>
        <pt x="411" y="565" on="0"/>
        <pt x="319" y="565" on="1"/>
      </contour>
    </TTGlyph>
    <TTGlyph name="Ohornacute" xMin="34" yMin="-9" xMax="643" yMax="874">
      <component glyphName="Ohorn" x="0" y="0" flags="0x1000"/>
      <component glyphName="acute.cap" x="151" y="181" flags="0x1000"/>
    </TTGlyph>
    <TTGlyph name="Ohorndotbelow" xMin="34" yMin="-176" xMax="643" yMax="769">
      <contour>
        <pt x="606" y="769" on="0"/>
        <pt x="643" y="718" on="0"/>
        <pt x="643" y="680" on="1"/>
        <pt x="643" y="632" on="0"/>
        <pt x="577" y="573" on="0"/>
        <pt x="526" y="568" on="1"/>
        <pt x="605" y="488" on="0"/>
        <pt x="605" y="330" on="1"/>
        <pt x="605" y="170" on="0"/>
        <pt x="452" y="-9" on="0"/>
        <pt x="312" y="-9" on="1"/>
        <pt x="178" y="-9" on="0"/>
        <pt x="34" y="160" on="0"/>
        <pt x="34" y="314" on="1"/>
        <pt x="34" y="475" on="0"/>
        <pt x="187" y="650" on="0"/>
        <pt x="322" y="650" on="1"/>
        <pt x="379" y="650" on="0"/>
        <pt x="440" y="629" on="1"/>
        <pt x="480" y="617" on="0"/>
        <pt x="496" y="617" on="1"/>
        <pt x="525" y="617" on="0"/>
        <pt x="563" y="647" on="0"/>
        <pt x="563" y="673" on="1"/>
        <pt x="563" y="711" on="0"/>
        <pt x="531" y="741" on="1"/>
        <pt x="533" y="749" on="1"/>
        <pt x="558" y="769" on="0"/>
        <pt x="583" y="769" on="1"/>
      </contour>
      <contour>
        <pt x="227" y="565" on="0"/>
        <pt x="140" y="449" on="0"/>
        <pt x="140" y="326" on="1"/>
        <pt x="140" y="196" on="0"/>
        <pt x="227" y="74" on="0"/>
        <pt x="318" y="74" on="1"/>
        <pt x="409" y="74" on="0"/>
        <pt x="498" y="192" on="0"/>
        <pt x="498" y="316" on="1"/>
        <pt x="498" y="445" on="0"/>
        <pt x="411" y="565" on="0"/>
        <pt x="319" y="565" on="1"/>
      </contour>
      <contour>
        <pt x="347" y="-62" on="0"/>
        <pt x="375" y="-91" on="0"/>
        <pt x="375" y="-117" on="1"/>
        <pt x="375" y="-144" on="0"/>
        <pt x="345" y="-176" on="0"/>
        <pt x="319" y="-176" on="1"/>
        <pt x="293" y="-176" on="0"/>
        <pt x="264" y="-146" on="0"/>
        <pt x="264" y="-120" on="1"/>
        <pt x="264" y="-94" on="0"/>
        <pt x="295" y="-62" on="0"/>
        <pt x="322" y="-62" on="1"/>
      </contour>
    </TTGlyph>
    <TTGlyph name="Ohorngrave" xMin="34" yMin="-9" xMax="643" yMax="875">
      <contour>
        <pt x="308" y="835" on="0"/>
        <pt x="438" y="768" on="1"/>
        <pt x="421" y="724" on="1"/>
        <pt x="410" y="720" on="1"/>
        <pt x="273" y="773" on="0"/>
        <pt x="207" y="802" on="1"/>
        <pt x="203" y="812" on="1"/>
        <pt x="230" y="873" on="1"/>
        <pt x="240" y="875" on="1"/>
      </contour>
      <contour>
        <pt x="606" y="769" on="0"/>
        <pt x="643" y="718" on="0"/>
        <pt x="643" y="680" on="1"/>
        <pt x="643" y="632" on="0"/>
        <pt x="577" y="573" on="0"/>
        <pt x="526" y="568" on="1"/>
        <pt x="605" y="488" on="0"/>
        <pt x="605" y="330" on="1"/>
        <pt x="605" y="170" on="0"/>
        <pt x="452" y="-9" on="0"/>
        <pt x="312" y="-9" on="1"/>
        <pt x="178" y="-9" on="0"/>
        <pt x="34" y="160" on="0"/>
        <pt x="34" y="314" on="1"/>
        <pt x="34" y="475" on="0"/>
        <pt x="187" y="650" on="0"/>
        <pt x="322" y="650" on="1"/>
        <pt x="379" y="650" on="0"/>
        <pt x="440" y="629" on="1"/>
        <pt x="480" y="617" on="0"/>
        <pt x="496" y="617" on="1"/>
        <pt x="525" y="617" on="0"/>
        <pt x="563" y="647" on="0"/>
        <pt x="563" y="673" on="1"/>
        <pt x="563" y="711" on="0"/>
        <pt x="531" y="741" on="1"/>
        <pt x="533" y="749" on="1"/>
        <pt x="558" y="769" on="0"/>
        <pt x="583" y="769" on="1"/>
      </contour>
      <contour>
        <pt x="227" y="565" on="0"/>
        <pt x="140" y="449" on="0"/>
        <pt x="140" y="326" on="1"/>
        <pt x="140" y="196" on="0"/>
        <pt x="227" y="74" on="0"/>
        <pt x="318" y="74" on="1"/>
        <pt x="409" y="74" on="0"/>
        <pt x="498" y="192" on="0"/>
        <pt x="498" y="316" on="1"/>
        <pt x="498" y="445" on="0"/>
        <pt x="411" y="565" on="0"/>
        <pt x="319" y="565" on="1"/>
      </contour>
    </TTGlyph>
    <TTGlyph name="Ohornhookabove" xMin="34" yMin="-9" xMax="643" yMax="905">
      <component glyphName="Ohorn" x="0" y="0" flags="0x1000"/>
      <component glyphName="hookabove" x="125" y="180" flags="0x1000"/>
    </TTGlyph>
    <TTGlyph name="Ohorntilde" xMin="34" yMin="-9" xMax="643" yMax="863">
      <component glyphName="Ohorn" x="0" y="0" flags="0x1000"/>
      <component glyphName="tilde" x="125" y="181" flags="0x1000"/>
    </TTGlyph>
    <TTGlyph name="Ohungarumlaut" xMin="34" yMin="-9" xMax="605" yMax="873">
      <component glyphName="O" x="0" y="0" flags="0x1000"/>
      <component glyphName="hungarumlaut.cap" x="151" y="181" flags="0x1000"/>
    </TTGlyph>
    <TTGlyph name="Omacron" xMin="34" yMin="-9" xMax="605" yMax="826">
      <component glyphName="O" x="0" y="0" flags="0x1000"/>
      <component glyphName="macron" x="125" y="181" flags="0x1000"/>
    </TTGlyph>
    <TTGlyph name="Omega" xMin="32" yMin="-5" xMax="715" yMax="650">
      <contour>
        <pt x="473" y="650" on="0"/>
        <pt x="599" y="575" on="0"/>
        <pt x="662" y="449" on="0"/>
        <pt x="662" y="372" on="1"/>
        <pt x="662" y="294" on="0"/>
        <pt x="597" y="141" on="0"/>
        <pt x="534" y="83" on="1"/>
        <pt x="536" y="78" on="1"/>
        <pt x="627" y="78" on="1"/>
        <pt x="709" y="87" on="1"/>
        <pt x="715" y="80" on="1"/>
        <pt x="703" y="-5" on="1"/>
        <pt x="597" y="0" on="1"/>
        <pt x="461" y="0" on="1"/>
        <pt x="424" y="-2" on="1"/>
        <pt x="418" y="2" on="1"/>
        <pt x="418" y="77" on="1"/>
        <pt x="484" y="128" on="0"/>
        <pt x="555" y="281" on="0"/>
        <pt x="555" y="361" on="1"/>
        <pt x="555" y="452" on="0"/>
        <pt x="463" y="566" on="0"/>
        <pt x="373" y="566" on="1"/>
        <pt x="283" y="566" on="0"/>
        <pt x="193" y="454" on="0"/>
        <pt x="193" y="363" on="1"/>
        <pt x="193" y="283" on="0"/>
        <pt x="264" y="129" on="0"/>
        <pt x="328" y="77" on="1"/>
        <pt x="328" y="2" on="1"/>
        <pt x="323" y="-2" on="1"/>
        <pt x="285" y="0" on="1"/>
        <pt x="131" y="0" on="1"/>
        <pt x="39" y="-3" on="1"/>
        <pt x="32" y="4" on="1"/>
        <pt x="45" y="85" on="1"/>
        <pt x="133" y="78" on="1"/>
        <pt x="211" y="78" on="1"/>
        <pt x="212" y="83" on="1"/>
        <pt x="150" y="139" on="0"/>
        <pt x="86" y="285" on="0"/>
        <pt x="86" y="361" on="1"/>
        <pt x="86" y="440" on="0"/>
        <pt x="154" y="572" on="0"/>
        <pt x="287" y="650" on="0"/>
        <pt x="381" y="650" on="1"/>
      </contour>
    </TTGlyph>
    <TTGlyph name="Oogonek" xMin="34" yMin="-197" xMax="605" yMax="650">
      <contour>
        <pt x="381" y="-73" on="0"/>
        <pt x="381" y="-95" on="1"/>
        <pt x="381" y="-112" on="0"/>
        <pt x="401" y="-134" on="0"/>
        <pt x="420" y="-134" on="1"/>
        <pt x="452" y="-134" on="0"/>
        <pt x="487" y="-99" on="1"/>
        <pt x="493" y="-99" on="1"/>
        <pt x="504" y="-146" on="1"/>
        <pt x="451" y="-197" on="0"/>
        <pt x="404" y="-197" on="1"/>
        <pt x="365" y="-197" on="0"/>
        <pt x="319" y="-151" on="0"/>
        <pt x="319" y="-114" on="1"/>
        <pt x="319" y="-77" on="0"/>
        <pt x="346" y="-36" on="1"/>
        <pt x="368" y="-5" on="1"/>
        <pt x="344" y="-9" on="0"/>
        <pt x="310" y="-9" on="1"/>
        <pt x="178" y="-9" on="0"/>
        <pt x="34" y="160" on="0"/>
        <pt x="34" y="315" on="1"/>
        <pt x="34" y="476" on="0"/>
        <pt x="187" y="650" on="0"/>
        <pt x="329" y="650" on="1"/>
        <pt x="462" y="650" on="0"/>
        <pt x="605" y="486" on="0"/>
        <pt x="605" y="334" on="1"/>
        <pt x="605" y="212" on="0"/>
        <pt x="519" y="50" on="0"/>
        <pt x="438" y="15" on="1"/>
        <pt x="398" y="-47" on="1"/>
      </contour>
      <contour>
        <pt x="140" y="197" on="0"/>
        <pt x="227" y="74" on="0"/>
        <pt x="318" y="74" on="1"/>
        <pt x="409" y="74" on="0"/>
        <pt x="498" y="191" on="0"/>
        <pt x="498" y="315" on="1"/>
        <pt x="498" y="445" on="0"/>
        <pt x="411" y="565" on="0"/>
        <pt x="319" y="565" on="1"/>
        <pt x="227" y="565" on="0"/>
        <pt x="140" y="450" on="0"/>
        <pt x="140" y="328" on="1"/>
      </contour>
    </TTGlyph>
    <TTGlyph name="Oslash" xMin="34" yMin="-109" xMax="605" yMax="729">
      <contour>
        <pt x="605" y="526" on="0"/>
        <pt x="605" y="334" on="1"/>
        <pt x="605" y="170" on="0"/>
        <pt x="452" y="-9" on="0"/>
        <pt x="310" y="-9" on="1"/>
        <pt x="254" y="-9" on="0"/>
        <pt x="209" y="6" on="1"/>
        <pt x="155" y="-109" on="1"/>
        <pt x="96" y="-85" on="1"/>
        <pt x="91" y="-76" on="1"/>
        <pt x="145" y="39" on="1"/>
        <pt x="34" y="121" on="0"/>
        <pt x="34" y="315" on="1"/>
        <pt x="34" y="476" on="0"/>
        <pt x="187" y="650" on="0"/>
        <pt x="329" y="650" on="1"/>
        <pt x="379" y="650" on="0"/>
        <pt x="426" y="637" on="1"/>
        <pt x="469" y="729" on="1"/>
        <pt x="527" y="706" on="1"/>
        <pt x="534" y="695" on="1"/>
        <pt x="492" y="605" on="1"/>
      </contour>
      <contour>
        <pt x="140" y="192" on="0"/>
        <pt x="188" y="130" on="1"/>
        <pt x="387" y="555" on="1"/>
        <pt x="358" y="565" on="0"/>
        <pt x="319" y="565" on="1"/>
        <pt x="227" y="565" on="0"/>
        <pt x="140" y="450" on="0"/>
        <pt x="140" y="328" on="1"/>
      </contour>
      <contour>
        <pt x="409" y="74" on="0"/>
        <pt x="498" y="192" on="0"/>
        <pt x="498" y="315" on="1"/>
        <pt x="498" y="454" on="0"/>
        <pt x="448" y="513" on="1"/>
        <pt x="247" y="86" on="1"/>
        <pt x="277" y="74" on="0"/>
        <pt x="318" y="74" on="1"/>
      </contour>
    </TTGlyph>
    <TTGlyph name="Oslashacute" xMin="34" yMin="-109" xMax="605" yMax="875">
      <component glyphName="Oslash" x="0" y="0" flags="0x1000"/>
      <component glyphName="acute.cap" x="150" y="182" flags="0x1000"/>
    </TTGlyph>
    <TTGlyph name="Otilde" xMin="34" yMin="-9" xMax="605" yMax="863">
      <component glyphName="O" x="0" y="0" flags="0x1000"/>
      <component glyphName="tilde" x="125" y="181" flags="0x1000"/>
    </TTGlyph>
    <TTGlyph name="P" xMin="86" yMin="0" xMax="506" yMax="643">
      <contour>
        <pt x="401" y="643" on="0"/>
        <pt x="506" y="544" on="0"/>
        <pt x="506" y="451" on="1"/>
        <pt x="506" y="343" on="0"/>
        <pt x="373" y="217" on="0"/>
        <pt x="257" y="217" on="1"/>
        <pt x="186" y="217" on="1"/>
        <pt x="186" y="202" on="1"/>
        <pt x="191" y="0" on="1"/>
        <pt x="86" y="0" on="1"/>
        <pt x="93" y="193" on="1"/>
        <pt x="86" y="642" on="1"/>
        <pt x="304" y="643" on="1"/>
      </contour>
      <contour>
        <pt x="399" y="318" on="0"/>
        <pt x="399" y="442" on="1"/>
        <pt x="399" y="502" on="0"/>
        <pt x="338" y="560" on="0"/>
        <pt x="276" y="562" on="1"/>
        <pt x="191" y="559" on="1"/>
        <pt x="187" y="299" on="1"/>
        <pt x="287" y="297" on="1"/>
      </contour>
    </TTGlyph>
    <TTGlyph name="Q" xMin="34" yMin="-196" xMax="734" yMax="650">
      <contour>
        <pt x="714" y="-167" on="0"/>
        <pt x="687" y="-192" on="1"/>
        <pt x="678" y="-196" on="1"/>
        <pt x="486" y="-137" on="0"/>
        <pt x="334" y="-8" on="1"/>
        <pt x="312" y="-9" on="1"/>
        <pt x="178" y="-9" on="0"/>
        <pt x="34" y="160" on="0"/>
        <pt x="34" y="315" on="1"/>
        <pt x="34" y="476" on="0"/>
        <pt x="187" y="650" on="0"/>
        <pt x="329" y="650" on="1"/>
        <pt x="462" y="650" on="0"/>
        <pt x="605" y="486" on="0"/>
        <pt x="605" y="332" on="1"/>
        <pt x="605" y="208" on="0"/>
        <pt x="514" y="43" on="0"/>
        <pt x="428" y="11" on="1"/>
        <pt x="569" y="-82" on="0"/>
        <pt x="730" y="-114" on="1"/>
        <pt x="734" y="-126" on="1"/>
      </contour>
      <contour>
        <pt x="140" y="196" on="0"/>
        <pt x="228" y="74" on="0"/>
        <pt x="320" y="74" on="1"/>
        <pt x="498" y="74" on="0"/>
        <pt x="498" y="318" on="1"/>
        <pt x="498" y="445" on="0"/>
        <pt x="410" y="565" on="0"/>
        <pt x="319" y="565" on="1"/>
        <pt x="227" y="565" on="0"/>
        <pt x="140" y="449" on="0"/>
        <pt x="140" y="325" on="1"/>
      </contour>
    </TTGlyph>
    <TTGlyph name="R" xMin="86" yMin="-9" xMax="541" yMax="643">
      <contour>
        <pt x="448" y="148" on="0"/>
        <pt x="541" y="24" on="1"/>
        <pt x="540" y="12" on="1"/>
        <pt x="492" y="-4" on="0"/>
        <pt x="441" y="-9" on="1"/>
        <pt x="429" y="-1" on="1"/>
        <pt x="346" y="135" on="0"/>
        <pt x="295" y="229" on="1"/>
        <pt x="186" y="229" on="1"/>
        <pt x="186" y="202" on="1"/>
        <pt x="191" y="0" on="1"/>
        <pt x="86" y="0" on="1"/>
        <pt x="93" y="193" on="1"/>
        <pt x="86" y="642" on="1"/>
        <pt x="304" y="643" on="1"/>
        <pt x="401" y="643" on="0"/>
        <pt x="507" y="546" on="0"/>
        <pt x="507" y="456" on="1"/>
        <pt x="507" y="392" on="0"/>
        <pt x="440" y="289" on="0"/>
        <pt x="380" y="257" on="1"/>
      </contour>
      <contour>
        <pt x="298" y="310" on="1"/>
        <pt x="399" y="341" on="0"/>
        <pt x="399" y="448" on="1"/>
        <pt x="399" y="557" on="0"/>
        <pt x="276" y="562" on="1"/>
        <pt x="191" y="559" on="1"/>
        <pt x="188" y="313" on="1"/>
      </contour>
    </TTGlyph>
    <TTGlyph name="Racute" xMin="86" yMin="-9" xMax="541" yMax="889">
      <component glyphName="R" x="0" y="0" flags="0x1000"/>
      <component glyphName="acute" x="116" y="181" flags="0x1000"/>
    </TTGlyph>
    <TTGlyph name="Rcaron" xMin="86" yMin="-9" xMax="541" yMax="881">
      <component glyphName="R" x="0" y="0" flags="0x1000"/>
      <component glyphName="caron" x="92" y="181" flags="0x1000"/>
    </TTGlyph>
    <TTGlyph name="Rcommaaccent" xMin="86" yMin="-255" xMax="541" yMax="643">
      <contour>
        <pt x="456" y="136" on="0"/>
        <pt x="541" y="24" on="1"/>
        <pt x="540" y="12" on="1"/>
        <pt x="492" y="-5" on="0"/>
        <pt x="442" y="-9" on="1"/>
        <pt x="429" y="-1" on="1"/>
        <pt x="346" y="135" on="0"/>
        <pt x="295" y="229" on="1"/>
        <pt x="186" y="229" on="1"/>
        <pt x="186" y="202" on="1"/>
        <pt x="190" y="0" on="1"/>
        <pt x="86" y="0" on="1"/>
        <pt x="93" y="193" on="1"/>
        <pt x="86" y="642" on="1"/>
        <pt x="304" y="643" on="1"/>
        <pt x="401" y="643" on="0"/>
        <pt x="506" y="546" on="0"/>
        <pt x="506" y="456" on="1"/>
        <pt x="506" y="392" on="0"/>
        <pt x="440" y="289" on="0"/>
        <pt x="380" y="257" on="1"/>
      </contour>
      <contour>
        <pt x="298" y="310" on="1"/>
        <pt x="399" y="341" on="0"/>
        <pt x="399" y="448" on="1"/>
        <pt x="399" y="557" on="0"/>
        <pt x="275" y="562" on="1"/>
        <pt x="191" y="559" on="1"/>
        <pt x="188" y="313" on="1"/>
      </contour>
      <contour>
        <pt x="351" y="-77" on="0"/>
        <pt x="351" y="-117" on="1"/>
        <pt x="351" y="-186" on="0"/>
        <pt x="254" y="-255" on="1"/>
        <pt x="223" y="-227" on="1"/>
        <pt x="223" y="-220" on="1"/>
        <pt x="274" y="-178" on="0"/>
        <pt x="274" y="-136" on="1"/>
        <pt x="274" y="-108" on="0"/>
        <pt x="245" y="-87" on="1"/>
        <pt x="245" y="-79" on="1"/>
        <pt x="275" y="-59" on="0"/>
        <pt x="312" y="-49" on="1"/>
      </contour>
    </TTGlyph>
    <TTGlyph name="S" xMin="38" yMin="-8" xMax="444" yMax="649">
      <contour>
        <pt x="350" y="649" on="0"/>
        <pt x="426" y="617" on="1"/>
        <pt x="409" y="523" on="1"/>
        <pt x="393" y="517" on="1"/>
        <pt x="327" y="566" on="0"/>
        <pt x="262" y="566" on="1"/>
        <pt x="213" y="566" on="0"/>
        <pt x="155" y="512" on="0"/>
        <pt x="155" y="476" on="1"/>
        <pt x="155" y="441" on="0"/>
        <pt x="213" y="396" on="0"/>
        <pt x="275" y="367" on="1"/>
        <pt x="329" y="341" on="0"/>
        <pt x="396" y="299" on="0"/>
        <pt x="444" y="230" on="0"/>
        <pt x="444" y="182" on="1"/>
        <pt x="444" y="130" on="0"/>
        <pt x="387" y="43" on="0"/>
        <pt x="284" y="-8" on="0"/>
        <pt x="218" y="-8" on="1"/>
        <pt x="126" y="-8" on="0"/>
        <pt x="38" y="35" on="1"/>
        <pt x="51" y="137" on="1"/>
        <pt x="64" y="143" on="1"/>
        <pt x="101" y="108" on="0"/>
        <pt x="190" y="73" on="0"/>
        <pt x="228" y="73" on="1"/>
        <pt x="280" y="73" on="0"/>
        <pt x="342" y="128" on="0"/>
        <pt x="342" y="166" on="1"/>
        <pt x="342" y="204" on="0"/>
        <pt x="282" y="251" on="0"/>
        <pt x="220" y="280" on="1"/>
        <pt x="167" y="305" on="0"/>
        <pt x="101" y="346" on="0"/>
        <pt x="54" y="414" on="0"/>
        <pt x="54" y="462" on="1"/>
        <pt x="54" y="514" on="0"/>
        <pt x="110" y="600" on="0"/>
        <pt x="210" y="649" on="0"/>
        <pt x="274" y="649" on="1"/>
      </contour>
    </TTGlyph>
    <TTGlyph name="Sacute" xMin="38" yMin="-8" xMax="444" yMax="889">
      <component glyphName="S" x="0" y="0" flags="0x1000"/>
      <component glyphName="acute" x="84" y="181" flags="0x1000"/>
    </TTGlyph>
    <TTGlyph name="Scaron" xMin="38" yMin="-8" xMax="444" yMax="881">
      <component glyphName="S" x="0" y="0" flags="0x1000"/>
      <component glyphName="caron" x="59" y="181" flags="0x1000"/>
    </TTGlyph>
    <TTGlyph name="Scedilla" xMin="38" yMin="-197" xMax="444" yMax="649">
      <contour>
        <pt x="444" y="111" on="0"/>
        <pt x="344" y="7" on="0"/>
        <pt x="260" y="-5" on="1"/>
        <pt x="248" y="-50" on="1"/>
        <pt x="282" y="-70" on="1"/>
        <pt x="322" y="-91" on="0"/>
        <pt x="322" y="-127" on="1"/>
        <pt x="322" y="-158" on="0"/>
        <pt x="274" y="-197" on="0"/>
        <pt x="235" y="-197" on="1"/>
        <pt x="192" y="-197" on="0"/>
        <pt x="158" y="-167" on="1"/>
        <pt x="167" y="-120" on="1"/>
        <pt x="172" y="-118" on="1"/>
        <pt x="201" y="-149" on="0"/>
        <pt x="229" y="-149" on="1"/>
        <pt x="258" y="-149" on="0"/>
        <pt x="258" y="-124" on="1"/>
        <pt x="258" y="-111" on="0"/>
        <pt x="239" y="-102" on="1"/>
        <pt x="190" y="-73" on="1"/>
        <pt x="206" y="-8" on="1"/>
        <pt x="119" y="-5" on="0"/>
        <pt x="38" y="35" on="1"/>
        <pt x="52" y="137" on="1"/>
        <pt x="64" y="143" on="1"/>
        <pt x="101" y="108" on="0"/>
        <pt x="191" y="73" on="0"/>
        <pt x="229" y="73" on="1"/>
        <pt x="281" y="73" on="0"/>
        <pt x="342" y="129" on="0"/>
        <pt x="342" y="166" on="1"/>
        <pt x="342" y="204" on="0"/>
        <pt x="282" y="251" on="0"/>
        <pt x="220" y="280" on="1"/>
        <pt x="167" y="305" on="0"/>
        <pt x="101" y="346" on="0"/>
        <pt x="54" y="414" on="0"/>
        <pt x="54" y="462" on="1"/>
        <pt x="54" y="514" on="0"/>
        <pt x="110" y="600" on="0"/>
        <pt x="211" y="649" on="0"/>
        <pt x="275" y="649" on="1"/>
        <pt x="350" y="649" on="0"/>
        <pt x="426" y="617" on="1"/>
        <pt x="410" y="523" on="1"/>
        <pt x="394" y="517" on="1"/>
        <pt x="328" y="566" on="0"/>
        <pt x="262" y="566" on="1"/>
        <pt x="214" y="566" on="0"/>
        <pt x="156" y="512" on="0"/>
        <pt x="156" y="476" on="1"/>
        <pt x="156" y="441" on="0"/>
        <pt x="214" y="396" on="0"/>
        <pt x="275" y="367" on="1"/>
        <pt x="329" y="341" on="0"/>
        <pt x="396" y="299" on="0"/>
        <pt x="444" y="230" on="0"/>
        <pt x="444" y="182" on="1"/>
      </contour>
    </TTGlyph>
    <TTGlyph name="Scircumflex" xMin="38" yMin="-8" xMax="444" yMax="882">
      <contour>
        <pt x="168" y="799" on="0"/>
        <pt x="241" y="882" on="1"/>
        <pt x="267" y="882" on="1"/>
        <pt x="339" y="799" on="0"/>
        <pt x="396" y="745" on="1"/>
        <pt x="369" y="705" on="1"/>
        <pt x="359" y="705" on="1"/>
        <pt x="290" y="765" on="0"/>
        <pt x="254" y="805" on="1"/>
        <pt x="219" y="768" on="0"/>
        <pt x="149" y="705" on="1"/>
        <pt x="138" y="705" on="1"/>
        <pt x="111" y="745" on="1"/>
      </contour>
      <contour>
        <pt x="350" y="649" on="0"/>
        <pt x="426" y="617" on="1"/>
        <pt x="410" y="523" on="1"/>
        <pt x="394" y="517" on="1"/>
        <pt x="328" y="566" on="0"/>
        <pt x="262" y="566" on="1"/>
        <pt x="214" y="566" on="0"/>
        <pt x="156" y="512" on="0"/>
        <pt x="156" y="476" on="1"/>
        <pt x="156" y="441" on="0"/>
        <pt x="214" y="396" on="0"/>
        <pt x="275" y="367" on="1"/>
        <pt x="329" y="341" on="0"/>
        <pt x="396" y="299" on="0"/>
        <pt x="444" y="230" on="0"/>
        <pt x="444" y="182" on="1"/>
        <pt x="444" y="130" on="0"/>
        <pt x="388" y="43" on="0"/>
        <pt x="285" y="-8" on="0"/>
        <pt x="218" y="-8" on="1"/>
        <pt x="126" y="-8" on="0"/>
        <pt x="38" y="35" on="1"/>
        <pt x="52" y="137" on="1"/>
        <pt x="64" y="143" on="1"/>
        <pt x="101" y="108" on="0"/>
        <pt x="191" y="73" on="0"/>
        <pt x="229" y="73" on="1"/>
        <pt x="281" y="73" on="0"/>
        <pt x="342" y="129" on="0"/>
        <pt x="342" y="166" on="1"/>
        <pt x="342" y="204" on="0"/>
        <pt x="282" y="251" on="0"/>
        <pt x="220" y="280" on="1"/>
        <pt x="167" y="305" on="0"/>
        <pt x="101" y="346" on="0"/>
        <pt x="54" y="414" on="0"/>
        <pt x="54" y="462" on="1"/>
        <pt x="54" y="514" on="0"/>
        <pt x="110" y="600" on="0"/>
        <pt x="211" y="649" on="0"/>
        <pt x="275" y="649" on="1"/>
      </contour>
    </TTGlyph>
    <TTGlyph name="Scommaaccent" xMin="38" yMin="-255" xMax="444" yMax="649">
      <contour>
        <pt x="350" y="649" on="0"/>
        <pt x="426" y="617" on="1"/>
        <pt x="410" y="523" on="1"/>
        <pt x="394" y="517" on="1"/>
        <pt x="328" y="566" on="0"/>
        <pt x="262" y="566" on="1"/>
        <pt x="214" y="566" on="0"/>
        <pt x="156" y="512" on="0"/>
        <pt x="156" y="476" on="1"/>
        <pt x="156" y="441" on="0"/>
        <pt x="214" y="396" on="0"/>
        <pt x="275" y="367" on="1"/>
        <pt x="329" y="341" on="0"/>
        <pt x="396" y="299" on="0"/>
        <pt x="444" y="230" on="0"/>
        <pt x="444" y="182" on="1"/>
        <pt x="444" y="130" on="0"/>
        <pt x="388" y="43" on="0"/>
        <pt x="285" y="-8" on="0"/>
        <pt x="218" y="-8" on="1"/>
        <pt x="126" y="-8" on="0"/>
        <pt x="38" y="35" on="1"/>
        <pt x="52" y="137" on="1"/>
        <pt x="64" y="143" on="1"/>
        <pt x="101" y="108" on="0"/>
        <pt x="191" y="73" on="0"/>
        <pt x="229" y="73" on="1"/>
        <pt x="281" y="73" on="0"/>
        <pt x="342" y="129" on="0"/>
        <pt x="342" y="166" on="1"/>
        <pt x="342" y="204" on="0"/>
        <pt x="282" y="251" on="0"/>
        <pt x="220" y="280" on="1"/>
        <pt x="167" y="305" on="0"/>
        <pt x="101" y="346" on="0"/>
        <pt x="54" y="414" on="0"/>
        <pt x="54" y="462" on="1"/>
        <pt x="54" y="514" on="0"/>
        <pt x="110" y="600" on="0"/>
        <pt x="211" y="649" on="0"/>
        <pt x="275" y="649" on="1"/>
      </contour>
      <contour>
        <pt x="299" y="-77" on="0"/>
        <pt x="299" y="-117" on="1"/>
        <pt x="299" y="-186" on="0"/>
        <pt x="202" y="-255" on="1"/>
        <pt x="171" y="-227" on="1"/>
        <pt x="171" y="-220" on="1"/>
        <pt x="222" y="-178" on="0"/>
        <pt x="222" y="-136" on="1"/>
        <pt x="222" y="-108" on="0"/>
        <pt x="193" y="-87" on="1"/>
        <pt x="193" y="-79" on="1"/>
        <pt x="223" y="-59" on="0"/>
        <pt x="260" y="-49" on="1"/>
      </contour>
    </TTGlyph>
    <TTGlyph name="T" xMin="19" yMin="0" xMax="477" yMax="642">
      <contour>
        <pt x="471" y="555" on="1"/>
        <pt x="355" y="561" on="1"/>
        <pt x="301" y="561" on="1"/>
        <pt x="296" y="202" on="1"/>
        <pt x="301" y="0" on="1"/>
        <pt x="197" y="0" on="1"/>
        <pt x="203" y="193" on="1"/>
        <pt x="198" y="561" on="1"/>
        <pt x="144" y="561" on="1"/>
        <pt x="26" y="555" on="1"/>
        <pt x="19" y="564" on="1"/>
        <pt x="27" y="642" on="1"/>
        <pt x="471" y="642" on="1"/>
        <pt x="477" y="633" on="1"/>
      </contour>
    </TTGlyph>
    <TTGlyph name="Tbar" xMin="19" yMin="0" xMax="477" yMax="642">
      <contour>
        <pt x="299" y="343" on="1"/>
        <pt x="400" y="343" on="1"/>
        <pt x="408" y="336" on="1"/>
        <pt x="404" y="283" on="1"/>
        <pt x="298" y="283" on="1"/>
        <pt x="297" y="202" on="1"/>
        <pt x="301" y="0" on="1"/>
        <pt x="197" y="0" on="1"/>
        <pt x="204" y="193" on="1"/>
        <pt x="203" y="283" on="1"/>
        <pt x="109" y="283" on="1"/>
        <pt x="102" y="290" on="1"/>
        <pt x="106" y="343" on="1"/>
        <pt x="202" y="343" on="1"/>
        <pt x="198" y="561" on="1"/>
        <pt x="144" y="561" on="1"/>
        <pt x="26" y="555" on="1"/>
        <pt x="19" y="564" on="1"/>
        <pt x="27" y="642" on="1"/>
        <pt x="471" y="642" on="1"/>
        <pt x="477" y="633" on="1"/>
        <pt x="471" y="555" on="1"/>
        <pt x="355" y="561" on="1"/>
        <pt x="301" y="561" on="1"/>
      </contour>
    </TTGlyph>
    <TTGlyph name="Tcaron" xMin="19" yMin="0" xMax="477" yMax="881">
      <component glyphName="T" x="0" y="0" flags="0x1000"/>
      <component glyphName="caron" x="57" y="181" flags="0x1000"/>
    </TTGlyph>
    <TTGlyph name="Tcedilla" xMin="19" yMin="-197" xMax="477" yMax="642">
      <contour>
        <pt x="471" y="555" on="1"/>
        <pt x="355" y="561" on="1"/>
        <pt x="301" y="561" on="1"/>
        <pt x="297" y="202" on="1"/>
        <pt x="301" y="0" on="1"/>
        <pt x="272" y="0" on="1"/>
        <pt x="258" y="-50" on="1"/>
        <pt x="292" y="-70" on="1"/>
        <pt x="332" y="-91" on="0"/>
        <pt x="332" y="-127" on="1"/>
        <pt x="332" y="-158" on="0"/>
        <pt x="284" y="-197" on="0"/>
        <pt x="245" y="-197" on="1"/>
        <pt x="202" y="-197" on="0"/>
        <pt x="168" y="-167" on="1"/>
        <pt x="177" y="-120" on="1"/>
        <pt x="182" y="-118" on="1"/>
        <pt x="211" y="-149" on="0"/>
        <pt x="239" y="-149" on="1"/>
        <pt x="268" y="-149" on="0"/>
        <pt x="268" y="-124" on="1"/>
        <pt x="268" y="-111" on="0"/>
        <pt x="249" y="-102" on="1"/>
        <pt x="200" y="-73" on="1"/>
        <pt x="218" y="0" on="1"/>
        <pt x="197" y="0" on="1"/>
        <pt x="204" y="193" on="1"/>
        <pt x="198" y="561" on="1"/>
        <pt x="144" y="561" on="1"/>
        <pt x="26" y="555" on="1"/>
        <pt x="19" y="564" on="1"/>
        <pt x="27" y="642" on="1"/>
        <pt x="471" y="642" on="1"/>
        <pt x="477" y="633" on="1"/>
      </contour>
    </TTGlyph>
    <TTGlyph name="Thorn" xMin="87" yMin="0" xMax="510" yMax="642">
      <contour>
        <pt x="405" y="536" on="0"/>
        <pt x="510" y="438" on="0"/>
        <pt x="510" y="343" on="1"/>
        <pt x="510" y="233" on="0"/>
        <pt x="380" y="113" on="0"/>
        <pt x="260" y="113" on="1"/>
        <pt x="189" y="111" on="1"/>
        <pt x="191" y="0" on="1"/>
        <pt x="87" y="0" on="1"/>
        <pt x="92" y="193" on="1"/>
        <pt x="88" y="535" on="1"/>
        <pt x="87" y="642" on="1"/>
        <pt x="192" y="642" on="1"/>
        <pt x="191" y="535" on="1"/>
        <pt x="307" y="536" on="1"/>
      </contour>
      <contour>
        <pt x="402" y="215" on="0"/>
        <pt x="402" y="336" on="1"/>
        <pt x="402" y="395" on="0"/>
        <pt x="340" y="453" on="0"/>
        <pt x="278" y="456" on="1"/>
        <pt x="190" y="453" on="1"/>
        <pt x="187" y="202" on="1"/>
        <pt x="187" y="195" on="1"/>
        <pt x="288" y="192" on="1"/>
      </contour>
    </TTGlyph>
    <TTGlyph name="U" xMin="71" yMin="-8" xMax="565" yMax="642">
      <contour>
        <pt x="561" y="240" on="1"/>
        <pt x="563" y="122" on="0"/>
        <pt x="431" y="-8" on="0"/>
        <pt x="310" y="-8" on="1"/>
        <pt x="193" y="-8" on="0"/>
        <pt x="69" y="117" on="0"/>
        <pt x="71" y="232" on="1"/>
        <pt x="73" y="321" on="1"/>
        <pt x="71" y="642" on="1"/>
        <pt x="173" y="642" on="1"/>
        <pt x="169" y="246" on="1"/>
        <pt x="168" y="80" on="0"/>
        <pt x="317" y="80" on="1"/>
        <pt x="467" y="80" on="0"/>
        <pt x="466" y="236" on="1"/>
        <pt x="461" y="642" on="1"/>
        <pt x="565" y="642" on="1"/>
        <pt x="562" y="316" on="1"/>
      </contour>
    </TTGlyph>
    <TTGlyph name="Uacute" xMin="71" yMin="-8" xMax="565" yMax="874">
      <component glyphName="U" x="0" y="0" flags="0x1000"/>
      <component glyphName="acute.cap" x="149" y="181" flags="0x1000"/>
    </TTGlyph>
    <TTGlyph name="Ubreve" xMin="71" yMin="-8" xMax="565" yMax="864">
      <component glyphName="U" x="0" y="0" flags="0x1000"/>
      <component glyphName="breve" x="124" y="181" flags="0x1000"/>
    </TTGlyph>
    <TTGlyph name="Ucaron" xMin="71" yMin="-8" xMax="565" yMax="881">
      <component glyphName="U" x="0" y="0" flags="0x1000"/>
      <component glyphName="caron" x="124" y="181" flags="0x1000"/>
    </TTGlyph>
    <TTGlyph name="Ucircumflex" xMin="71" yMin="-8" xMax="565" yMax="870">
      <contour>
        <pt x="250" y="818" on="0"/>
        <pt x="308" y="870" on="1"/>
        <pt x="332" y="870" on="1"/>
        <pt x="386" y="822" on="0"/>
        <pt x="456" y="774" on="1"/>
        <pt x="437" y="731" on="1"/>
        <pt x="426" y="731" on="1"/>
        <pt x="408" y="742" on="1"/>
        <pt x="331" y="790" on="0"/>
        <pt x="320" y="797" on="1"/>
        <pt x="292" y="778" on="0"/>
        <pt x="215" y="731" on="1"/>
        <pt x="204" y="731" on="1"/>
        <pt x="184" y="774" on="1"/>
      </contour>
      <contour>
        <pt x="561" y="240" on="1"/>
        <pt x="563" y="122" on="0"/>
        <pt x="431" y="-8" on="0"/>
        <pt x="309" y="-8" on="1"/>
        <pt x="193" y="-8" on="0"/>
        <pt x="69" y="117" on="0"/>
        <pt x="71" y="232" on="1"/>
        <pt x="72" y="321" on="1"/>
        <pt x="71" y="642" on="1"/>
        <pt x="173" y="642" on="1"/>
        <pt x="169" y="246" on="1"/>
        <pt x="168" y="80" on="0"/>
        <pt x="316" y="80" on="1"/>
        <pt x="467" y="80" on="0"/>
        <pt x="466" y="236" on="1"/>
        <pt x="461" y="642" on="1"/>
        <pt x="565" y="642" on="1"/>
        <pt x="562" y="316" on="1"/>
      </contour>
    </TTGlyph>
    <TTGlyph name="Udieresis" xMin="71" yMin="-8" xMax="565" yMax="846">
      <contour>
        <pt x="264" y="846" on="0"/>
        <pt x="290" y="819" on="0"/>
        <pt x="290" y="795" on="1"/>
        <pt x="290" y="769" on="0"/>
        <pt x="262" y="740" on="0"/>
        <pt x="237" y="740" on="1"/>
        <pt x="186" y="740" on="0"/>
        <pt x="186" y="792" on="1"/>
        <pt x="186" y="817" on="0"/>
        <pt x="215" y="846" on="0"/>
        <pt x="240" y="846" on="1"/>
      </contour>
      <contour>
        <pt x="428" y="846" on="0"/>
        <pt x="454" y="819" on="0"/>
        <pt x="454" y="795" on="1"/>
        <pt x="454" y="769" on="0"/>
        <pt x="426" y="740" on="0"/>
        <pt x="401" y="740" on="1"/>
        <pt x="350" y="740" on="0"/>
        <pt x="350" y="792" on="1"/>
        <pt x="350" y="817" on="0"/>
        <pt x="379" y="846" on="0"/>
        <pt x="404" y="846" on="1"/>
      </contour>
      <contour>
        <pt x="561" y="240" on="1"/>
        <pt x="563" y="122" on="0"/>
        <pt x="431" y="-8" on="0"/>
        <pt x="309" y="-8" on="1"/>
        <pt x="193" y="-8" on="0"/>
        <pt x="69" y="117" on="0"/>
        <pt x="71" y="232" on="1"/>
        <pt x="72" y="321" on="1"/>
        <pt x="71" y="642" on="1"/>
        <pt x="173" y="642" on="1"/>
        <pt x="169" y="246" on="1"/>
        <pt x="168" y="80" on="0"/>
        <pt x="316" y="80" on="1"/>
        <pt x="467" y="80" on="0"/>
        <pt x="466" y="236" on="1"/>
        <pt x="461" y="642" on="1"/>
        <pt x="565" y="642" on="1"/>
        <pt x="562" y="316" on="1"/>
      </contour>
    </TTGlyph>
    <TTGlyph name="Udieresisacute" xMin="71" yMin="-8" xMax="565" yMax="996">
      <component glyphName="U" x="0" y="0" flags="0x1000"/>
      <component glyphName="dieresisacute" x="123" y="181" flags="0x1000"/>
    </TTGlyph>
    <TTGlyph name="Udieresiscaron" xMin="71" yMin="-8" xMax="565" yMax="980">
      <component glyphName="U" x="0" y="0" flags="0x1000"/>
      <component glyphName="dieresiscaron" x="123" y="181" flags="0x1000"/>
    </TTGlyph>
    <TTGlyph name="Udieresisgrave" xMin="71" yMin="-8" xMax="565" yMax="996">
      <component glyphName="U" x="0" y="0" flags="0x1000"/>
      <component glyphName="dieresisgrave" x="123" y="181" flags="0x1000"/>
    </TTGlyph>
    <TTGlyph name="Udieresismacron" xMin="71" yMin="-8" xMax="565" yMax="952">
      <component glyphName="U" x="0" y="0" flags="0x1000"/>
      <component glyphName="dieresismacron" x="123" y="181" flags="0x1000"/>
    </TTGlyph>
    <TTGlyph name="Udotbelow" xMin="71" yMin="-176" xMax="565" yMax="642">
      <contour>
        <pt x="561" y="240" on="1"/>
        <pt x="563" y="122" on="0"/>
        <pt x="431" y="-8" on="0"/>
        <pt x="309" y="-8" on="1"/>
        <pt x="193" y="-8" on="0"/>
        <pt x="69" y="117" on="0"/>
        <pt x="71" y="232" on="1"/>
        <pt x="72" y="321" on="1"/>
        <pt x="71" y="642" on="1"/>
        <pt x="173" y="642" on="1"/>
        <pt x="169" y="246" on="1"/>
        <pt x="168" y="80" on="0"/>
        <pt x="316" y="80" on="1"/>
        <pt x="467" y="80" on="0"/>
        <pt x="466" y="236" on="1"/>
        <pt x="461" y="642" on="1"/>
        <pt x="565" y="642" on="1"/>
        <pt x="562" y="316" on="1"/>
      </contour>
      <contour>
        <pt x="342" y="-62" on="0"/>
        <pt x="370" y="-91" on="0"/>
        <pt x="370" y="-117" on="1"/>
        <pt x="370" y="-144" on="0"/>
        <pt x="340" y="-176" on="0"/>
        <pt x="314" y="-176" on="1"/>
        <pt x="288" y="-176" on="0"/>
        <pt x="259" y="-146" on="0"/>
        <pt x="259" y="-120" on="1"/>
        <pt x="259" y="-94" on="0"/>
        <pt x="290" y="-62" on="0"/>
        <pt x="317" y="-62" on="1"/>
      </contour>
    </TTGlyph>
    <TTGlyph name="Ugrave" xMin="71" yMin="-8" xMax="565" yMax="875">
      <contour>
        <pt x="308" y="835" on="0"/>
        <pt x="438" y="768" on="1"/>
        <pt x="421" y="724" on="1"/>
        <pt x="410" y="720" on="1"/>
        <pt x="273" y="773" on="0"/>
        <pt x="207" y="802" on="1"/>
        <pt x="203" y="812" on="1"/>
        <pt x="230" y="873" on="1"/>
        <pt x="240" y="875" on="1"/>
      </contour>
      <contour>
        <pt x="561" y="240" on="1"/>
        <pt x="563" y="122" on="0"/>
        <pt x="431" y="-8" on="0"/>
        <pt x="309" y="-8" on="1"/>
        <pt x="193" y="-8" on="0"/>
        <pt x="69" y="117" on="0"/>
        <pt x="71" y="232" on="1"/>
        <pt x="72" y="321" on="1"/>
        <pt x="71" y="642" on="1"/>
        <pt x="173" y="642" on="1"/>
        <pt x="169" y="246" on="1"/>
        <pt x="168" y="80" on="0"/>
        <pt x="316" y="80" on="1"/>
        <pt x="467" y="80" on="0"/>
        <pt x="466" y="236" on="1"/>
        <pt x="461" y="642" on="1"/>
        <pt x="565" y="642" on="1"/>
        <pt x="562" y="316" on="1"/>
      </contour>
    </TTGlyph>
    <TTGlyph name="Uhookabove" xMin="71" yMin="-8" xMax="565" yMax="905">
      <component glyphName="U" x="0" y="0" flags="0x1000"/>
      <component glyphName="hookabove" x="122" y="180" flags="0x1000"/>
    </TTGlyph>
    <TTGlyph name="Uhorn" xMin="71" yMin="-8" xMax="653" yMax="781">
      <contour>
        <pt x="653" y="665" on="0"/>
        <pt x="606" y="610" on="0"/>
        <pt x="565" y="597" on="1"/>
        <pt x="562" y="316" on="1"/>
        <pt x="561" y="240" on="1"/>
        <pt x="563" y="122" on="0"/>
        <pt x="431" y="-8" on="0"/>
        <pt x="309" y="-8" on="1"/>
        <pt x="193" y="-8" on="0"/>
        <pt x="69" y="117" on="0"/>
        <pt x="71" y="232" on="1"/>
        <pt x="72" y="321" on="1"/>
        <pt x="71" y="642" on="1"/>
        <pt x="173" y="642" on="1"/>
        <pt x="169" y="246" on="1"/>
        <pt x="168" y="80" on="0"/>
        <pt x="316" y="80" on="1"/>
        <pt x="467" y="80" on="0"/>
        <pt x="466" y="236" on="1"/>
        <pt x="461" y="642" on="1"/>
        <pt x="509" y="642" on="1"/>
        <pt x="573" y="642" on="0"/>
        <pt x="573" y="692" on="1"/>
        <pt x="573" y="723" on="0"/>
        <pt x="540" y="752" on="1"/>
        <pt x="543" y="761" on="1"/>
        <pt x="571" y="781" on="0"/>
        <pt x="592" y="781" on="1"/>
        <pt x="615" y="781" on="0"/>
        <pt x="653" y="734" on="0"/>
        <pt x="653" y="700" on="1"/>
      </contour>
    </TTGlyph>
    <TTGlyph name="Uhornacute" xMin="71" yMin="-8" xMax="653" yMax="874">
      <component glyphName="Uhorn" x="0" y="0" flags="0x1000"/>
      <component glyphName="acute.cap" x="149" y="181" flags="0x1000"/>
    </TTGlyph>
    <TTGlyph name="Uhorndotbelow" xMin="71" yMin="-176" xMax="653" yMax="781">
      <contour>
        <pt x="653" y="665" on="0"/>
        <pt x="606" y="610" on="0"/>
        <pt x="565" y="597" on="1"/>
        <pt x="562" y="316" on="1"/>
        <pt x="561" y="240" on="1"/>
        <pt x="563" y="122" on="0"/>
        <pt x="431" y="-8" on="0"/>
        <pt x="309" y="-8" on="1"/>
        <pt x="193" y="-8" on="0"/>
        <pt x="69" y="117" on="0"/>
        <pt x="71" y="232" on="1"/>
        <pt x="72" y="321" on="1"/>
        <pt x="71" y="642" on="1"/>
        <pt x="173" y="642" on="1"/>
        <pt x="169" y="246" on="1"/>
        <pt x="168" y="80" on="0"/>
        <pt x="316" y="80" on="1"/>
        <pt x="467" y="80" on="0"/>
        <pt x="466" y="236" on="1"/>
        <pt x="461" y="642" on="1"/>
        <pt x="509" y="642" on="1"/>
        <pt x="573" y="642" on="0"/>
        <pt x="573" y="692" on="1"/>
        <pt x="573" y="723" on="0"/>
        <pt x="540" y="752" on="1"/>
        <pt x="543" y="761" on="1"/>
        <pt x="571" y="781" on="0"/>
        <pt x="592" y="781" on="1"/>
        <pt x="615" y="781" on="0"/>
        <pt x="653" y="734" on="0"/>
        <pt x="653" y="700" on="1"/>
      </contour>
      <contour>
        <pt x="344" y="-62" on="0"/>
        <pt x="372" y="-91" on="0"/>
        <pt x="372" y="-117" on="1"/>
        <pt x="372" y="-144" on="0"/>
        <pt x="342" y="-176" on="0"/>
        <pt x="316" y="-176" on="1"/>
        <pt x="290" y="-176" on="0"/>
        <pt x="261" y="-146" on="0"/>
        <pt x="261" y="-120" on="1"/>
        <pt x="261" y="-94" on="0"/>
        <pt x="292" y="-62" on="0"/>
        <pt x="319" y="-62" on="1"/>
      </contour>
    </TTGlyph>
    <TTGlyph name="Uhorngrave" xMin="71" yMin="-8" xMax="653" yMax="875">
      <contour>
        <pt x="273" y="773" on="0"/>
        <pt x="207" y="802" on="1"/>
        <pt x="203" y="812" on="1"/>
        <pt x="230" y="873" on="1"/>
        <pt x="240" y="875" on="1"/>
        <pt x="308" y="835" on="0"/>
        <pt x="438" y="768" on="1"/>
        <pt x="421" y="724" on="1"/>
        <pt x="410" y="720" on="1"/>
      </contour>
      <contour>
        <pt x="653" y="665" on="0"/>
        <pt x="606" y="610" on="0"/>
        <pt x="565" y="597" on="1"/>
        <pt x="562" y="316" on="1"/>
        <pt x="561" y="240" on="1"/>
        <pt x="563" y="122" on="0"/>
        <pt x="431" y="-8" on="0"/>
        <pt x="309" y="-8" on="1"/>
        <pt x="193" y="-8" on="0"/>
        <pt x="69" y="117" on="0"/>
        <pt x="71" y="232" on="1"/>
        <pt x="72" y="321" on="1"/>
        <pt x="71" y="642" on="1"/>
        <pt x="173" y="642" on="1"/>
        <pt x="169" y="246" on="1"/>
        <pt x="168" y="80" on="0"/>
        <pt x="316" y="80" on="1"/>
        <pt x="467" y="80" on="0"/>
        <pt x="466" y="236" on="1"/>
        <pt x="461" y="642" on="1"/>
        <pt x="509" y="642" on="1"/>
        <pt x="573" y="642" on="0"/>
        <pt x="573" y="692" on="1"/>
        <pt x="573" y="723" on="0"/>
        <pt x="540" y="752" on="1"/>
        <pt x="543" y="761" on="1"/>
        <pt x="571" y="781" on="0"/>
        <pt x="592" y="781" on="1"/>
        <pt x="615" y="781" on="0"/>
        <pt x="653" y="734" on="0"/>
        <pt x="653" y="700" on="1"/>
      </contour>
    </TTGlyph>
    <TTGlyph name="Uhornhookabove" xMin="71" yMin="-8" xMax="653" yMax="905">
      <component glyphName="Uhorn" x="0" y="0" flags="0x1000"/>
      <component glyphName="hookabove" x="122" y="180" flags="0x1000"/>
    </TTGlyph>
    <TTGlyph name="Uhorntilde" xMin="71" yMin="-8" xMax="653" yMax="863">
      <component glyphName="Uhorn" x="0" y="0" flags="0x1000"/>
      <component glyphName="tilde" x="123" y="181" flags="0x1000"/>
    </TTGlyph>
    <TTGlyph name="Uhungarumlaut" xMin="71" yMin="-8" xMax="565" yMax="873">
      <component glyphName="U" x="0" y="0" flags="0x1000"/>
      <component glyphName="hungarumlaut.cap" x="148" y="181" flags="0x1000"/>
    </TTGlyph>
    <TTGlyph name="Umacron" xMin="71" yMin="-8" xMax="565" yMax="826">
      <component glyphName="U" x="0" y="0" flags="0x1000"/>
      <component glyphName="macron" x="123" y="181" flags="0x1000"/>
    </TTGlyph>
    <TTGlyph name="Uogonek" xMin="71" yMin="-197" xMax="565" yMax="642">
      <contour>
        <pt x="561" y="240" on="1"/>
        <pt x="563" y="106" on="0"/>
        <pt x="478" y="41" on="1"/>
        <pt x="421" y="-53" on="1"/>
        <pt x="404" y="-78" on="0"/>
        <pt x="404" y="-102" on="1"/>
        <pt x="404" y="-135" on="0"/>
        <pt x="440" y="-135" on="1"/>
        <pt x="476" y="-135" on="0"/>
        <pt x="511" y="-100" on="1"/>
        <pt x="516" y="-100" on="1"/>
        <pt x="528" y="-145" on="1"/>
        <pt x="478" y="-197" on="0"/>
        <pt x="427" y="-197" on="1"/>
        <pt x="389" y="-197" on="0"/>
        <pt x="344" y="-151" on="0"/>
        <pt x="344" y="-114" on="1"/>
        <pt x="344" y="-78" on="0"/>
        <pt x="368" y="-43" on="1"/>
        <pt x="398" y="3" on="1"/>
        <pt x="356" y="-8" on="0"/>
        <pt x="309" y="-8" on="1"/>
        <pt x="193" y="-8" on="0"/>
        <pt x="69" y="117" on="0"/>
        <pt x="71" y="232" on="1"/>
        <pt x="72" y="321" on="1"/>
        <pt x="71" y="642" on="1"/>
        <pt x="173" y="642" on="1"/>
        <pt x="169" y="246" on="1"/>
        <pt x="168" y="80" on="0"/>
        <pt x="316" y="80" on="1"/>
        <pt x="467" y="80" on="0"/>
        <pt x="466" y="236" on="1"/>
        <pt x="461" y="642" on="1"/>
        <pt x="565" y="642" on="1"/>
        <pt x="562" y="316" on="1"/>
      </contour>
    </TTGlyph>
    <TTGlyph name="Uring" xMin="71" yMin="-8" xMax="565" yMax="889">
      <component glyphName="U" x="0" y="0" flags="0x1000"/>
      <component glyphName="ring" x="123" y="181" flags="0x1000"/>
    </TTGlyph>
    <TTGlyph name="Utilde" xMin="71" yMin="-8" xMax="565" yMax="863">
      <component glyphName="U" x="0" y="0" flags="0x1000"/>
      <component glyphName="tilde" x="123" y="181" flags="0x1000"/>
    </TTGlyph>
    <TTGlyph name="V" xMin="12" yMin="0" xMax="569" yMax="642">
      <contour>
        <pt x="220" y="0" on="1"/>
        <pt x="12" y="642" on="1"/>
        <pt x="118" y="642" on="1"/>
        <pt x="133" y="569" on="1"/>
        <pt x="280" y="100" on="1"/>
        <pt x="287" y="100" on="1"/>
        <pt x="450" y="564" on="1"/>
        <pt x="466" y="642" on="1"/>
        <pt x="569" y="642" on="1"/>
        <pt x="342" y="0" on="1"/>
      </contour>
    </TTGlyph>
    <TTGlyph name="V.ss01" xMin="-100" yMin="0" xMax="608" yMax="501">
      <contour>
        <pt x="318" y="40" on="1"/>
        <pt x="608" y="40" on="1"/>
        <pt x="608" y="0" on="1"/>
        <pt x="-100" y="0" on="1"/>
        <pt x="-100" y="40" on="1"/>
        <pt x="184" y="40" on="1"/>
        <pt x="42" y="461" on="1"/>
        <pt x="-100" y="461" on="1"/>
        <pt x="-100" y="501" on="1"/>
        <pt x="608" y="501" on="1"/>
        <pt x="608" y="461" on="1"/>
        <pt x="474" y="461" on="1"/>
      </contour>
      <contour>
        <pt x="133" y="461" on="1"/>
        <pt x="139" y="433" on="1"/>
        <pt x="250" y="95" on="1"/>
        <pt x="256" y="95" on="1"/>
        <pt x="380" y="428" on="1"/>
        <pt x="386" y="461" on="1"/>
      </contour>
    </TTGlyph>
    <TTGlyph name="W" xMin="20" yMin="0" xMax="890" yMax="642">
      <contour>
        <pt x="560" y="0" on="1"/>
        <pt x="447" y="345" on="1"/>
        <pt x="440" y="345" on="1"/>
        <pt x="323" y="0" on="1"/>
        <pt x="214" y="0" on="1"/>
        <pt x="20" y="642" on="1"/>
        <pt x="122" y="642" on="1"/>
        <pt x="133" y="573" on="1"/>
        <pt x="271" y="110" on="1"/>
        <pt x="279" y="110" on="1"/>
        <pt x="405" y="482" on="1"/>
        <pt x="354" y="642" on="1"/>
        <pt x="459" y="642" on="1"/>
        <pt x="475" y="563" on="1"/>
        <pt x="615" y="110" on="1"/>
        <pt x="623" y="110" on="1"/>
        <pt x="778" y="567" on="1"/>
        <pt x="794" y="642" on="1"/>
        <pt x="890" y="642" on="1"/>
        <pt x="668" y="0" on="1"/>
      </contour>
    </TTGlyph>
    <TTGlyph name="Wacute" xMin="20" yMin="0" xMax="890" yMax="874">
      <component glyphName="W" x="0" y="0" flags="0x1000"/>
      <component glyphName="acute.cap" x="273" y="181" flags="0x1000"/>
    </TTGlyph>
    <TTGlyph name="Wcircumflex" xMin="20" yMin="0" xMax="890" yMax="870">
      <contour>
        <pt x="372" y="818" on="0"/>
        <pt x="430" y="870" on="1"/>
        <pt x="454" y="870" on="1"/>
        <pt x="508" y="822" on="0"/>
        <pt x="578" y="774" on="1"/>
        <pt x="559" y="731" on="1"/>
        <pt x="548" y="731" on="1"/>
        <pt x="530" y="742" on="1"/>
        <pt x="453" y="790" on="0"/>
        <pt x="442" y="797" on="1"/>
        <pt x="414" y="778" on="0"/>
        <pt x="337" y="731" on="1"/>
        <pt x="326" y="731" on="1"/>
        <pt x="306" y="774" on="1"/>
      </contour>
      <contour>
        <pt x="560" y="0" on="1"/>
        <pt x="447" y="345" on="1"/>
        <pt x="439" y="345" on="1"/>
        <pt x="322" y="0" on="1"/>
        <pt x="214" y="0" on="1"/>
        <pt x="20" y="642" on="1"/>
        <pt x="122" y="642" on="1"/>
        <pt x="132" y="573" on="1"/>
        <pt x="271" y="110" on="1"/>
        <pt x="279" y="110" on="1"/>
        <pt x="405" y="482" on="1"/>
        <pt x="354" y="642" on="1"/>
        <pt x="459" y="642" on="1"/>
        <pt x="475" y="563" on="1"/>
        <pt x="615" y="110" on="1"/>
        <pt x="622" y="110" on="1"/>
        <pt x="778" y="567" on="1"/>
        <pt x="793" y="642" on="1"/>
        <pt x="890" y="642" on="1"/>
        <pt x="667" y="0" on="1"/>
      </contour>
    </TTGlyph>
    <TTGlyph name="Wdieresis" xMin="20" yMin="0" xMax="890" yMax="846">
      <contour>
        <pt x="386" y="846" on="0"/>
        <pt x="412" y="819" on="0"/>
        <pt x="412" y="795" on="1"/>
        <pt x="412" y="769" on="0"/>
        <pt x="384" y="740" on="0"/>
        <pt x="359" y="740" on="1"/>
        <pt x="308" y="740" on="0"/>
        <pt x="308" y="792" on="1"/>
        <pt x="308" y="817" on="0"/>
        <pt x="337" y="846" on="0"/>
        <pt x="362" y="846" on="1"/>
      </contour>
      <contour>
        <pt x="550" y="846" on="0"/>
        <pt x="576" y="819" on="0"/>
        <pt x="576" y="795" on="1"/>
        <pt x="576" y="769" on="0"/>
        <pt x="548" y="740" on="0"/>
        <pt x="523" y="740" on="1"/>
        <pt x="472" y="740" on="0"/>
        <pt x="472" y="792" on="1"/>
        <pt x="472" y="817" on="0"/>
        <pt x="501" y="846" on="0"/>
        <pt x="526" y="846" on="1"/>
      </contour>
      <contour>
        <pt x="560" y="0" on="1"/>
        <pt x="447" y="345" on="1"/>
        <pt x="439" y="345" on="1"/>
        <pt x="322" y="0" on="1"/>
        <pt x="214" y="0" on="1"/>
        <pt x="20" y="642" on="1"/>
        <pt x="122" y="642" on="1"/>
        <pt x="132" y="573" on="1"/>
        <pt x="271" y="110" on="1"/>
        <pt x="279" y="110" on="1"/>
        <pt x="405" y="482" on="1"/>
        <pt x="354" y="642" on="1"/>
        <pt x="459" y="642" on="1"/>
        <pt x="475" y="563" on="1"/>
        <pt x="615" y="110" on="1"/>
        <pt x="622" y="110" on="1"/>
        <pt x="778" y="567" on="1"/>
        <pt x="793" y="642" on="1"/>
        <pt x="890" y="642" on="1"/>
        <pt x="667" y="0" on="1"/>
      </contour>
    </TTGlyph>
    <TTGlyph name="Wgrave" xMin="20" yMin="0" xMax="890" yMax="875">
      <contour>
        <pt x="430" y="835" on="0"/>
        <pt x="560" y="768" on="1"/>
        <pt x="543" y="724" on="1"/>
        <pt x="532" y="720" on="1"/>
        <pt x="395" y="773" on="0"/>
        <pt x="329" y="802" on="1"/>
        <pt x="325" y="812" on="1"/>
        <pt x="352" y="873" on="1"/>
        <pt x="362" y="875" on="1"/>
      </contour>
      <contour>
        <pt x="560" y="0" on="1"/>
        <pt x="447" y="345" on="1"/>
        <pt x="439" y="345" on="1"/>
        <pt x="322" y="0" on="1"/>
        <pt x="214" y="0" on="1"/>
        <pt x="20" y="642" on="1"/>
        <pt x="122" y="642" on="1"/>
        <pt x="132" y="573" on="1"/>
        <pt x="271" y="110" on="1"/>
        <pt x="279" y="110" on="1"/>
        <pt x="405" y="482" on="1"/>
        <pt x="354" y="642" on="1"/>
        <pt x="459" y="642" on="1"/>
        <pt x="475" y="563" on="1"/>
        <pt x="615" y="110" on="1"/>
        <pt x="622" y="110" on="1"/>
        <pt x="778" y="567" on="1"/>
        <pt x="793" y="642" on="1"/>
        <pt x="890" y="642" on="1"/>
        <pt x="667" y="0" on="1"/>
      </contour>
    </TTGlyph>
    <TTGlyph name="X" xMin="19" yMin="0" xMax="576" yMax="642">
      <contour>
        <pt x="576" y="0" on="1"/>
        <pt x="451" y="0" on="1"/>
        <pt x="422" y="57" on="1"/>
        <pt x="291" y="254" on="1"/>
        <pt x="154" y="51" on="1"/>
        <pt x="127" y="0" on="1"/>
        <pt x="19" y="0" on="1"/>
        <pt x="231" y="321" on="1"/>
        <pt x="24" y="642" on="1"/>
        <pt x="149" y="642" on="1"/>
        <pt x="177" y="586" on="1"/>
        <pt x="299" y="400" on="1"/>
        <pt x="424" y="588" on="1"/>
        <pt x="450" y="642" on="1"/>
        <pt x="561" y="642" on="1"/>
        <pt x="361" y="335" on="1"/>
      </contour>
    </TTGlyph>
    <TTGlyph name="X.ss01" xMin="-100" yMin="0" xMax="627" yMax="501">
      <contour>
        <pt x="472" y="40" on="1"/>
        <pt x="627" y="40" on="1"/>
        <pt x="627" y="0" on="1"/>
        <pt x="-100" y="0" on="1"/>
        <pt x="-100" y="40" on="1"/>
        <pt x="60" y="40" on="1"/>
        <pt x="208" y="250" on="1"/>
        <pt x="63" y="461" on="1"/>
        <pt x="-100" y="461" on="1"/>
        <pt x="-100" y="501" on="1"/>
        <pt x="627" y="501" on="1"/>
        <pt x="627" y="461" on="1"/>
        <pt x="459" y="461" on="1"/>
        <pt x="322" y="263" on="1"/>
      </contour>
      <contour>
        <pt x="359" y="444" on="1"/>
        <pt x="367" y="461" on="1"/>
        <pt x="169" y="461" on="1"/>
        <pt x="179" y="441" on="1"/>
        <pt x="268" y="319" on="1"/>
      </contour>
      <contour>
        <pt x="160" y="58" on="1"/>
        <pt x="150" y="40" on="1"/>
        <pt x="367" y="40" on="1"/>
        <pt x="355" y="63" on="1"/>
        <pt x="261" y="193" on="1"/>
      </contour>
    </TTGlyph>
    <TTGlyph name="Y" xMin="11" yMin="0" xMax="534" yMax="642">
      <contour>
        <pt x="314" y="0" on="1"/>
        <pt x="210" y="0" on="1"/>
        <pt x="216" y="184" on="1"/>
        <pt x="215" y="225" on="1"/>
        <pt x="11" y="642" on="1"/>
        <pt x="121" y="642" on="1"/>
        <pt x="134" y="602" on="1"/>
        <pt x="261" y="333" on="1"/>
        <pt x="270" y="333" on="1"/>
        <pt x="410" y="600" on="1"/>
        <pt x="426" y="642" on="1"/>
        <pt x="534" y="642" on="1"/>
        <pt x="310" y="224" on="1"/>
        <pt x="309" y="184" on="1"/>
      </contour>
    </TTGlyph>
    <TTGlyph name="Yacute" xMin="11" yMin="0" xMax="534" yMax="874">
      <component glyphName="Y" x="0" y="0" flags="0x1000"/>
      <component glyphName="acute.cap" x="97" y="181" flags="0x1000"/>
    </TTGlyph>
    <TTGlyph name="Ycircumflex" xMin="11" yMin="0" xMax="535" yMax="870">
      <contour>
        <pt x="130" y="774" on="1"/>
        <pt x="196" y="818" on="0"/>
        <pt x="254" y="870" on="1"/>
        <pt x="278" y="870" on="1"/>
        <pt x="332" y="822" on="0"/>
        <pt x="402" y="774" on="1"/>
        <pt x="383" y="731" on="1"/>
        <pt x="372" y="731" on="1"/>
        <pt x="354" y="742" on="1"/>
        <pt x="277" y="790" on="0"/>
        <pt x="266" y="797" on="1"/>
        <pt x="238" y="778" on="0"/>
        <pt x="161" y="731" on="1"/>
        <pt x="150" y="731" on="1"/>
      </contour>
      <contour>
        <pt x="314" y="0" on="1"/>
        <pt x="210" y="0" on="1"/>
        <pt x="217" y="184" on="1"/>
        <pt x="216" y="224" on="1"/>
        <pt x="11" y="642" on="1"/>
        <pt x="121" y="642" on="1"/>
        <pt x="134" y="602" on="1"/>
        <pt x="262" y="333" on="1"/>
        <pt x="270" y="333" on="1"/>
        <pt x="410" y="600" on="1"/>
        <pt x="426" y="642" on="1"/>
        <pt x="535" y="642" on="1"/>
        <pt x="311" y="225" on="1"/>
        <pt x="310" y="184" on="1"/>
      </contour>
    </TTGlyph>
    <TTGlyph name="Ydieresis" xMin="11" yMin="0" xMax="535" yMax="846">
      <contour>
        <pt x="132" y="740" on="0"/>
        <pt x="132" y="792" on="1"/>
        <pt x="132" y="817" on="0"/>
        <pt x="161" y="846" on="0"/>
        <pt x="186" y="846" on="1"/>
        <pt x="210" y="846" on="0"/>
        <pt x="236" y="819" on="0"/>
        <pt x="236" y="795" on="1"/>
        <pt x="236" y="769" on="0"/>
        <pt x="208" y="740" on="0"/>
        <pt x="183" y="740" on="1"/>
      </contour>
      <contour>
        <pt x="296" y="740" on="0"/>
        <pt x="296" y="792" on="1"/>
        <pt x="296" y="817" on="0"/>
        <pt x="325" y="846" on="0"/>
        <pt x="350" y="846" on="1"/>
        <pt x="374" y="846" on="0"/>
        <pt x="400" y="819" on="0"/>
        <pt x="400" y="795" on="1"/>
        <pt x="400" y="769" on="0"/>
        <pt x="372" y="740" on="0"/>
        <pt x="347" y="740" on="1"/>
      </contour>
      <contour>
        <pt x="314" y="0" on="1"/>
        <pt x="210" y="0" on="1"/>
        <pt x="217" y="184" on="1"/>
        <pt x="216" y="224" on="1"/>
        <pt x="11" y="642" on="1"/>
        <pt x="121" y="642" on="1"/>
        <pt x="134" y="602" on="1"/>
        <pt x="262" y="333" on="1"/>
        <pt x="270" y="333" on="1"/>
        <pt x="410" y="600" on="1"/>
        <pt x="426" y="642" on="1"/>
        <pt x="535" y="642" on="1"/>
        <pt x="311" y="225" on="1"/>
        <pt x="310" y="184" on="1"/>
      </contour>
    </TTGlyph>
    <TTGlyph name="Ydotbelow" xMin="11" yMin="-176" xMax="535" yMax="642">
      <contour>
        <pt x="11" y="642" on="1"/>
        <pt x="121" y="642" on="1"/>
        <pt x="134" y="602" on="1"/>
        <pt x="262" y="333" on="1"/>
        <pt x="270" y="333" on="1"/>
        <pt x="410" y="600" on="1"/>
        <pt x="426" y="642" on="1"/>
        <pt x="535" y="642" on="1"/>
        <pt x="311" y="225" on="1"/>
        <pt x="310" y="184" on="1"/>
        <pt x="314" y="0" on="1"/>
        <pt x="210" y="0" on="1"/>
        <pt x="217" y="184" on="1"/>
        <pt x="216" y="224" on="1"/>
      </contour>
      <contour>
        <pt x="289" y="-62" on="0"/>
        <pt x="317" y="-91" on="0"/>
        <pt x="317" y="-117" on="1"/>
        <pt x="317" y="-144" on="0"/>
        <pt x="287" y="-176" on="0"/>
        <pt x="261" y="-176" on="1"/>
        <pt x="235" y="-176" on="0"/>
        <pt x="206" y="-146" on="0"/>
        <pt x="206" y="-120" on="1"/>
        <pt x="206" y="-94" on="0"/>
        <pt x="237" y="-62" on="0"/>
        <pt x="264" y="-62" on="1"/>
      </contour>
    </TTGlyph>
    <TTGlyph name="Ygrave" xMin="11" yMin="0" xMax="535" yMax="875">
      <contour>
        <pt x="219" y="773" on="0"/>
        <pt x="153" y="802" on="1"/>
        <pt x="149" y="812" on="1"/>
        <pt x="176" y="873" on="1"/>
        <pt x="186" y="875" on="1"/>
        <pt x="254" y="835" on="0"/>
        <pt x="384" y="768" on="1"/>
        <pt x="367" y="724" on="1"/>
        <pt x="356" y="720" on="1"/>
      </contour>
      <contour>
        <pt x="314" y="0" on="1"/>
        <pt x="210" y="0" on="1"/>
        <pt x="217" y="184" on="1"/>
        <pt x="216" y="224" on="1"/>
        <pt x="11" y="642" on="1"/>
        <pt x="121" y="642" on="1"/>
        <pt x="134" y="602" on="1"/>
        <pt x="262" y="333" on="1"/>
        <pt x="270" y="333" on="1"/>
        <pt x="410" y="600" on="1"/>
        <pt x="426" y="642" on="1"/>
        <pt x="535" y="642" on="1"/>
        <pt x="311" y="225" on="1"/>
        <pt x="310" y="184" on="1"/>
      </contour>
    </TTGlyph>
    <TTGlyph name="Yhookabove" xMin="11" yMin="0" xMax="534" yMax="905">
      <component glyphName="Y" x="0" y="0" flags="0x1000"/>
      <component glyphName="hookabove" x="70" y="180" flags="0x1000"/>
    </TTGlyph>
    <TTGlyph name="Ytilde" xMin="11" yMin="0" xMax="534" yMax="863">
      <component glyphName="Y" x="0" y="0" flags="0x1000"/>
      <component glyphName="tilde" x="71" y="181" flags="0x1000"/>
    </TTGlyph>
    <TTGlyph name="Z" xMin="31" yMin="-3" xMax="504" yMax="643">
      <contour>
        <pt x="154" y="81" on="1"/>
        <pt x="398" y="81" on="1"/>
        <pt x="499" y="89" on="1"/>
        <pt x="504" y="83" on="1"/>
        <pt x="495" y="-2" on="1"/>
        <pt x="366" y="0" on="1"/>
        <pt x="96" y="0" on="1"/>
        <pt x="31" y="-3" on="1"/>
        <pt x="31" y="72" on="1"/>
        <pt x="375" y="560" on="1"/>
        <pt x="148" y="560" on="1"/>
        <pt x="45" y="552" on="1"/>
        <pt x="39" y="558" on="1"/>
        <pt x="47" y="643" on="1"/>
        <pt x="442" y="642" on="1"/>
        <pt x="496" y="643" on="1"/>
        <pt x="496" y="567" on="1"/>
      </contour>
    </TTGlyph>
    <TTGlyph name="Zacute" xMin="31" yMin="-3" xMax="504" yMax="874">
      <component glyphName="Z" x="0" y="0" flags="0x1000"/>
      <component glyphName="acute.cap" x="103" y="181" flags="0x1000"/>
    </TTGlyph>
    <TTGlyph name="Zcaron" xMin="31" yMin="-3" xMax="504" yMax="860">
      <component glyphName="Z" x="0" y="0" flags="0x1000"/>
      <component glyphName="caron.cap" x="78" y="181" flags="0x1000"/>
    </TTGlyph>
    <TTGlyph name="Zdotaccent" xMin="31" yMin="-3" xMax="504" yMax="857">
      <contour>
        <pt x="299" y="857" on="0"/>
        <pt x="327" y="828" on="0"/>
        <pt x="327" y="802" on="1"/>
        <pt x="327" y="775" on="0"/>
        <pt x="297" y="743" on="0"/>
        <pt x="271" y="743" on="1"/>
        <pt x="245" y="743" on="0"/>
        <pt x="216" y="773" on="0"/>
        <pt x="216" y="799" on="1"/>
        <pt x="216" y="825" on="0"/>
        <pt x="247" y="857" on="0"/>
        <pt x="274" y="857" on="1"/>
      </contour>
      <contour>
        <pt x="154" y="81" on="1"/>
        <pt x="398" y="81" on="1"/>
        <pt x="500" y="89" on="1"/>
        <pt x="504" y="83" on="1"/>
        <pt x="496" y="-2" on="1"/>
        <pt x="366" y="0" on="1"/>
        <pt x="96" y="0" on="1"/>
        <pt x="31" y="-3" on="1"/>
        <pt x="31" y="72" on="1"/>
        <pt x="375" y="560" on="1"/>
        <pt x="148" y="560" on="1"/>
        <pt x="45" y="552" on="1"/>
        <pt x="40" y="558" on="1"/>
        <pt x="48" y="643" on="1"/>
        <pt x="442" y="642" on="1"/>
        <pt x="497" y="643" on="1"/>
        <pt x="497" y="567" on="1"/>
      </contour>
    </TTGlyph>
    <TTGlyph name="a" xMin="21" yMin="0" xMax="489" yMax="501">
      <contour>
        <pt x="392" y="0" on="1"/>
        <pt x="379" y="62" on="1"/>
        <pt x="361" y="117" on="1"/>
        <pt x="249" y="118" on="1"/>
        <pt x="149" y="117" on="1"/>
        <pt x="130" y="67" on="1"/>
        <pt x="116" y="0" on="1"/>
        <pt x="21" y="0" on="1"/>
        <pt x="208" y="501" on="1"/>
        <pt x="320" y="501" on="1"/>
        <pt x="489" y="0" on="1"/>
      </contour>
      <contour>
        <pt x="265" y="411" on="1"/>
        <pt x="258" y="411" on="1"/>
        <pt x="177" y="192" on="1"/>
        <pt x="256" y="191" on="1"/>
        <pt x="336" y="192" on="1"/>
      </contour>
    </TTGlyph>
    <TTGlyph name="a.sups" xMin="30" yMin="329" xMax="311" yMax="650">
      <contour>
        <pt x="222" y="650" on="0"/>
        <pt x="278" y="604" on="0"/>
        <pt x="278" y="562" on="1"/>
        <pt x="275" y="482" on="1"/>
        <pt x="272" y="437" on="0"/>
        <pt x="272" y="416" on="1"/>
        <pt x="272" y="392" on="0"/>
        <pt x="287" y="392" on="1"/>
        <pt x="298" y="392" on="0"/>
        <pt x="304" y="397" on="1"/>
        <pt x="311" y="392" on="1"/>
        <pt x="302" y="345" on="1"/>
        <pt x="281" y="330" on="0"/>
        <pt x="256" y="330" on="1"/>
        <pt x="233" y="330" on="0"/>
        <pt x="210" y="351" on="0"/>
        <pt x="204" y="378" on="1"/>
        <pt x="200" y="378" on="1"/>
        <pt x="166" y="338" on="0"/>
        <pt x="127" y="329" on="1"/>
        <pt x="82" y="330" on="0"/>
        <pt x="30" y="378" on="0"/>
        <pt x="30" y="421" on="1"/>
        <pt x="30" y="486" on="0"/>
        <pt x="99" y="498" on="1"/>
        <pt x="198" y="516" on="1"/>
        <pt x="199" y="546" on="1"/>
        <pt x="199" y="590" on="0"/>
        <pt x="156" y="590" on="1"/>
        <pt x="119" y="590" on="0"/>
        <pt x="63" y="554" on="1"/>
        <pt x="56" y="557" on="1"/>
        <pt x="46" y="613" on="1"/>
        <pt x="107" y="650" on="0"/>
        <pt x="170" y="650" on="1"/>
      </contour>
      <contour>
        <pt x="108" y="458" on="0"/>
        <pt x="108" y="429" on="1"/>
        <pt x="108" y="389" on="0"/>
        <pt x="144" y="389" on="1"/>
        <pt x="172" y="389" on="0"/>
        <pt x="197" y="419" on="1"/>
        <pt x="198" y="476" on="1"/>
        <pt x="135" y="462" on="1"/>
      </contour>
    </TTGlyph>
    <TTGlyph name="aacute" xMin="21" yMin="0" xMax="489" yMax="748">
      <component glyphName="a" x="0" y="0" flags="0x1000"/>
      <component glyphName="acute" x="96" y="40" flags="0x1000"/>
    </TTGlyph>
    <TTGlyph name="abreve" xMin="21" yMin="0" xMax="489" yMax="723">
      <component glyphName="a" x="0" y="0" flags="0x1000"/>
      <component glyphName="breve" x="71" y="40" flags="0x1000"/>
    </TTGlyph>
    <TTGlyph name="abreveacute" xMin="21" yMin="0" xMax="489" yMax="829">
      <component glyphName="a" x="0" y="0" flags="0x1000"/>
      <component glyphName="breveacute" x="70" y="40" flags="0x1000"/>
    </TTGlyph>
    <TTGlyph name="abrevedotbelow" xMin="21" yMin="-176" xMax="489" yMax="723">
      <contour>
        <pt x="208" y="568" on="0"/>
        <pt x="142" y="632" on="0"/>
        <pt x="129" y="687" on="1"/>
        <pt x="155" y="723" on="1"/>
        <pt x="170" y="723" on="1"/>
        <pt x="191" y="640" on="0"/>
        <pt x="266" y="640" on="1"/>
        <pt x="341" y="640" on="0"/>
        <pt x="362" y="723" on="1"/>
        <pt x="377" y="723" on="1"/>
        <pt x="402" y="687" on="1"/>
        <pt x="389" y="632" on="0"/>
        <pt x="319" y="568" on="0"/>
        <pt x="263" y="568" on="1"/>
      </contour>
      <contour>
        <pt x="391" y="0" on="1"/>
        <pt x="379" y="62" on="1"/>
        <pt x="361" y="117" on="1"/>
        <pt x="248" y="118" on="1"/>
        <pt x="149" y="117" on="1"/>
        <pt x="130" y="67" on="1"/>
        <pt x="115" y="0" on="1"/>
        <pt x="21" y="0" on="1"/>
        <pt x="207" y="501" on="1"/>
        <pt x="319" y="501" on="1"/>
        <pt x="489" y="0" on="1"/>
      </contour>
      <contour>
        <pt x="264" y="411" on="1"/>
        <pt x="258" y="411" on="1"/>
        <pt x="177" y="192" on="1"/>
        <pt x="255" y="191" on="1"/>
        <pt x="336" y="192" on="1"/>
      </contour>
      <contour>
        <pt x="284" y="-62" on="0"/>
        <pt x="312" y="-91" on="0"/>
        <pt x="312" y="-117" on="1"/>
        <pt x="312" y="-144" on="0"/>
        <pt x="282" y="-176" on="0"/>
        <pt x="256" y="-176" on="1"/>
        <pt x="230" y="-176" on="0"/>
        <pt x="201" y="-146" on="0"/>
        <pt x="201" y="-120" on="1"/>
        <pt x="201" y="-94" on="0"/>
        <pt x="232" y="-62" on="0"/>
        <pt x="259" y="-62" on="1"/>
      </contour>
    </TTGlyph>
    <TTGlyph name="abrevegrave" xMin="21" yMin="0" xMax="489" yMax="829">
      <component glyphName="a" x="0" y="0" flags="0x1000"/>
      <component glyphName="brevegrave" x="70" y="40" flags="0x1000"/>
    </TTGlyph>
    <TTGlyph name="abrevehookabove" xMin="21" yMin="0" xMax="489" yMax="881">
      <contour>
        <pt x="218" y="829" on="0"/>
        <pt x="188" y="805" on="1"/>
        <pt x="169" y="835" on="1"/>
        <pt x="215" y="881" on="0"/>
        <pt x="263" y="881" on="1"/>
        <pt x="293" y="881" on="0"/>
        <pt x="334" y="845" on="0"/>
        <pt x="334" y="818" on="1"/>
        <pt x="334" y="799" on="0"/>
        <pt x="309" y="764" on="0"/>
        <pt x="280" y="740" on="1"/>
        <pt x="301" y="703" on="1"/>
        <pt x="261" y="681" on="1"/>
        <pt x="225" y="740" on="1"/>
        <pt x="276" y="778" on="0"/>
        <pt x="276" y="808" on="1"/>
        <pt x="276" y="829" on="0"/>
        <pt x="248" y="829" on="1"/>
      </contour>
      <contour>
        <pt x="213" y="562" on="0"/>
        <pt x="144" y="612" on="0"/>
        <pt x="128" y="659" on="1"/>
        <pt x="154" y="692" on="1"/>
        <pt x="169" y="692" on="1"/>
        <pt x="193" y="634" on="0"/>
        <pt x="266" y="634" on="1"/>
        <pt x="336" y="634" on="0"/>
        <pt x="361" y="692" on="1"/>
        <pt x="376" y="692" on="1"/>
        <pt x="401" y="659" on="1"/>
        <pt x="385" y="613" on="0"/>
        <pt x="313" y="562" on="0"/>
        <pt x="263" y="562" on="1"/>
      </contour>
      <contour>
        <pt x="391" y="0" on="1"/>
        <pt x="379" y="62" on="1"/>
        <pt x="361" y="117" on="1"/>
        <pt x="248" y="118" on="1"/>
        <pt x="149" y="117" on="1"/>
        <pt x="130" y="67" on="1"/>
        <pt x="115" y="0" on="1"/>
        <pt x="21" y="0" on="1"/>
        <pt x="207" y="501" on="1"/>
        <pt x="319" y="501" on="1"/>
        <pt x="489" y="0" on="1"/>
      </contour>
      <contour>
        <pt x="264" y="411" on="1"/>
        <pt x="258" y="411" on="1"/>
        <pt x="177" y="192" on="1"/>
        <pt x="255" y="191" on="1"/>
        <pt x="336" y="192" on="1"/>
      </contour>
    </TTGlyph>
    <TTGlyph name="abrevetilde" xMin="21" yMin="0" xMax="489" yMax="849">
      <contour>
        <pt x="114" y="750" on="1"/>
        <pt x="114" y="759" on="1"/>
        <pt x="175" y="833" on="1"/>
        <pt x="185" y="837" on="1"/>
        <pt x="215" y="833" on="0"/>
        <pt x="264" y="817" on="1"/>
        <pt x="317" y="802" on="0"/>
        <pt x="329" y="802" on="1"/>
        <pt x="342" y="802" on="0"/>
        <pt x="370" y="833" on="1"/>
        <pt x="385" y="849" on="1"/>
        <pt x="394" y="849" on="1"/>
        <pt x="422" y="819" on="1"/>
        <pt x="422" y="810" on="1"/>
        <pt x="362" y="736" on="1"/>
        <pt x="351" y="732" on="1"/>
        <pt x="335" y="734" on="0"/>
        <pt x="274" y="751" on="1"/>
        <pt x="218" y="767" on="0"/>
        <pt x="207" y="767" on="1"/>
        <pt x="198" y="767" on="0"/>
        <pt x="180" y="751" on="0"/>
        <pt x="158" y="727" on="0"/>
        <pt x="152" y="720" on="1"/>
        <pt x="143" y="720" on="1"/>
      </contour>
      <contour>
        <pt x="336" y="632" on="0"/>
        <pt x="360" y="689" on="1"/>
        <pt x="375" y="689" on="1"/>
        <pt x="400" y="656" on="1"/>
        <pt x="384" y="611" on="0"/>
        <pt x="314" y="563" on="0"/>
        <pt x="266" y="563" on="1"/>
        <pt x="217" y="563" on="0"/>
        <pt x="150" y="611" on="0"/>
        <pt x="136" y="656" on="1"/>
        <pt x="160" y="689" on="1"/>
        <pt x="175" y="689" on="1"/>
        <pt x="199" y="632" on="0"/>
        <pt x="269" y="632" on="1"/>
      </contour>
      <contour>
        <pt x="391" y="0" on="1"/>
        <pt x="379" y="62" on="1"/>
        <pt x="361" y="117" on="1"/>
        <pt x="248" y="118" on="1"/>
        <pt x="149" y="117" on="1"/>
        <pt x="130" y="67" on="1"/>
        <pt x="115" y="0" on="1"/>
        <pt x="21" y="0" on="1"/>
        <pt x="207" y="501" on="1"/>
        <pt x="319" y="501" on="1"/>
        <pt x="489" y="0" on="1"/>
      </contour>
      <contour>
        <pt x="264" y="411" on="1"/>
        <pt x="258" y="411" on="1"/>
        <pt x="177" y="192" on="1"/>
        <pt x="255" y="191" on="1"/>
        <pt x="336" y="192" on="1"/>
      </contour>
    </TTGlyph>
    <TTGlyph name="acaron" xMin="21" yMin="0" xMax="489" yMax="740">
      <component glyphName="a" x="0" y="0" flags="0x1000"/>
      <component glyphName="caron" x="71" y="40" flags="0x1000"/>
    </TTGlyph>
    <TTGlyph name="acircumflex" xMin="21" yMin="0" xMax="489" yMax="741">
      <contour>
        <pt x="123" y="604" on="1"/>
        <pt x="180" y="658" on="0"/>
        <pt x="253" y="741" on="1"/>
        <pt x="279" y="741" on="1"/>
        <pt x="351" y="658" on="0"/>
        <pt x="408" y="604" on="1"/>
        <pt x="381" y="564" on="1"/>
        <pt x="371" y="564" on="1"/>
        <pt x="302" y="624" on="0"/>
        <pt x="266" y="664" on="1"/>
        <pt x="231" y="627" on="0"/>
        <pt x="161" y="564" on="1"/>
        <pt x="150" y="564" on="1"/>
      </contour>
      <contour>
        <pt x="391" y="0" on="1"/>
        <pt x="379" y="62" on="1"/>
        <pt x="361" y="117" on="1"/>
        <pt x="248" y="118" on="1"/>
        <pt x="149" y="117" on="1"/>
        <pt x="130" y="67" on="1"/>
        <pt x="115" y="0" on="1"/>
        <pt x="21" y="0" on="1"/>
        <pt x="207" y="501" on="1"/>
        <pt x="319" y="501" on="1"/>
        <pt x="489" y="0" on="1"/>
      </contour>
      <contour>
        <pt x="264" y="411" on="1"/>
        <pt x="258" y="411" on="1"/>
        <pt x="177" y="192" on="1"/>
        <pt x="255" y="191" on="1"/>
        <pt x="336" y="192" on="1"/>
      </contour>
    </TTGlyph>
    <TTGlyph name="acircumflexacute" xMin="21" yMin="0" xMax="489" yMax="826">
      <component glyphName="a" x="0" y="0" flags="0x1000"/>
      <component glyphName="circumflexacute" x="70" y="40" flags="0x1000"/>
    </TTGlyph>
    <TTGlyph name="acircumflexdotbelow" xMin="21" yMin="-176" xMax="489" yMax="741">
      <contour>
        <pt x="123" y="604" on="1"/>
        <pt x="180" y="658" on="0"/>
        <pt x="253" y="741" on="1"/>
        <pt x="279" y="741" on="1"/>
        <pt x="351" y="658" on="0"/>
        <pt x="408" y="604" on="1"/>
        <pt x="381" y="564" on="1"/>
        <pt x="371" y="564" on="1"/>
        <pt x="302" y="624" on="0"/>
        <pt x="266" y="664" on="1"/>
        <pt x="231" y="627" on="0"/>
        <pt x="161" y="564" on="1"/>
        <pt x="150" y="564" on="1"/>
      </contour>
      <contour>
        <pt x="391" y="0" on="1"/>
        <pt x="379" y="62" on="1"/>
        <pt x="361" y="117" on="1"/>
        <pt x="248" y="118" on="1"/>
        <pt x="149" y="117" on="1"/>
        <pt x="130" y="67" on="1"/>
        <pt x="115" y="0" on="1"/>
        <pt x="21" y="0" on="1"/>
        <pt x="207" y="501" on="1"/>
        <pt x="319" y="501" on="1"/>
        <pt x="489" y="0" on="1"/>
      </contour>
      <contour>
        <pt x="264" y="411" on="1"/>
        <pt x="258" y="411" on="1"/>
        <pt x="177" y="192" on="1"/>
        <pt x="255" y="191" on="1"/>
        <pt x="336" y="192" on="1"/>
      </contour>
      <contour>
        <pt x="284" y="-62" on="0"/>
        <pt x="312" y="-91" on="0"/>
        <pt x="312" y="-117" on="1"/>
        <pt x="312" y="-144" on="0"/>
        <pt x="282" y="-176" on="0"/>
        <pt x="256" y="-176" on="1"/>
        <pt x="230" y="-176" on="0"/>
        <pt x="201" y="-146" on="0"/>
        <pt x="201" y="-120" on="1"/>
        <pt x="201" y="-94" on="0"/>
        <pt x="232" y="-62" on="0"/>
        <pt x="259" y="-62" on="1"/>
      </contour>
    </TTGlyph>
    <TTGlyph name="acircumflexgrave" xMin="21" yMin="0" xMax="489" yMax="826">
      <component glyphName="a" x="0" y="0" flags="0x1000"/>
      <component glyphName="circumflexgrave" x="70" y="40" flags="0x1000"/>
    </TTGlyph>
    <TTGlyph name="acircumflexhookabove" xMin="21" yMin="0" xMax="489" yMax="867">
      <contour>
        <pt x="319" y="818" on="0"/>
        <pt x="291" y="795" on="1"/>
        <pt x="273" y="823" on="1"/>
        <pt x="315" y="867" on="0"/>
        <pt x="362" y="867" on="1"/>
        <pt x="391" y="867" on="0"/>
        <pt x="429" y="833" on="0"/>
        <pt x="429" y="807" on="1"/>
        <pt x="429" y="789" on="0"/>
        <pt x="406" y="756" on="0"/>
        <pt x="378" y="733" on="1"/>
        <pt x="398" y="698" on="1"/>
        <pt x="360" y="676" on="1"/>
        <pt x="326" y="733" on="1"/>
        <pt x="374" y="770" on="0"/>
        <pt x="374" y="797" on="1"/>
        <pt x="374" y="818" on="0"/>
        <pt x="348" y="818" on="1"/>
      </contour>
      <contour>
        <pt x="128" y="613" on="1"/>
        <pt x="194" y="657" on="0"/>
        <pt x="252" y="709" on="1"/>
        <pt x="276" y="709" on="1"/>
        <pt x="330" y="661" on="0"/>
        <pt x="400" y="613" on="1"/>
        <pt x="381" y="570" on="1"/>
        <pt x="370" y="570" on="1"/>
        <pt x="352" y="581" on="1"/>
        <pt x="275" y="629" on="0"/>
        <pt x="264" y="636" on="1"/>
        <pt x="236" y="617" on="0"/>
        <pt x="159" y="570" on="1"/>
        <pt x="148" y="570" on="1"/>
      </contour>
      <contour>
        <pt x="391" y="0" on="1"/>
        <pt x="379" y="62" on="1"/>
        <pt x="361" y="117" on="1"/>
        <pt x="248" y="118" on="1"/>
        <pt x="149" y="117" on="1"/>
        <pt x="130" y="67" on="1"/>
        <pt x="115" y="0" on="1"/>
        <pt x="21" y="0" on="1"/>
        <pt x="207" y="501" on="1"/>
        <pt x="319" y="501" on="1"/>
        <pt x="489" y="0" on="1"/>
      </contour>
      <contour>
        <pt x="264" y="411" on="1"/>
        <pt x="258" y="411" on="1"/>
        <pt x="177" y="192" on="1"/>
        <pt x="255" y="191" on="1"/>
        <pt x="336" y="192" on="1"/>
      </contour>
    </TTGlyph>
    <TTGlyph name="acircumflextilde" xMin="21" yMin="0" xMax="489" yMax="849">
      <contour>
        <pt x="114" y="750" on="1"/>
        <pt x="114" y="759" on="1"/>
        <pt x="175" y="833" on="1"/>
        <pt x="185" y="837" on="1"/>
        <pt x="215" y="833" on="0"/>
        <pt x="264" y="817" on="1"/>
        <pt x="317" y="802" on="0"/>
        <pt x="329" y="802" on="1"/>
        <pt x="342" y="802" on="0"/>
        <pt x="370" y="833" on="1"/>
        <pt x="385" y="849" on="1"/>
        <pt x="394" y="849" on="1"/>
        <pt x="422" y="819" on="1"/>
        <pt x="422" y="810" on="1"/>
        <pt x="362" y="736" on="1"/>
        <pt x="351" y="732" on="1"/>
        <pt x="335" y="734" on="0"/>
        <pt x="274" y="751" on="1"/>
        <pt x="218" y="767" on="0"/>
        <pt x="207" y="767" on="1"/>
        <pt x="198" y="767" on="0"/>
        <pt x="180" y="751" on="0"/>
        <pt x="158" y="727" on="0"/>
        <pt x="152" y="720" on="1"/>
        <pt x="143" y="720" on="1"/>
      </contour>
      <contour>
        <pt x="330" y="661" on="0"/>
        <pt x="400" y="613" on="1"/>
        <pt x="381" y="570" on="1"/>
        <pt x="370" y="570" on="1"/>
        <pt x="352" y="581" on="1"/>
        <pt x="275" y="629" on="0"/>
        <pt x="264" y="636" on="1"/>
        <pt x="236" y="617" on="0"/>
        <pt x="159" y="570" on="1"/>
        <pt x="148" y="570" on="1"/>
        <pt x="128" y="613" on="1"/>
        <pt x="194" y="657" on="0"/>
        <pt x="252" y="709" on="1"/>
        <pt x="276" y="709" on="1"/>
      </contour>
      <contour>
        <pt x="391" y="0" on="1"/>
        <pt x="379" y="62" on="1"/>
        <pt x="361" y="117" on="1"/>
        <pt x="248" y="118" on="1"/>
        <pt x="149" y="117" on="1"/>
        <pt x="130" y="67" on="1"/>
        <pt x="115" y="0" on="1"/>
        <pt x="21" y="0" on="1"/>
        <pt x="207" y="501" on="1"/>
        <pt x="319" y="501" on="1"/>
        <pt x="489" y="0" on="1"/>
      </contour>
      <contour>
        <pt x="264" y="411" on="1"/>
        <pt x="258" y="411" on="1"/>
        <pt x="177" y="192" on="1"/>
        <pt x="255" y="191" on="1"/>
        <pt x="336" y="192" on="1"/>
      </contour>
    </TTGlyph>
    <TTGlyph name="acute" xMin="86" yMin="519" xMax="305" yMax="708">
      <contour>
        <pt x="305" y="653" on="1"/>
        <pt x="303" y="643" on="1"/>
        <pt x="224" y="585" on="0"/>
        <pt x="122" y="519" on="1"/>
        <pt x="112" y="520" on="1"/>
        <pt x="86" y="560" on="1"/>
        <pt x="191" y="645" on="0"/>
        <pt x="257" y="708" on="1"/>
        <pt x="267" y="707" on="1"/>
      </contour>
    </TTGlyph>
    <TTGlyph name="acute.cap" xMin="77" yMin="538" xMax="312" yMax="693">
      <contour>
        <pt x="312" y="630" on="1"/>
        <pt x="308" y="620" on="1"/>
        <pt x="242" y="591" on="0"/>
        <pt x="105" y="538" on="1"/>
        <pt x="94" y="542" on="1"/>
        <pt x="77" y="586" on="1"/>
        <pt x="207" y="653" on="0"/>
        <pt x="275" y="693" on="1"/>
        <pt x="285" y="691" on="1"/>
      </contour>
    </TTGlyph>
    <TTGlyph name="adieresis" xMin="21" yMin="0" xMax="489" yMax="705">
      <contour>
        <pt x="131" y="599" on="0"/>
        <pt x="131" y="651" on="1"/>
        <pt x="131" y="676" on="0"/>
        <pt x="160" y="705" on="0"/>
        <pt x="185" y="705" on="1"/>
        <pt x="209" y="705" on="0"/>
        <pt x="235" y="678" on="0"/>
        <pt x="235" y="654" on="1"/>
        <pt x="235" y="628" on="0"/>
        <pt x="207" y="599" on="0"/>
        <pt x="182" y="599" on="1"/>
      </contour>
      <contour>
        <pt x="295" y="599" on="0"/>
        <pt x="295" y="651" on="1"/>
        <pt x="295" y="676" on="0"/>
        <pt x="324" y="705" on="0"/>
        <pt x="349" y="705" on="1"/>
        <pt x="373" y="705" on="0"/>
        <pt x="399" y="678" on="0"/>
        <pt x="399" y="654" on="1"/>
        <pt x="399" y="628" on="0"/>
        <pt x="371" y="599" on="0"/>
        <pt x="346" y="599" on="1"/>
      </contour>
      <contour>
        <pt x="391" y="0" on="1"/>
        <pt x="379" y="62" on="1"/>
        <pt x="361" y="117" on="1"/>
        <pt x="248" y="118" on="1"/>
        <pt x="149" y="117" on="1"/>
        <pt x="130" y="67" on="1"/>
        <pt x="115" y="0" on="1"/>
        <pt x="21" y="0" on="1"/>
        <pt x="207" y="501" on="1"/>
        <pt x="319" y="501" on="1"/>
        <pt x="489" y="0" on="1"/>
      </contour>
      <contour>
        <pt x="264" y="411" on="1"/>
        <pt x="258" y="411" on="1"/>
        <pt x="177" y="192" on="1"/>
        <pt x="255" y="191" on="1"/>
        <pt x="336" y="192" on="1"/>
      </contour>
    </TTGlyph>
    <TTGlyph name="adotbelow" xMin="21" yMin="-176" xMax="489" yMax="501">
      <contour>
        <pt x="391" y="0" on="1"/>
        <pt x="379" y="62" on="1"/>
        <pt x="361" y="117" on="1"/>
        <pt x="248" y="118" on="1"/>
        <pt x="149" y="117" on="1"/>
        <pt x="130" y="67" on="1"/>
        <pt x="115" y="0" on="1"/>
        <pt x="21" y="0" on="1"/>
        <pt x="207" y="501" on="1"/>
        <pt x="319" y="501" on="1"/>
        <pt x="489" y="0" on="1"/>
      </contour>
      <contour>
        <pt x="264" y="411" on="1"/>
        <pt x="258" y="411" on="1"/>
        <pt x="177" y="192" on="1"/>
        <pt x="255" y="191" on="1"/>
        <pt x="336" y="192" on="1"/>
      </contour>
      <contour>
        <pt x="284" y="-62" on="0"/>
        <pt x="312" y="-91" on="0"/>
        <pt x="312" y="-117" on="1"/>
        <pt x="312" y="-144" on="0"/>
        <pt x="282" y="-176" on="0"/>
        <pt x="256" y="-176" on="1"/>
        <pt x="230" y="-176" on="0"/>
        <pt x="201" y="-146" on="0"/>
        <pt x="201" y="-120" on="1"/>
        <pt x="201" y="-94" on="0"/>
        <pt x="232" y="-62" on="0"/>
        <pt x="259" y="-62" on="1"/>
      </contour>
    </TTGlyph>
    <TTGlyph name="ae" xMin="-1" yMin="0" xMax="683" yMax="501">
      <contour>
        <pt x="676" y="0" on="1"/>
        <pt x="368" y="0" on="1"/>
        <pt x="364" y="60" on="1"/>
        <pt x="347" y="178" on="1"/>
        <pt x="149" y="130" on="1"/>
        <pt x="113" y="65" on="1"/>
        <pt x="91" y="0" on="1"/>
        <pt x="-1" y="0" on="1"/>
        <pt x="269" y="501" on="1"/>
        <pt x="609" y="501" on="1"/>
        <pt x="615" y="493" on="1"/>
        <pt x="607" y="422" on="1"/>
        <pt x="475" y="428" on="1"/>
        <pt x="399" y="428" on="1"/>
        <pt x="422" y="271" on="1"/>
        <pt x="593" y="310" on="1"/>
        <pt x="600" y="305" on="1"/>
        <pt x="606" y="233" on="1"/>
        <pt x="433" y="198" on="1"/>
        <pt x="451" y="75" on="1"/>
        <pt x="540" y="75" on="1"/>
        <pt x="677" y="80" on="1"/>
        <pt x="683" y="73" on="1"/>
      </contour>
      <contour>
        <pt x="312" y="413" on="1"/>
        <pt x="305" y="413" on="1"/>
        <pt x="197" y="218" on="1"/>
        <pt x="336" y="250" on="1"/>
      </contour>
    </TTGlyph>
    <TTGlyph name="aeacute" xMin="-1" yMin="0" xMax="683" yMax="748">
      <component glyphName="ae" x="0" y="0" flags="0x1000"/>
      <component glyphName="acute" x="245" y="40" flags="0x1000"/>
    </TTGlyph>
    <TTGlyph name="agrave" xMin="21" yMin="0" xMax="489" yMax="748">
      <contour>
        <pt x="236" y="625" on="0"/>
        <pt x="157" y="683" on="1"/>
        <pt x="155" y="693" on="1"/>
        <pt x="193" y="747" on="1"/>
        <pt x="203" y="748" on="1"/>
        <pt x="269" y="685" on="0"/>
        <pt x="374" y="600" on="1"/>
        <pt x="348" y="560" on="1"/>
        <pt x="338" y="559" on="1"/>
      </contour>
      <contour>
        <pt x="391" y="0" on="1"/>
        <pt x="379" y="62" on="1"/>
        <pt x="361" y="117" on="1"/>
        <pt x="248" y="118" on="1"/>
        <pt x="149" y="117" on="1"/>
        <pt x="130" y="67" on="1"/>
        <pt x="115" y="0" on="1"/>
        <pt x="21" y="0" on="1"/>
        <pt x="207" y="501" on="1"/>
        <pt x="319" y="501" on="1"/>
        <pt x="489" y="0" on="1"/>
      </contour>
      <contour>
        <pt x="264" y="411" on="1"/>
        <pt x="258" y="411" on="1"/>
        <pt x="177" y="192" on="1"/>
        <pt x="255" y="191" on="1"/>
        <pt x="336" y="192" on="1"/>
      </contour>
    </TTGlyph>
    <TTGlyph name="ahookabove" xMin="21" yMin="0" xMax="489" yMax="764">
      <component glyphName="a" x="0" y="0" flags="0x1000"/>
      <component glyphName="hookabove" x="69" y="39" flags="0x1000"/>
    </TTGlyph>
    <TTGlyph name="amacron" xMin="21" yMin="0" xMax="489" yMax="685">
      <component glyphName="a" x="0" y="0" flags="0x1000"/>
      <component glyphName="macron" x="70" y="40" flags="0x1000"/>
    </TTGlyph>
    <TTGlyph name="ampersand" xMin="38" yMin="-11" xMax="817" yMax="711">
      <contour>
        <pt x="796" y="257" on="0"/>
        <pt x="748" y="221" on="0"/>
        <pt x="712" y="217" on="1"/>
        <pt x="682" y="217" on="0"/>
        <pt x="605" y="232" on="1"/>
        <pt x="596" y="160" on="0"/>
        <pt x="517" y="50" on="0"/>
        <pt x="387" y="-11" on="0"/>
        <pt x="305" y="-11" on="1"/>
        <pt x="179" y="-11" on="0"/>
        <pt x="38" y="129" on="0"/>
        <pt x="38" y="252" on="1"/>
        <pt x="38" y="328" on="0"/>
        <pt x="92" y="445" on="0"/>
        <pt x="188" y="509" on="0"/>
        <pt x="247" y="509" on="1"/>
        <pt x="303" y="509" on="0"/>
        <pt x="366" y="455" on="0"/>
        <pt x="366" y="414" on="1"/>
        <pt x="366" y="409" on="0"/>
        <pt x="364" y="395" on="1"/>
        <pt x="553" y="535" on="0"/>
        <pt x="632" y="711" on="1"/>
        <pt x="641" y="711" on="1"/>
        <pt x="672" y="681" on="0"/>
        <pt x="682" y="643" on="1"/>
        <pt x="648" y="566" on="0"/>
        <pt x="478" y="388" on="0"/>
        <pt x="251" y="234" on="0"/>
        <pt x="136" y="188" on="1"/>
        <pt x="152" y="129" on="0"/>
        <pt x="242" y="64" on="0"/>
        <pt x="314" y="64" on="1"/>
        <pt x="405" y="64" on="0"/>
        <pt x="526" y="164" on="0"/>
        <pt x="531" y="247" on="1"/>
        <pt x="499" y="252" on="0"/>
        <pt x="484" y="252" on="1"/>
        <pt x="438" y="252" on="0"/>
        <pt x="406" y="196" on="1"/>
        <pt x="395" y="195" on="1"/>
        <pt x="378" y="253" on="1"/>
        <pt x="399" y="288" on="0"/>
        <pt x="448" y="322" on="0"/>
        <pt x="484" y="326" on="1"/>
        <pt x="514" y="326" on="0"/>
        <pt x="597" y="309" on="1"/>
        <pt x="688" y="292" on="0"/>
        <pt x="711" y="292" on="1"/>
        <pt x="765" y="292" on="0"/>
        <pt x="788" y="347" on="1"/>
        <pt x="800" y="348" on="1"/>
        <pt x="817" y="291" on="1"/>
      </contour>
      <contour>
        <pt x="190" y="441" on="0"/>
        <pt x="126" y="346" on="0"/>
        <pt x="126" y="266" on="1"/>
        <pt x="126" y="260" on="1"/>
        <pt x="197" y="288" on="0"/>
        <pt x="265" y="329" on="1"/>
        <pt x="303" y="359" on="0"/>
        <pt x="301" y="398" on="1"/>
        <pt x="299" y="419" on="0"/>
        <pt x="268" y="441" on="0"/>
        <pt x="244" y="441" on="1"/>
      </contour>
    </TTGlyph>
    <TTGlyph name="aogonek" xMin="21" yMin="-196" xMax="527" yMax="501">
      <contour>
        <pt x="483" y="-196" on="0"/>
        <pt x="436" y="-196" on="1"/>
        <pt x="402" y="-196" on="0"/>
        <pt x="357" y="-153" on="0"/>
        <pt x="357" y="-118" on="1"/>
        <pt x="357" y="-77" on="0"/>
        <pt x="409" y="0" on="1"/>
        <pt x="391" y="0" on="1"/>
        <pt x="379" y="62" on="1"/>
        <pt x="361" y="117" on="1"/>
        <pt x="248" y="118" on="1"/>
        <pt x="149" y="117" on="1"/>
        <pt x="130" y="67" on="1"/>
        <pt x="115" y="0" on="1"/>
        <pt x="21" y="0" on="1"/>
        <pt x="207" y="501" on="1"/>
        <pt x="319" y="501" on="1"/>
        <pt x="489" y="0" on="1"/>
        <pt x="467" y="0" on="1"/>
        <pt x="420" y="-64" on="0"/>
        <pt x="420" y="-99" on="1"/>
        <pt x="420" y="-132" on="0"/>
        <pt x="450" y="-132" on="1"/>
        <pt x="482" y="-132" on="0"/>
        <pt x="510" y="-94" on="1"/>
        <pt x="516" y="-94" on="1"/>
        <pt x="527" y="-144" on="1"/>
      </contour>
      <contour>
        <pt x="264" y="411" on="1"/>
        <pt x="258" y="411" on="1"/>
        <pt x="177" y="192" on="1"/>
        <pt x="255" y="191" on="1"/>
        <pt x="336" y="192" on="1"/>
      </contour>
    </TTGlyph>
    <TTGlyph name="approxequal" xMin="54" yMin="110" xMax="451" yMax="417">
      <component glyphName="asciitilde" x="12" y="89" flags="0x1000"/>
      <component glyphName="asciitilde" x="12" y="-85" flags="0x1000"/>
    </TTGlyph>
    <TTGlyph name="aring" xMin="21" yMin="0" xMax="489" yMax="748">
      <component glyphName="a" x="0" y="0" flags="0x1000"/>
      <component glyphName="ring" x="70" y="40" flags="0x1000"/>
    </TTGlyph>
    <TTGlyph name="aringacute" xMin="21" yMin="0" xMax="489" yMax="889">
      <contour>
        <pt x="167" y="815" on="1"/>
        <pt x="282" y="851" on="0"/>
        <pt x="380" y="889" on="1"/>
        <pt x="390" y="885" on="1"/>
        <pt x="406" y="821" on="1"/>
        <pt x="401" y="812" on="1"/>
        <pt x="334" y="794" on="0"/>
        <pt x="212" y="768" on="1"/>
        <pt x="203" y="767" on="0"/>
        <pt x="187" y="763" on="1"/>
        <pt x="177" y="768" on="1"/>
      </contour>
      <contour>
        <pt x="175" y="701" on="0"/>
        <pt x="222" y="748" on="0"/>
        <pt x="265" y="748" on="1"/>
        <pt x="307" y="748" on="0"/>
        <pt x="353" y="702" on="0"/>
        <pt x="353" y="663" on="1"/>
        <pt x="353" y="620" on="0"/>
        <pt x="303" y="573" on="0"/>
        <pt x="262" y="573" on="1"/>
        <pt x="222" y="573" on="0"/>
        <pt x="175" y="619" on="0"/>
        <pt x="175" y="660" on="1"/>
      </contour>
      <contour>
        <pt x="307" y="702" on="0"/>
        <pt x="263" y="702" on="1"/>
        <pt x="221" y="702" on="0"/>
        <pt x="221" y="662" on="1"/>
        <pt x="221" y="618" on="0"/>
        <pt x="264" y="618" on="1"/>
        <pt x="307" y="618" on="0"/>
        <pt x="307" y="660" on="1"/>
      </contour>
      <contour>
        <pt x="391" y="0" on="1"/>
        <pt x="379" y="62" on="1"/>
        <pt x="361" y="117" on="1"/>
        <pt x="248" y="118" on="1"/>
        <pt x="149" y="117" on="1"/>
        <pt x="130" y="67" on="1"/>
        <pt x="115" y="0" on="1"/>
        <pt x="21" y="0" on="1"/>
        <pt x="207" y="501" on="1"/>
        <pt x="319" y="501" on="1"/>
        <pt x="489" y="0" on="1"/>
      </contour>
      <contour>
        <pt x="264" y="411" on="1"/>
        <pt x="258" y="411" on="1"/>
        <pt x="177" y="192" on="1"/>
        <pt x="255" y="191" on="1"/>
        <pt x="336" y="192" on="1"/>
      </contour>
    </TTGlyph>
    <TTGlyph name="arrowdown" xMin="54" yMin="-5" xMax="469" yMax="468">
      <contour>
        <pt x="270" y="-5" on="1"/>
        <pt x="254" y="-5" on="1"/>
        <pt x="54" y="190" on="1"/>
        <pt x="68" y="246" on="1"/>
        <pt x="83" y="246" on="1"/>
        <pt x="229" y="105" on="1"/>
        <pt x="225" y="461" on="1"/>
        <pt x="232" y="468" on="1"/>
        <pt x="297" y="464" on="1"/>
        <pt x="293" y="104" on="1"/>
        <pt x="440" y="246" on="1"/>
        <pt x="455" y="246" on="1"/>
        <pt x="469" y="190" on="1"/>
      </contour>
    </TTGlyph>
    <TTGlyph name="arrowdownleft" xMin="96" yMin="54" xMax="463" yMax="419">
      <component glyphName="arrowdown" x="-76" y="252" scalex="0.706970214844" scale01="-0.706970214844" scale10="0.706970214844" scaley="0.706970214844" flags="0x1000"/>
    </TTGlyph>
    <TTGlyph name="arrowdownright" xMin="61" yMin="53" xMax="426" yMax="420">
      <component glyphName="arrowdown" x="228" y="-119" scalex="0.706970214844" scale01="0.706970214844" scale10="-0.706970214844" scaley="0.706970214844" flags="0x1000"/>
    </TTGlyph>
</ttFont>
